<?xml version="1.0" encoding="utf-8"?>
<!-- Generator: Adobe Illustrator 16.0.4, SVG Export Plug-In . SVG Version: 6.00 Build 0)  -->
<!DOCTYPE svg PUBLIC "-//W3C//DTD SVG 1.1//EN" "http://www.w3.org/Graphics/SVG/1.1/DTD/svg11.dtd">
<svg version="1.1" id="Layer_1" xmlns="http://www.w3.org/2000/svg" xmlns:xlink="http://www.w3.org/1999/xlink" x="0px" y="0px"
	 width="544.667px" height="159px" viewBox="0 0 544.667 159" enable-background="new 0 0 544.667 159" xml:space="preserve">
<g>
	<g>
		<g>
			<path fill="#FFFFFF" d="M69.26,98.908c-15.439,0-28-12.561-28-28c0-15.44,12.561-28.001,28-28.001c15.439,0,28,12.561,28,28.001
				C97.26,86.348,84.7,98.908,69.26,98.908z M69.26,43.907c-14.888,0-27,12.112-27,27.001c0,14.888,12.112,27,27,27
				c14.888,0,27-12.112,27-27C96.26,56.02,84.148,43.907,69.26,43.907z M85.206,86.545H53.314l-0.015-0.484
				c-0.042-1.371-0.21-8.281,0.666-9.641c0.81-1.266,2.915-2.082,5.353-3.027c0.66-0.257,1.343-0.521,2.024-0.806
				c2.106-0.879,3.109-1.364,3.518-1.575l0.024-2.453c-0.36-0.383-1.113-1.393-1.45-3.403c-0.912-0.222-1.549-1.515-1.592-2.22
				c-0.032-0.479,0.015-1.865,0.601-2.49c0.098-0.104,0.207-0.187,0.325-0.243c-0.184-1.462-0.241-2.338-0.19-2.886
				c0.254-2.629,2.823-5.349,6.682-5.349c3.862,0,6.431,2.72,6.683,5.349c0.051,0.543-0.006,1.418-0.188,2.886
				c0.116,0.057,0.224,0.137,0.321,0.239c0.702,0.746,0.606,2.476,0.605,2.494c-0.042,0.705-0.679,1.998-1.59,2.22
				c-0.34,2.012-1.092,3.021-1.451,3.403l0.026,2.455c0.407,0.209,1.408,0.695,3.519,1.573c0.684,0.285,1.369,0.552,2.032,0.81
				c2.432,0.944,4.533,1.76,5.342,3.025c0.871,1.357,0.706,8.268,0.665,9.639L85.206,86.545z M54.286,85.545h29.949
				c0.073-3.088-0.003-7.777-0.52-8.583c-0.634-0.991-2.688-1.789-4.862-2.634c-0.67-0.26-1.363-0.529-2.054-0.818
				c-3.094-1.287-3.863-1.752-3.894-1.771l-0.235-0.146l-0.037-3.489l0.197-0.151c0.005-0.004,1.004-0.845,1.331-3.351l0.075-0.58
				l0.561,0.164h0.001c0.313,0,0.853-0.82,0.882-1.311c0.047-0.781-0.174-1.689-0.366-1.773l-0.688,0.143l0.073-0.693
				c0.135-1.029,0.308-2.475,0.246-3.14c-0.209-2.183-2.394-4.442-5.688-4.442c-3.29,0-5.475,2.26-5.686,4.444
				c-0.062,0.669,0.112,2.11,0.248,3.137l0.093,0.697l-0.689-0.142c-0.213,0.078-0.435,1.006-0.385,1.768
				c0.03,0.494,0.571,1.314,0.865,1.314l0.561-0.162l0.097,0.576c0.322,2.506,1.323,3.346,1.333,3.354l0.187,0.152l0.003,0.244
				l-0.032,3.241l-0.237,0.146c-0.031,0.019-0.804,0.484-3.89,1.771c-0.689,0.287-1.379,0.556-2.047,0.814
				c-2.18,0.846-4.238,1.645-4.873,2.637C54.286,77.768,54.211,82.457,54.286,85.545z"/>
		</g>
	</g>
	<g>
		<g>
			<path fill="#FFFFFF" d="M327.919,97.422c-15.439,0-28-12.561-28-28s12.561-28,28-28c15.438,0,28,12.561,28,28
				S343.358,97.422,327.919,97.422z M327.919,42.422c-14.89,0-27,12.112-27,27c0,14.889,12.11,27,27,27c14.888,0,27-12.111,27-27
				C354.919,54.534,342.807,42.422,327.919,42.422z M327.919,85.979l-0.438-0.795c-0.424-0.771-1.104-1.93-1.918-3.316
				c-4.459-7.602-8.813-15.271-8.813-18.264c0-4.932,2.937-10.199,11.17-10.199c8.236,0,11.17,5.269,11.17,10.199
				c0,2.987-4.348,10.651-8.803,18.246c-0.818,1.396-1.502,2.561-1.929,3.336L327.919,85.979z M327.919,54.402
				c-1.698,0-10.17,0.442-10.17,9.199c0,2.969,5.645,12.59,8.676,17.758c0.58,0.988,1.093,1.86,1.494,2.562
				c0.401-0.705,0.918-1.585,1.504-2.582c3.027-5.162,8.666-14.771,8.666-17.737C338.089,54.846,329.617,54.402,327.919,54.402z"/>
		</g>
		<g>
			<path fill="#FFFFFF" d="M327.919,67.496c-2.147,0-3.896-1.747-3.896-3.895c0-2.148,1.747-3.896,3.896-3.896
				c2.146,0,3.895,1.747,3.895,3.896C331.814,65.749,330.066,67.496,327.919,67.496z M327.919,60.707
				c-1.596,0-2.896,1.298-2.896,2.895c0,1.598,1.301,2.896,2.896,2.896s2.895-1.298,2.895-2.896
				C330.814,62.005,329.515,60.707,327.919,60.707z"/>
		</g>
	</g>
	<g>
		<g>
			<path fill="#FFFFFF" d="M199.309,98.907c-15.439,0-28-12.562-28-28c0-15.439,12.561-28,28-28s28,12.561,28,28
				C227.309,86.346,214.749,98.907,199.309,98.907z M199.309,43.907c-14.888,0-27,12.112-27,27s12.112,27,27,27
				c14.888,0,27-12.112,27-27S214.197,43.907,199.309,43.907z M213.731,85.157H203.45V63.738h10.281V85.157z M204.45,84.157h8.281
				V64.738h-8.281V84.157z M202.593,85.157h-17.706V69.6l2.149-2.147h1.563v-5.187l2.044-4.095h1.667v-3.713h2.856v3.713h1.666
				l2.047,4.095v5.188h1.562l2.149,2.148v15.556H202.593L202.593,85.157z M185.887,84.157h15.706V70.014l-1.563-1.562h-2.148V62.5
				l-1.666-3.33h-2.047v-3.713h-0.856v3.713h-2.049l-1.663,3.33v5.952h-2.149l-1.563,1.562v14.144H185.887z"/>
		</g>
	</g>
	<g>
		<g>
			<path fill="#FFFFFF" d="M459.406,98.908c-15.439,0-28-12.561-28-28s12.561-28,28-28c15.438,0,28,12.561,28,28
				S474.845,98.908,459.406,98.908z M459.406,43.908c-14.889,0-27,12.111-27,27c0,14.888,12.111,27,27,27c14.887,0,27-12.112,27-27
				C486.406,56.02,474.292,43.908,459.406,43.908z M453.082,81.407l-12.248-10.499l12.25-10.499l2.535,2.959l-8.797,7.54
				l8.797,7.542L453.082,81.407z M442.371,70.908l10.604,9.089l1.234-1.438l-8.924-7.649l8.924-7.647l-1.234-1.441L442.371,70.908z
				 M465.728,81.407l-2.537-2.957l8.799-7.542l-8.799-7.54l2.537-2.959l12.248,10.499L465.728,81.407z M464.601,78.559l1.234,1.438
				l10.605-9.089l-10.605-9.09l-1.234,1.441l8.926,7.648L464.601,78.559z"/>
		</g>
	</g>
	<g>
		<rect x="96.76" y="70.407" fill="#FFFFFF" width="75.049" height="1"/>
	</g>
	<g>
		<rect x="226.809" y="70.407" fill="#FFFFFF" width="73.61" height="1"/>
	</g>
	<g>
		<rect x="355.419" y="70.407" fill="#FFFFFF" width="76.486" height="1"/>
	</g>
	<text transform="matrix(1 0 0 1 43.1787 121.9229)" fill="#FFFFFF" font-family="'OpenSans-Light'" font-size="17">people</text>
	<text transform="matrix(1 0 0 1 157.9219 121.9229)" fill="#FFFFFF" font-family="'OpenSans-Light'" font-size="17">supporting</text>
	<text transform="matrix(1 0 0 1 157.8838 142.3232)" fill="#FFFFFF" font-family="'OpenSans-Light'" font-size="17">companies</text>
	<text transform="matrix(1 0 0 1 291.7827 121.9229)" fill="#FFFFFF" font-family="'OpenSans-Light'" font-size="17">countries</text>
	<text transform="matrix(1 0 0 1 412.3599 121.9229)" fill="#FFFFFF" font-family="'OpenSans-Light'" font-size="17">lines of code</text>
	<text transform="matrix(1 0 0 1 43.1743 29.3545)" fill="#FFFFFF" font-family="'OpenSans-Light'" font-size="17">18,813</text>
	<text transform="matrix(1 0 0 1 183.7046 29.3545)" fill="#FFFFFF" font-family="'OpenSans-Light'" font-size="17">408</text>
	<text transform="matrix(1 0 0 1 312.7046 29.3545)" fill="#FFFFFF" font-family="'OpenSans-Light'" font-size="17">143</text>
	<text transform="matrix(1 0 0 1 438.7651 29.3545)" fill="#FFFFFF" font-family="'OpenSans-Light'" font-size="17">20M+</text>
</g>
</svg>
