<?xml version="1.0" encoding="utf-8"?>
<!-- Generator: Adobe Illustrator 16.0.4, SVG Export Plug-In . SVG Version: 6.00 Build 0)  -->
<!DOCTYPE svg PUBLIC "-//W3C//DTD SVG 1.1//EN" "http://www.w3.org/Graphics/SVG/1.1/DTD/svg11.dtd">
<svg version="1.1" id="Layer_1" xmlns="http://www.w3.org/2000/svg" xmlns:xlink="http://www.w3.org/1999/xlink" x="0px" y="0px"
	 width="544.667px" height="311px" viewBox="0 0 544.667 311" enable-background="new 0 0 544.667 311" xml:space="preserve">
<text transform="matrix(1 0 0 1 418.8452 249.7441)" fill="#FFFFFF" font-family="'OpenSans'" font-size="35.1757" content-value="param(codelines)" >20M+</text>
<text transform="matrix(1 0 0 1 411.6401 270.667)" fill="#FFFFFF" font-family="'OpenSans-Light'" font-size="17">lines of code</text>
<g>
	<g>
		<g>
			<path fill="#FFFFFF" d="M69.26,174.908c-15.439,0-28-12.561-28-28c0-15.44,12.561-28.001,28-28.001c15.439,0,28,12.561,28,28.001
				C97.26,162.348,84.7,174.908,69.26,174.908z M69.26,119.907c-14.888,0-27,12.113-27,27.001c0,14.888,12.112,27,27,27
				c14.888,0,27-12.112,27-27C96.26,132.02,84.148,119.907,69.26,119.907z M85.206,162.545H53.314l-0.015-0.484
				c-0.042-1.371-0.21-8.282,0.666-9.641c0.81-1.265,2.915-2.082,5.353-3.028c0.66-0.256,1.343-0.521,2.024-0.805
				c2.106-0.879,3.109-1.364,3.518-1.575l0.024-2.454c-0.36-0.382-1.113-1.392-1.45-3.403c-0.912-0.222-1.549-1.515-1.592-2.22
				c-0.032-0.479,0.015-1.864,0.601-2.49c0.098-0.104,0.207-0.186,0.325-0.243c-0.184-1.462-0.241-2.338-0.19-2.885
				c0.254-2.63,2.823-5.349,6.682-5.349c3.862,0,6.431,2.719,6.683,5.348c0.051,0.543-0.006,1.419-0.188,2.886
				c0.116,0.057,0.224,0.137,0.321,0.24c0.702,0.745,0.606,2.475,0.605,2.493c-0.042,0.706-0.679,1.998-1.59,2.22
				c-0.34,2.012-1.092,3.021-1.451,3.403l0.026,2.455c0.407,0.21,1.408,0.696,3.519,1.574c0.684,0.285,1.369,0.551,2.032,0.809
				c2.432,0.945,4.533,1.76,5.342,3.026c0.871,1.357,0.706,8.268,0.665,9.639L85.206,162.545z M54.286,161.545h29.949
				c0.073-3.088-0.003-7.778-0.52-8.583c-0.634-0.991-2.688-1.789-4.862-2.634c-0.67-0.26-1.363-0.529-2.054-0.818
				c-3.094-1.287-3.863-1.752-3.894-1.772l-0.235-0.145l-0.037-3.489l0.197-0.152c0.005-0.004,1.004-0.845,1.331-3.351l0.075-0.58
				l0.561,0.164h0.001c0.313,0,0.853-0.82,0.882-1.31c0.047-0.781-0.174-1.69-0.366-1.773l-0.688,0.142l0.073-0.693
				c0.135-1.029,0.308-2.475,0.246-3.14c-0.209-2.183-2.394-4.442-5.688-4.442c-3.29,0-5.475,2.259-5.686,4.444
				c-0.062,0.669,0.112,2.111,0.248,3.137l0.093,0.697l-0.689-0.142c-0.213,0.078-0.435,1.007-0.385,1.768
				c0.03,0.494,0.571,1.315,0.865,1.315l0.561-0.163l0.097,0.576c0.322,2.506,1.323,3.346,1.333,3.354l0.187,0.152l0.003,0.245
				l-0.032,3.241l-0.237,0.146c-0.031,0.019-0.804,0.484-3.89,1.771c-0.689,0.287-1.379,0.555-2.047,0.814
				c-2.18,0.846-4.238,1.645-4.873,2.637C54.286,153.768,54.211,158.457,54.286,161.545z"/>
		</g>
	</g>
	<g>
		<g>
			<path fill="#FFFFFF" d="M327.919,173.422c-15.439,0-28-12.561-28-28c0-15.439,12.561-28,28-28c15.438,0,28,12.561,28,28
				C355.919,160.861,343.358,173.422,327.919,173.422z M327.919,118.422c-14.889,0-27,12.112-27,27c0,14.889,12.111,27,27,27
				c14.888,0,27-12.111,27-27C354.919,130.534,342.807,118.422,327.919,118.422z M327.919,161.979l-0.438-0.795
				c-0.424-0.771-1.104-1.93-1.918-3.317c-4.459-7.601-8.813-15.272-8.813-18.264c0-4.931,2.936-10.199,11.17-10.199
				c8.236,0,11.17,5.269,11.17,10.199c0,2.988-4.348,10.652-8.803,18.246c-0.819,1.396-1.502,2.561-1.929,3.336L327.919,161.979z
				 M327.919,130.402c-1.698,0-10.17,0.443-10.17,9.199c0,2.97,5.645,12.59,8.676,17.758c0.58,0.988,1.093,1.86,1.494,2.562
				c0.402-0.705,0.918-1.585,1.504-2.582c3.027-5.162,8.666-14.771,8.666-17.738C338.089,130.846,329.617,130.402,327.919,130.402z"
				/>
		</g>
		<g>
			<path fill="#FFFFFF" d="M327.919,143.496c-2.147,0-3.896-1.747-3.896-3.895s1.747-3.895,3.896-3.895
				c2.147,0,3.895,1.747,3.895,3.895S330.066,143.496,327.919,143.496z M327.919,136.707c-1.596,0-2.896,1.298-2.896,2.895
				s1.3,2.895,2.896,2.895s2.895-1.298,2.895-2.895S329.515,136.707,327.919,136.707z"/>
		</g>
	</g>
	<g>
		<g>
			<path fill="#FFFFFF" d="M199.309,174.907c-15.439,0-28-12.562-28-28c0-15.439,12.561-28,28-28s28,12.561,28,28
				C227.309,162.346,214.749,174.907,199.309,174.907z M199.309,119.907c-14.888,0-27,12.112-27,27c0,14.888,12.112,27,27,27
				c14.888,0,27-12.112,27-27C226.309,132.019,214.197,119.907,199.309,119.907z M213.731,161.157H203.45v-21.419h10.281V161.157z
				 M204.45,160.157h8.281v-19.419h-8.281V160.157z M202.593,161.157h-17.706V145.6l2.149-2.148h1.563v-5.187l2.044-4.094h1.667
				v-3.713h2.856v3.713h1.666l2.047,4.094v5.188h1.562l2.149,2.148v15.556H202.593z M185.887,160.157h15.706v-14.144l-1.563-1.562
				h-2.148V138.5l-1.666-3.33h-2.047v-3.713h-0.856v3.713h-2.049l-1.663,3.33v5.952h-2.149l-1.563,1.562v14.143H185.887z"/>
		</g>
	</g>
	<g>
		<g>
			<path fill="#FFFFFF" d="M459.406,174.908c-15.439,0-28-12.561-28-28s12.561-28,28-28c15.438,0,28,12.561,28,28
				S474.845,174.908,459.406,174.908z M459.406,119.908c-14.889,0-27,12.112-27,27c0,14.888,12.111,27,27,27
				c14.887,0,27-12.112,27-27C486.406,132.02,474.292,119.908,459.406,119.908z M453.082,157.407l-12.248-10.499l12.25-10.499
				l2.535,2.959l-8.797,7.54l8.797,7.542L453.082,157.407z M442.371,146.908l10.604,9.089l1.234-1.439l-8.924-7.649l8.924-7.648
				l-1.234-1.441L442.371,146.908z M465.728,157.407l-2.537-2.957l8.799-7.542l-8.799-7.54l2.537-2.959l12.248,10.499
				L465.728,157.407z M464.601,154.558l1.234,1.439l10.605-9.089l-10.605-9.089l-1.234,1.441l8.926,7.648L464.601,154.558z"/>
		</g>
	</g>
	<g>
		<rect x="96.76" y="146.407" fill="#FFFFFF" width="75.049" height="1"/>
	</g>
	<g>
		<rect x="226.809" y="146.407" fill="#FFFFFF" width="73.61" height="1"/>
	</g>
	<g>
		<rect x="355.419" y="146.407" fill="#FFFFFF" width="76.486" height="1"/>
	</g>
	<g>
		<rect x="68.76" y="110.756" fill="#FFFFFF" width="1" height="8.651"/>
	</g>
	<g>
		<path fill="#FFFFFF" d="M69.139,111.256c-5.79,0-10.5-4.71-10.5-10.5s4.71-10.5,10.5-10.5s10.5,4.71,10.5,10.5
			S74.929,111.256,69.139,111.256z M69.139,91.256c-5.238,0-9.5,4.262-9.5,9.5c0,5.238,4.262,9.5,9.5,9.5c5.238,0,9.5-4.262,9.5-9.5
			C78.639,95.518,74.377,91.256,69.139,91.256z"/>
	</g>
	<g>
		<path fill="#FFFFFF" d="M199.309,215.923c-5.79,0-10.5-4.71-10.5-10.5s4.71-10.5,10.5-10.5s10.5,4.71,10.5,10.5
			S205.099,215.923,199.309,215.923z M199.309,195.923c-5.238,0-9.5,4.263-9.5,9.5c0,5.238,4.262,9.5,9.5,9.5
			c5.238,0,9.5-4.262,9.5-9.5C208.809,200.186,204.547,195.923,199.309,195.923z"/>
	</g>
	<g>
		<path fill="#FFFFFF" d="M327.919,93.256c-5.791,0-10.5-4.71-10.5-10.5s4.709-10.5,10.5-10.5c5.789,0,10.5,4.71,10.5,10.5
			S333.708,93.256,327.919,93.256z M327.919,73.256c-5.238,0-9.5,4.262-9.5,9.5c0,5.238,4.262,9.5,9.5,9.5s9.5-4.262,9.5-9.5
			C337.419,77.518,333.158,73.256,327.919,73.256z"/>
	</g>
	<g>
		<path fill="#FFFFFF" d="M459.406,205.923c-5.791,0-10.5-4.71-10.5-10.5s4.709-10.5,10.5-10.5c5.789,0,10.5,4.71,10.5,10.5
			S465.195,205.923,459.406,205.923z M459.406,185.923c-5.238,0-9.5,4.263-9.5,9.5c0,5.238,4.262,9.5,9.5,9.5
			c5.236,0,9.5-4.262,9.5-9.5C468.906,190.186,464.644,185.923,459.406,185.923z"/>
	</g>
	<g>
		<rect x="327.419" y="92.756" fill="#FFFFFF" width="1" height="25.166"/>
	</g>
	<g>
		<rect x="198.809" y="174.407" fill="#FFFFFF" width="1" height="21.016"/>
	</g>
	<g>
		<rect x="458.906" y="174.408" fill="#FFFFFF" width="1" height="11.015"/>
	</g>
</g>
<text transform="matrix(1 0 0 1 14.2876 52.332)" fill="#FFFFFF" font-family="'OpenSans'" font-size="35.1757" content-value="param(people)">18,813</text>
<text transform="matrix(1 0 0 1 42.5298 73.2559)" fill="#FFFFFF" font-family="'OpenSans-Light'" font-size="17">people</text>
<text transform="matrix(1 0 0 1 296.7124 36.332)" fill="#FFFFFF" font-family="'OpenSans'" font-size="35.1757" content-value="param(countries)">143</text>
<text transform="matrix(1 0 0 1 291.1343 57.2559)" fill="#FFFFFF" font-family="'OpenSans-Light'" font-size="17">countries</text>
<text transform="matrix(1 0 0 1 168.6401 256.7441)" fill="#FFFFFF" font-family="'OpenSans'" font-size="35.1757" content-value="param(organizations)">408</text>
<text transform="matrix(1 0 0 1 157.2017 277.667)" fill="#FFFFFF" font-family="'OpenSans-Light'" font-size="17">supporting</text>
<text transform="matrix(1 0 0 1 157.1636 298.0664)" fill="#FFFFFF" font-family="'OpenSans-Light'" font-size="17">companies</text>
<script type="text/ecmascript" xlink:href="/themes/openstack/javascript/svg/param.js"/>
</svg>
