<?xml version="1.0" encoding="iso-8859-1"?>
<!-- Generator: Adobe Illustrator 17.1.0, SVG Export Plug-In . SVG Version: 6.00 Build 0)  -->
<!DOCTYPE svg PUBLIC "-//W3C//DTD SVG 1.1//EN" "http://www.w3.org/Graphics/SVG/1.1/DTD/svg11.dtd">
<svg version="1.1" id="Layer_1" xmlns="http://www.w3.org/2000/svg" xmlns:xlink="http://www.w3.org/1999/xlink" x="0px" y="0px"
	 viewBox="0 0 100 100" enable-background="new 0 0 100 100" xml:space="preserve">
<g>
	<g>
		<g>
			<g>
				<g>
					<g enable-background="new    ">
						<g>
							<polygon fill="#D0D1D1" points="93.531,19.328 50.284,34.369 6.819,19.175 50.07,4.134 							"/>
						</g>
						<g>
							<polygon fill="#D0D1D1" points="93.531,19.328 93.187,80.827 49.935,95.866 50.284,34.369 							"/>
						</g>
						<g>
							<polygon fill="#D0D1D1" points="50.284,34.369 49.935,95.866 6.469,80.672 6.819,19.175 							"/>
						</g>
					</g>
				</g>
			</g>
			<g>
				<g>
					<g enable-background="new    ">
						<g>
							<polygon fill="#FFE045" stroke="#FFFFFF" stroke-width="1.6306" stroke-miterlimit="10" points="88.421,49.464 
								50.415,62.677 12.215,49.327 50.226,36.106 							"/>
						</g>
						<g>
							<polygon fill="#FFE045" stroke="#FFFFFF" stroke-width="1.6306" stroke-miterlimit="10" points="88.421,49.464 
								88.168,76.323 50.158,89.537 50.415,62.677 							"/>
						</g>
						<g>
							<polygon fill="#FFE045" stroke="#FFFFFF" stroke-width="1.6306" stroke-miterlimit="10" points="50.415,62.677 
								50.156,90.055 11.961,76.705 12.215,49.327 							"/>
						</g>
					</g>
				</g>
			</g>
			<g>
				<g>
					<g enable-background="new    ">
						<g>
							<polygon fill="#C4E885" stroke="#FFFFFF" stroke-width="1.6306" stroke-miterlimit="10" points="69.459,15.238 
								50.166,21.947 30.779,15.167 50.072,8.458 							"/>
						</g>
						<g>
							<polygon fill="#BEDB94" stroke="#FFFFFF" stroke-width="1.6306" stroke-miterlimit="10" points="69.459,15.238 
								69.306,42.669 50.01,49.378 50.166,21.947 							"/>
						</g>
						<g>
							<polygon fill="#BEDB94" stroke="#FFFFFF" stroke-width="1.6306" stroke-miterlimit="10" points="50.166,21.947 50.01,49.378 
								30.623,42.6 30.779,15.167 							"/>
						</g>
					</g>
				</g>
			</g>
			<g>
				<g>
					<g enable-background="new    ">
						<g>
							<polygon fill="#C4E885" stroke="#FFFFFF" stroke-width="1.6306" stroke-miterlimit="10" points="50.718,21.743 
								31.424,28.454 12.037,21.674 31.329,14.965 							"/>
						</g>
						<g>
							<polygon fill="#C4E885" stroke="#FFFFFF" stroke-width="1.6306" stroke-miterlimit="10" points="50.718,21.743 
								50.562,49.175 31.271,55.884 31.424,28.454 							"/>
						</g>
						<g>
							<polygon fill="#C4E885" stroke="#FFFFFF" stroke-width="1.6306" stroke-miterlimit="10" points="31.424,28.454 
								31.271,55.884 11.88,49.104 12.037,21.674 							"/>
						</g>
					</g>
				</g>
			</g>
			<g>
				<g>
					<g enable-background="new    ">
						<g>
							<polygon fill="#C4E885" stroke="#FFFFFF" stroke-width="1.6306" stroke-miterlimit="10" points="88.771,21.814 
								69.476,28.525 50.089,21.743 69.384,15.034 							"/>
						</g>
						<g>
							<polygon fill="#C4E885" stroke="#FFFFFF" stroke-width="1.6306" stroke-miterlimit="10" points="88.771,21.814 
								88.616,49.245 69.322,55.953 69.476,28.525 							"/>
						</g>
						<g>
							<polygon fill="#C4E885" stroke="#FFFFFF" stroke-width="1.6306" stroke-miterlimit="10" points="69.476,28.525 
								69.322,55.953 49.937,49.175 50.089,21.743 							"/>
						</g>
					</g>
				</g>
			</g>
		</g>
	</g>
</g>
</svg>
