<?xml version="1.0" encoding="iso-8859-1"?>
<!-- Generator: Adobe Illustrator 17.1.0, SVG Export Plug-In . SVG Version: 6.00 Build 0)  -->
<!DOCTYPE svg PUBLIC "-//W3C//DTD SVG 1.1//EN" "http://www.w3.org/Graphics/SVG/1.1/DTD/svg11.dtd">
<svg version="1.1" id="Layer_1" xmlns="http://www.w3.org/2000/svg" xmlns:xlink="http://www.w3.org/1999/xlink" x="0px" y="0px"
	 viewBox="0 0 100 100" enable-background="new 0 0 100 100" xml:space="preserve">
<g>
	<g>
		<g>
			<g>
				<g>
					<g enable-background="new    ">
						<g>
							<polygon fill="#CFD0D0" points="93.213,19.239 49.965,34.28 6.5,19.086 49.752,4.045 							"/>
						</g>
						<g>
							<polygon fill="#CFD0D0" points="93.213,19.239 92.868,80.738 49.617,95.777 49.965,34.28 							"/>
						</g>
						<g>
							<polygon fill="#CFD0D0" points="49.965,34.28 49.617,95.777 6.15,80.583 6.5,19.086 							"/>
						</g>
					</g>
				</g>
			</g>
		</g>
	</g>
	<g>
		<g>
			<g>
				<g enable-background="new    ">
					<g>
						<polygon fill="#30C4F3" stroke="#FFFFFF" stroke-width="1.6306" stroke-miterlimit="10" points="69.141,42.869 49.847,49.578 
							30.46,42.798 49.754,36.089 						"/>
					</g>
					<g>
						<polygon fill="#30C4F3" stroke="#FFFFFF" stroke-width="1.6306" stroke-miterlimit="10" points="69.141,42.869 68.987,70.3 
							49.692,77.009 49.847,49.578 						"/>
					</g>
					<g>
						<polygon fill="#30C4F3" stroke="#FFFFFF" stroke-width="1.6306" stroke-miterlimit="10" points="49.847,49.578 49.692,77.009 
							30.305,70.231 30.46,42.798 						"/>
					</g>
				</g>
			</g>
		</g>
		<g>
			<g>
				<g enable-background="new    ">
					<g>
						<polygon fill="#30C4F3" stroke="#FFFFFF" stroke-width="1.6306" stroke-miterlimit="10" points="50.399,49.374 31.106,56.085 
							11.719,49.305 31.01,42.596 						"/>
					</g>
					<g>
						<polygon fill="#30C4F3" stroke="#FFFFFF" stroke-width="1.6306" stroke-miterlimit="10" points="50.399,49.374 50.244,76.806 
							30.952,83.515 31.106,56.085 						"/>
					</g>
					<g>
						<polygon fill="#30C4F3" stroke="#FFFFFF" stroke-width="1.6306" stroke-miterlimit="10" points="31.106,56.085 30.952,83.515 
							11.562,76.735 11.719,49.305 						"/>
					</g>
				</g>
			</g>
		</g>
		<g>
			<g>
				<g enable-background="new    ">
					<g>
						<polygon fill="#30C4F3" stroke="#FFFFFF" stroke-width="1.6306" stroke-miterlimit="10" points="88.453,49.445 69.157,56.156 
							49.77,49.374 69.066,42.665 						"/>
					</g>
					<g>
						<polygon fill="#30C4F3" stroke="#FFFFFF" stroke-width="1.6306" stroke-miterlimit="10" points="88.453,49.445 88.297,76.876 
							69.004,83.584 69.157,56.156 						"/>
					</g>
					<g>
						<polygon fill="#30C4F3" stroke="#FFFFFF" stroke-width="1.6306" stroke-miterlimit="10" points="69.157,56.156 69.004,83.584 
							49.619,76.806 49.77,49.374 						"/>
					</g>
				</g>
			</g>
		</g>
		<g>
			<g>
				<g enable-background="new    ">
					<g>
						<polygon fill="#30C4F3" stroke="#FFFFFF" stroke-width="1.6306" stroke-miterlimit="10" points="69.001,56.358 49.706,63.069 
							30.319,56.287 49.614,49.578 						"/>
					</g>
					<g>
						<polygon fill="#30C4F3" stroke="#FFFFFF" stroke-width="1.6306" stroke-miterlimit="10" points="69.001,56.358 68.846,83.789 
							49.552,90.497 49.706,63.069 						"/>
					</g>
					<g>
						<polygon fill="#30C4F3" stroke="#FFFFFF" stroke-width="1.6306" stroke-miterlimit="10" points="49.706,63.069 49.552,90.497 
							30.167,83.719 30.319,56.287 						"/>
					</g>
				</g>
			</g>
		</g>
		<g>
			<g>
				<g enable-background="new    ">
					<g>
						<polygon fill="#30C4F3" stroke="#FFFFFF" stroke-width="1.6306" stroke-miterlimit="10" points="50.399,21.654 31.106,28.365 
							11.719,21.585 31.01,14.876 						"/>
					</g>
					<g>
						<polygon fill="#30C4F3" stroke="#FFFFFF" stroke-width="1.6306" stroke-miterlimit="10" points="50.399,21.654 50.244,49.087 
							30.952,55.795 31.106,28.365 						"/>
					</g>
					<g>
						<polygon fill="#30C4F3" stroke="#FFFFFF" stroke-width="1.6306" stroke-miterlimit="10" points="31.106,28.365 30.952,55.795 
							11.562,49.015 11.719,21.585 						"/>
					</g>
				</g>
			</g>
		</g>
	</g>
</g>
</svg>
