<?xml version="1.0" encoding="iso-8859-1"?>
<!-- Generator: Adobe Illustrator 17.1.0, SVG Export Plug-In . SVG Version: 6.00 Build 0)  -->
<!DOCTYPE svg PUBLIC "-//W3C//DTD SVG 1.1//EN" "http://www.w3.org/Graphics/SVG/1.1/DTD/svg11.dtd">
<svg version="1.1" id="Layer_1" xmlns="http://www.w3.org/2000/svg" xmlns:xlink="http://www.w3.org/1999/xlink" x="0px" y="0px"
	 viewBox="0 0 100 100" enable-background="new 0 0 100 100" xml:space="preserve">
<g>
	<g>
		<g>
			<g>
				<g>
					<g>
						<g enable-background="new    ">
							<g>
								<polygon fill="#D0D1D1" points="93.531,19.328 50.284,34.369 6.819,19.175 50.07,4.134 								"/>
							</g>
							<g>
								<polygon fill="#D0D1D1" points="93.531,19.328 93.187,80.827 49.935,95.866 50.284,34.369 								"/>
							</g>
							<g>
								<polygon fill="#D0D1D1" points="50.284,34.369 49.935,95.866 6.469,80.672 6.819,19.175 								"/>
							</g>
						</g>
					</g>
				</g>
			</g>
		</g>
	</g>
	<g enable-background="new    ">
		<g>
			<polygon fill="#BEDB94" stroke="#FFFFFF" stroke-width="1.6306" stroke-miterlimit="10" points="69.459,42.958 50.166,49.667 
				30.779,42.887 50.072,36.178 			"/>
		</g>
		<g>
			<polygon fill="#BEDB94" stroke="#FFFFFF" stroke-width="1.6306" stroke-miterlimit="10" points="69.459,42.958 69.306,70.389 
				50.01,77.097 50.166,49.667 			"/>
		</g>
		<g>
			<polygon fill="#BEDB94" stroke="#FFFFFF" stroke-width="1.6306" stroke-miterlimit="10" points="50.166,49.667 50.01,77.097 
				30.623,70.319 30.779,42.887 			"/>
		</g>
	</g>
	<g enable-background="new    ">
		<g>
			<polygon fill="#BEDB94" stroke="#FFFFFF" stroke-width="1.6306" stroke-miterlimit="10" points="50.718,49.463 31.424,56.174 
				12.037,49.394 31.329,42.685 			"/>
		</g>
		<g>
			<polygon fill="#BEDB94" stroke="#FFFFFF" stroke-width="1.6306" stroke-miterlimit="10" points="50.718,49.463 50.562,76.895 
				31.271,83.604 31.424,56.174 			"/>
		</g>
		<g>
			<polygon fill="#FF4C75" stroke="#FFFFFF" stroke-width="1.6306" stroke-miterlimit="10" points="31.424,56.174 31.271,83.604 
				11.88,76.824 12.037,49.394 			"/>
		</g>
	</g>
	<g enable-background="new    ">
		<g>
			<polygon fill="#BEDB94" stroke="#FFFFFF" stroke-width="1.6306" stroke-miterlimit="10" points="88.771,49.534 69.476,56.245 
				50.089,49.463 69.384,42.754 			"/>
		</g>
		<g>
			<polygon fill="#FF4C75" stroke="#FFFFFF" stroke-width="1.6306" stroke-miterlimit="10" points="88.771,49.534 88.616,76.965 
				69.322,83.673 69.476,56.245 			"/>
		</g>
		<g>
			<polygon fill="#BEDB94" stroke="#FFFFFF" stroke-width="1.6306" stroke-miterlimit="10" points="69.476,56.245 69.322,83.673 
				49.937,76.895 50.089,49.463 			"/>
		</g>
	</g>
	<g enable-background="new    ">
		<g>
			<polygon fill="#BEDB94" stroke="#FFFFFF" stroke-width="1.6306" stroke-miterlimit="10" points="69.319,56.447 50.024,63.158 
				30.637,56.376 49.932,49.667 			"/>
		</g>
		<g>
			<polygon fill="#FF4C75" stroke="#FFFFFF" stroke-width="1.6306" stroke-miterlimit="10" points="69.319,56.447 69.164,83.878 
				49.871,90.586 50.024,63.158 			"/>
		</g>
		<g>
			<polygon fill="#FF4C75" stroke="#FFFFFF" stroke-width="1.6306" stroke-miterlimit="10" points="50.024,63.158 49.871,90.586 
				30.485,83.808 30.637,56.376 			"/>
		</g>
	</g>
	<g enable-background="new    ">
		<g>
			<polygon fill="#FF4C75" stroke="#FFFFFF" stroke-width="1.6306" stroke-miterlimit="10" points="69.459,15.682 50.166,22.391 
				30.779,15.611 50.072,8.902 			"/>
		</g>
		<g>
			<polygon fill="#BEDB94" stroke="#FFFFFF" stroke-width="1.6306" stroke-miterlimit="10" points="69.459,15.682 69.306,43.112 
				50.01,49.821 50.166,22.391 			"/>
		</g>
		<g>
			<polygon fill="#BEDB94" stroke="#FFFFFF" stroke-width="1.6306" stroke-miterlimit="10" points="50.166,22.391 50.01,49.821 
				30.623,43.043 30.779,15.611 			"/>
		</g>
	</g>
	<g enable-background="new    ">
		<g>
			<polygon fill="#FF4C75" stroke="#FFFFFF" stroke-width="1.6306" stroke-miterlimit="10" points="50.718,22.187 31.424,28.897 
				12.037,22.117 31.329,15.409 			"/>
		</g>
		<g>
			<polygon fill="#BEDB94" stroke="#FFFFFF" stroke-width="1.6306" stroke-miterlimit="10" points="50.718,22.187 50.562,49.619 
				31.271,56.328 31.424,28.897 			"/>
		</g>
		<g>
			<polygon fill="#FF4C75" stroke="#FFFFFF" stroke-width="1.6306" stroke-miterlimit="10" points="31.424,28.897 31.271,56.328 
				11.88,49.548 12.037,22.117 			"/>
		</g>
	</g>
	<g enable-background="new    ">
		<g>
			<polygon fill="#FF4C75" stroke="#FFFFFF" stroke-width="1.6306" stroke-miterlimit="10" points="88.771,22.258 69.476,28.968 
				50.089,22.187 69.384,15.478 			"/>
		</g>
		<g>
			<polygon fill="#FF4C75" stroke="#FFFFFF" stroke-width="1.6306" stroke-miterlimit="10" points="88.771,22.258 88.616,49.688 
				69.322,56.397 69.476,28.968 			"/>
		</g>
		<g>
			<polygon fill="#BEDB94" stroke="#FFFFFF" stroke-width="1.6306" stroke-miterlimit="10" points="69.476,28.968 69.322,56.397 
				49.937,49.619 50.089,22.187 			"/>
		</g>
	</g>
	<g enable-background="new    ">
		<g>
			<polygon fill="#FF4C75" stroke="#FFFFFF" stroke-width="1.6306" stroke-miterlimit="10" points="69.319,29.171 50.024,35.881 
				30.637,29.1 49.932,22.391 			"/>
		</g>
		<g>
			<polygon fill="#FF4C75" stroke="#FFFFFF" stroke-width="1.6306" stroke-miterlimit="10" points="69.319,29.171 69.164,56.601 
				49.871,63.31 50.024,35.881 			"/>
		</g>
		<g>
			<polygon fill="#FF4C75" stroke="#FFFFFF" stroke-width="1.6306" stroke-miterlimit="10" points="50.024,35.881 49.871,63.31 
				30.485,56.532 30.637,29.1 			"/>
		</g>
	</g>
</g>
</svg>
