<?xml version="1.0" encoding="utf-8"?>
<!-- Generator: Adobe Illustrator 16.0.4, SVG Export Plug-In . SVG Version: 6.00 Build 0)  -->
<!DOCTYPE svg PUBLIC "-//W3C//DTD SVG 1.1//EN" "http://www.w3.org/Graphics/SVG/1.1/DTD/svg11.dtd">
<svg version="1.1" id="Layer_1" xmlns="http://www.w3.org/2000/svg" xmlns:xlink="http://www.w3.org/1999/xlink" x="0px" y="0px"
	 width="575px" height="307px" viewBox="0 0 575 307" enable-background="new 0 0 575 307" xml:space="preserve">
<path fill="#F1624F" d="M568,289.016c0,6.627-0.373,7-7,7H18c-6.627,0-7,0.627-7-6v-277c0-6.627-0.627-6,6-6h544
	c6.627,0,7,0.373,7,7V289.016z"/>
<g>
	<path fill="#FFFFFF" d="M43.123,68.651h-1.861V43.972h-8.582v-1.734h19.024v1.734h-8.582V68.651z"/>
	<path fill="#FFFFFF" d="M68.868,68.651V55.914c0-1.975-0.416-3.412-1.247-4.309c-0.831-0.897-2.12-1.346-3.866-1.346
		c-2.349,0-4.068,0.593-5.158,1.779c-1.09,1.187-1.635,3.111-1.635,5.772v10.84h-1.789V40.54h1.789v8.943l-0.09,2.511h0.126
		c0.734-1.18,1.662-2.035,2.782-2.565c1.12-0.53,2.511-0.795,4.173-0.795c4.456,0,6.685,2.391,6.685,7.172v12.845H68.868z"/>
	<path fill="#FFFFFF" d="M84.929,69.012c-2.854,0-5.08-0.879-6.675-2.638c-1.596-1.758-2.394-4.221-2.394-7.389
		c0-3.131,0.771-5.64,2.312-7.525c1.542-1.885,3.619-2.827,6.233-2.827c2.312,0,4.137,0.807,5.474,2.421
		c1.337,1.614,2.005,3.806,2.005,6.576v1.445H77.738c0.024,2.698,0.653,4.758,1.888,6.179c1.234,1.421,3.001,2.132,5.302,2.132
		c1.12,0,2.105-0.078,2.954-0.235c0.85-0.156,1.924-0.494,3.225-1.012v1.626c-1.108,0.482-2.132,0.81-3.071,0.985
		C87.097,68.925,86.061,69.012,84.929,69.012z M84.405,50.223c-1.891,0-3.409,0.623-4.553,1.87
		c-1.145,1.246-1.813,3.044-2.005,5.393h12.141c0-2.276-0.494-4.056-1.481-5.339C87.518,50.865,86.151,50.223,84.405,50.223z"/>
	<path fill="#FFFFFF" d="M120.61,68.651V55.914c0-1.975-0.416-3.412-1.247-4.309c-0.831-0.897-2.12-1.346-3.866-1.346
		c-2.349,0-4.068,0.593-5.158,1.779c-1.09,1.187-1.635,3.111-1.635,5.772v10.84h-1.789V40.54h1.789v8.943l-0.09,2.511h0.126
		c0.734-1.18,1.662-2.035,2.782-2.565c1.12-0.53,2.511-0.795,4.173-0.795c4.456,0,6.685,2.391,6.685,7.172v12.845H120.61z"/>
	<path fill="#FFFFFF" d="M140.664,68.651l-0.452-3.107h-0.145c-0.988,1.265-2.002,2.159-3.044,2.683
		c-1.042,0.524-2.273,0.786-3.694,0.786c-1.927,0-3.427-0.494-4.499-1.481c-1.072-0.987-1.608-2.354-1.608-4.101
		c0-1.915,0.798-3.402,2.394-4.462c1.596-1.06,3.905-1.62,6.929-1.68l3.74-0.108v-1.301c0-1.867-0.379-3.276-1.138-4.228
		c-0.759-0.951-1.981-1.427-3.667-1.427c-1.819,0-3.704,0.506-5.655,1.518l-0.668-1.554c2.156-1.012,4.288-1.518,6.396-1.518
		c2.156,0,3.767,0.56,4.833,1.68c1.066,1.12,1.599,2.867,1.599,5.239v13.062H140.664z M133.437,67.386
		c2.096,0,3.749-0.599,4.959-1.798c1.211-1.198,1.816-2.863,1.816-4.995V58.66l-3.433,0.145c-2.758,0.133-4.724,0.563-5.899,1.292
		c-1.174,0.729-1.761,1.864-1.761,3.406c0,1.229,0.376,2.183,1.129,2.864C131.001,67.046,132.064,67.386,133.437,67.386z"/>
	<path fill="#FFFFFF" d="M150.13,68.651h-1.789V40.54h1.789V68.651z"/>
	<path fill="#FFFFFF" d="M164.005,50.566h-4.625v18.084h-1.789V50.566h-3.649v-1.048l3.649-0.668v-1.518
		c0-2.409,0.443-4.176,1.328-5.303c0.886-1.126,2.333-1.689,4.345-1.689c1.084,0,2.168,0.163,3.252,0.488l-0.416,1.554
		c-0.964-0.301-1.921-0.452-2.873-0.452c-1.397,0-2.388,0.413-2.972,1.238c-0.584,0.825-0.876,2.165-0.876,4.02v1.825h4.625V50.566z
		"/>
	<path fill="#FFFFFF" d="M166.173,59.401v-1.481h8.582v1.481H166.173z"/>
	<path fill="#FFFFFF" d="M187.438,48.633c0.831,0,1.722,0.084,2.674,0.253l-0.343,1.716c-0.819-0.205-1.668-0.307-2.547-0.307
		c-1.674,0-3.047,0.711-4.119,2.132c-1.072,1.421-1.608,3.216-1.608,5.384v10.84h-1.789V49.013h1.518l0.181,3.541h0.126
		c0.807-1.445,1.668-2.46,2.583-3.044C185.028,48.925,186.137,48.633,187.438,48.633z"/>
	<path fill="#FFFFFF" d="M206.028,68.651l-0.452-3.107h-0.145c-0.988,1.265-2.002,2.159-3.044,2.683
		c-1.042,0.524-2.273,0.786-3.694,0.786c-1.927,0-3.427-0.494-4.499-1.481c-1.072-0.987-1.608-2.354-1.608-4.101
		c0-1.915,0.798-3.402,2.394-4.462c1.596-1.06,3.905-1.62,6.929-1.68l3.74-0.108v-1.301c0-1.867-0.379-3.276-1.138-4.228
		c-0.759-0.951-1.981-1.427-3.667-1.427c-1.819,0-3.704,0.506-5.655,1.518l-0.668-1.554c2.156-1.012,4.288-1.518,6.396-1.518
		c2.156,0,3.767,0.56,4.833,1.68c1.066,1.12,1.599,2.867,1.599,5.239v13.062H206.028z M198.801,67.386
		c2.096,0,3.749-0.599,4.959-1.798c1.211-1.198,1.816-2.863,1.816-4.995V58.66l-3.433,0.145c-2.758,0.133-4.724,0.563-5.899,1.292
		c-1.174,0.729-1.761,1.864-1.761,3.406c0,1.229,0.376,2.183,1.129,2.864C196.365,67.046,197.428,67.386,198.801,67.386z"/>
	<path fill="#FFFFFF" d="M221.547,69.012c-2.807,0-5.004-0.885-6.594-2.656s-2.385-4.239-2.385-7.407
		c0-3.252,0.825-5.784,2.475-7.597c1.65-1.812,3.908-2.719,6.775-2.719c1.698,0,3.324,0.295,4.878,0.885l-0.488,1.59
		c-1.698-0.566-3.174-0.849-4.426-0.849c-2.409,0-4.234,0.744-5.474,2.231c-1.241,1.487-1.861,3.628-1.861,6.422
		c0,2.65,0.62,4.724,1.861,6.224c1.24,1.499,2.975,2.249,5.203,2.249c1.782,0,3.438-0.319,4.968-0.958v1.662
		C225.226,68.705,223.582,69.012,221.547,69.012z"/>
	<path fill="#FFFFFF" d="M233.037,60.033l10.027-11.021h2.168l-7.732,8.383l8.401,11.255h-2.15l-7.461-9.918l-3.216,2.927v6.992
		h-1.789V40.54h1.789v14.092l-0.126,5.402H233.037z"/>
	<path fill="#FFFFFF" d="M275.15,49.826c0,2.554-0.867,4.511-2.602,5.872c-1.734,1.361-4.191,2.042-7.371,2.042h-4.083v10.912
		h-1.843V42.238h6.468C272.006,42.238,275.15,44.767,275.15,49.826z M261.094,56.149h3.631c2.975,0,5.125-0.491,6.45-1.473
		c1.325-0.981,1.987-2.574,1.987-4.778c0-2.035-0.626-3.544-1.879-4.525c-1.253-0.982-3.192-1.473-5.817-1.473h-4.372V56.149z"/>
	<path fill="#FFFFFF" d="M303.099,55.408c0,4.191-1.048,7.506-3.144,9.946c-2.096,2.438-4.986,3.658-8.672,3.658
		c-3.674,0-6.558-1.22-8.654-3.658c-2.096-2.439-3.144-5.766-3.144-9.982c0-4.203,1.057-7.513,3.17-9.927
		c2.114-2.415,5.001-3.623,8.663-3.623c3.686,0,6.57,1.213,8.654,3.64C302.057,47.89,303.099,51.205,303.099,55.408z
		 M281.491,55.408c0,3.782,0.843,6.706,2.529,8.771c1.686,2.066,4.107,3.099,7.263,3.099c3.18,0,5.609-1.023,7.29-3.071
		c1.68-2.047,2.52-4.98,2.52-8.798c0-3.806-0.84-6.724-2.52-8.753c-1.681-2.029-4.099-3.044-7.254-3.044
		c-3.144,0-5.567,1.024-7.271,3.071C282.343,48.73,281.491,51.639,281.491,55.408z"/>
	<path fill="#FFFFFF" d="M320.443,43.521c-3.312,0-5.92,1.06-7.823,3.18c-1.903,2.12-2.854,5.022-2.854,8.708
		c0,3.77,0.897,6.697,2.691,8.78c1.795,2.084,4.36,3.125,7.697,3.125c2.216,0,4.251-0.283,6.105-0.849v1.626
		c-1.746,0.614-3.926,0.921-6.539,0.921c-3.71,0-6.631-1.198-8.763-3.595c-2.132-2.396-3.198-5.745-3.198-10.045
		c0-2.686,0.509-5.052,1.527-7.1c1.018-2.047,2.48-3.628,4.39-4.742c1.909-1.114,4.128-1.671,6.657-1.671
		c2.578,0,4.885,0.482,6.92,1.445l-0.74,1.662C324.586,44.002,322.562,43.521,320.443,43.521z"/>
	<path fill="#FFFFFF" d="M51.488,108.651l-4.3-13.134c-0.277-0.891-0.632-2.198-1.066-3.92h-0.108l-0.379,1.337l-0.813,2.62
		l-4.372,13.098h-1.771L33.06,89.013h1.915l3.144,11.382c0.734,2.818,1.216,4.89,1.445,6.215h0.108
		c0.71-2.818,1.229-4.691,1.554-5.619l4.047-11.978h1.626l3.848,11.942c0.867,2.831,1.397,4.704,1.59,5.619h0.108
		c0.096-0.783,0.578-2.878,1.445-6.287l2.999-11.273h1.807l-5.33,19.638H51.488z"/>
	<path fill="#FFFFFF" d="M74.468,108.651l-0.452-3.107h-0.145c-0.988,1.265-2.002,2.159-3.044,2.683
		c-1.042,0.524-2.273,0.786-3.694,0.786c-1.927,0-3.427-0.494-4.499-1.481c-1.072-0.987-1.608-2.354-1.608-4.101
		c0-1.915,0.798-3.402,2.394-4.462c1.596-1.06,3.905-1.62,6.929-1.68l3.74-0.108v-1.301c0-1.867-0.379-3.276-1.138-4.228
		c-0.759-0.951-1.981-1.427-3.667-1.427c-1.819,0-3.704,0.506-5.655,1.518l-0.668-1.554c2.156-1.012,4.288-1.518,6.396-1.518
		c2.156,0,3.767,0.56,4.833,1.68c1.066,1.12,1.599,2.867,1.599,5.239v13.062H74.468z M67.242,107.386
		c2.096,0,3.749-0.599,4.959-1.798c1.211-1.198,1.816-2.863,1.816-4.995V98.66l-3.433,0.145c-2.758,0.133-4.724,0.563-5.899,1.292
		c-1.174,0.729-1.761,1.864-1.761,3.406c0,1.229,0.376,2.183,1.129,2.864C64.806,107.046,65.869,107.386,67.242,107.386z"/>
	<path fill="#FFFFFF" d="M94.323,103.538c0,1.759-0.668,3.11-2.005,4.056c-1.337,0.945-3.234,1.418-5.691,1.418
		c-2.626,0-4.709-0.403-6.251-1.21v-1.933c1.975,0.988,4.059,1.481,6.251,1.481c1.939,0,3.412-0.322,4.417-0.967
		c1.006-0.644,1.509-1.502,1.509-2.574c0-0.987-0.4-1.818-1.201-2.493c-0.801-0.674-2.117-1.337-3.948-1.987
		c-1.963-0.71-3.342-1.322-4.137-1.834c-0.795-0.512-1.394-1.09-1.798-1.734c-0.403-0.644-0.605-1.43-0.605-2.357
		c0-1.469,0.617-2.631,1.852-3.487c1.234-0.855,2.959-1.283,5.176-1.283c2.12,0,4.131,0.397,6.034,1.192l-0.668,1.626
		c-1.927-0.795-3.716-1.192-5.366-1.192c-1.602,0-2.873,0.265-3.812,0.795c-0.939,0.53-1.409,1.265-1.409,2.204
		c0,1.024,0.364,1.843,1.093,2.457c0.729,0.614,2.152,1.301,4.272,2.06c1.771,0.639,3.059,1.213,3.866,1.726
		c0.807,0.512,1.412,1.093,1.815,1.743C94.122,101.894,94.323,102.659,94.323,103.538z"/>
	<path fill="#FFFFFF" d="M116.834,109.012c-2.807,0-5.004-0.885-6.594-2.656s-2.385-4.239-2.385-7.407
		c0-3.252,0.825-5.784,2.475-7.597c1.65-1.812,3.908-2.719,6.775-2.719c1.698,0,3.324,0.295,4.878,0.885l-0.488,1.59
		c-1.698-0.566-3.174-0.849-4.426-0.849c-2.409,0-4.234,0.744-5.474,2.231c-1.241,1.487-1.861,3.628-1.861,6.422
		c0,2.65,0.62,4.724,1.861,6.224c1.24,1.499,2.975,2.249,5.203,2.249c1.782,0,3.438-0.319,4.968-0.958v1.662
		C120.513,108.705,118.869,109.012,116.834,109.012z"/>
	<path fill="#FFFFFF" d="M142.813,98.805c0,3.204-0.777,5.706-2.331,7.506c-1.554,1.801-3.698,2.701-6.432,2.701
		c-1.723,0-3.24-0.416-4.553-1.247c-1.313-0.831-2.319-2.023-3.017-3.577c-0.699-1.554-1.048-3.348-1.048-5.384
		c0-3.204,0.777-5.7,2.331-7.489c1.554-1.788,3.686-2.683,6.396-2.683c2.698,0,4.814,0.906,6.351,2.719
		C142.045,93.165,142.813,95.649,142.813,98.805z M127.312,98.805c0,2.698,0.593,4.803,1.78,6.314
		c1.186,1.512,2.863,2.268,5.031,2.268s3.845-0.756,5.031-2.268c1.187-1.511,1.78-3.616,1.78-6.314c0-2.71-0.599-4.812-1.797-6.305
		c-1.199-1.493-2.882-2.24-5.05-2.24s-3.839,0.744-5.014,2.231C127.9,93.978,127.312,96.083,127.312,98.805z"/>
	<path fill="#FFFFFF" d="M172.786,108.651V95.77c0-1.915-0.374-3.312-1.12-4.191c-0.747-0.879-1.891-1.319-3.433-1.319
		c-2.012,0-3.499,0.554-4.462,1.662c-0.964,1.108-1.445,2.849-1.445,5.221v11.508H160.5V95.228c0-3.312-1.518-4.968-4.553-4.968
		c-2.06,0-3.559,0.599-4.499,1.798c-0.939,1.198-1.409,3.116-1.409,5.754v10.84h-1.789V89.013h1.481l0.379,2.692h0.108
		c0.542-0.976,1.312-1.731,2.312-2.268c1-0.536,2.102-0.804,3.306-0.804c3.095,0,5.083,1.163,5.962,3.487h0.072
		c0.638-1.12,1.497-1.981,2.574-2.583c1.078-0.602,2.304-0.903,3.677-0.903c2.144,0,3.751,0.572,4.824,1.716
		c1.072,1.145,1.608,2.963,1.608,5.456v12.845H172.786z"/>
	<path fill="#FFFFFF" d="M189.316,109.012c-3.023,0-5.228-1.132-6.612-3.396h-0.126l0.054,1.518
		c0.048,0.892,0.072,1.867,0.072,2.927v7.479h-1.789V89.013h1.518l0.343,2.8h0.108c1.349-2.12,3.505-3.18,6.468-3.18
		c2.649,0,4.67,0.87,6.061,2.61c1.392,1.741,2.087,4.273,2.087,7.597c0,3.228-0.731,5.73-2.195,7.506
		C193.842,108.124,191.846,109.012,189.316,109.012z M189.28,107.422c2.011,0,3.568-0.747,4.67-2.24
		c1.102-1.493,1.653-3.583,1.653-6.269c0-5.769-2.084-8.654-6.251-8.654c-2.289,0-3.969,0.629-5.041,1.888
		c-1.072,1.259-1.608,3.31-1.608,6.152v0.578c0,3.071,0.515,5.264,1.544,6.576C185.279,106.766,186.956,107.422,189.28,107.422z"/>
	<path fill="#FFFFFF" d="M204.727,108.651h-1.789V80.54h1.789V108.651z"/>
	<path fill="#FFFFFF" d="M219.234,109.012c-2.854,0-5.08-0.879-6.675-2.638c-1.596-1.758-2.394-4.221-2.394-7.389
		c0-3.131,0.771-5.64,2.312-7.525c1.542-1.885,3.619-2.827,6.233-2.827c2.312,0,4.137,0.807,5.474,2.421
		c1.337,1.614,2.005,3.806,2.005,6.576v1.445h-14.146c0.024,2.698,0.653,4.758,1.888,6.179c1.234,1.421,3.001,2.132,5.302,2.132
		c1.12,0,2.105-0.078,2.954-0.235c0.85-0.156,1.924-0.494,3.225-1.012v1.626c-1.108,0.482-2.132,0.81-3.071,0.985
		C221.402,108.925,220.366,109.012,219.234,109.012z M218.71,90.223c-1.891,0-3.409,0.623-4.553,1.87
		c-1.145,1.246-1.813,3.044-2.005,5.393h12.141c0-2.276-0.494-4.056-1.481-5.339C221.824,90.865,220.457,90.223,218.71,90.223z"/>
	<path fill="#FFFFFF" d="M236.795,107.422c1.132,0,2.12-0.096,2.963-0.289v1.445c-0.867,0.289-1.867,0.434-2.999,0.434
		c-1.734,0-3.014-0.463-3.839-1.391c-0.825-0.927-1.237-2.385-1.237-4.372V90.566h-2.909v-1.048l2.909-0.813l0.903-4.444h0.921
		v4.751h5.763v1.554h-5.763v12.43c0,1.506,0.265,2.62,0.795,3.342C234.832,107.061,235.663,107.422,236.795,107.422z"/>
	<path fill="#FFFFFF" d="M251.935,109.012c-2.854,0-5.08-0.879-6.675-2.638c-1.596-1.758-2.394-4.221-2.394-7.389
		c0-3.131,0.771-5.64,2.312-7.525c1.542-1.885,3.619-2.827,6.233-2.827c2.312,0,4.137,0.807,5.474,2.421
		c1.337,1.614,2.005,3.806,2.005,6.576v1.445h-14.146c0.024,2.698,0.653,4.758,1.888,6.179c1.234,1.421,3.001,2.132,5.302,2.132
		c1.12,0,2.105-0.078,2.954-0.235c0.85-0.156,1.924-0.494,3.225-1.012v1.626c-1.108,0.482-2.132,0.81-3.071,0.985
		C254.103,108.925,253.066,109.012,251.935,109.012z M251.411,90.223c-1.891,0-3.409,0.623-4.553,1.87
		c-1.145,1.246-1.813,3.044-2.005,5.393h12.141c0-2.276-0.494-4.056-1.481-5.339C254.524,90.865,253.157,90.223,251.411,90.223z"/>
	<path fill="#FFFFFF" d="M271.5,88.633c1.421,0,2.649,0.259,3.686,0.777c1.036,0.518,1.963,1.403,2.782,2.656h0.108
		c-0.072-1.518-0.108-3.005-0.108-4.462V80.54h1.771v28.111h-1.174l-0.452-2.999h-0.145c-1.494,2.24-3.638,3.36-6.432,3.36
		c-2.71,0-4.782-0.843-6.215-2.529c-1.434-1.686-2.15-4.143-2.15-7.371c0-3.396,0.71-5.992,2.132-7.787
		C266.725,89.531,268.791,88.633,271.5,88.633z M271.5,90.259c-2.144,0-3.755,0.753-4.833,2.258
		c-1.078,1.506-1.617,3.692-1.617,6.558c0,5.564,2.162,8.347,6.486,8.347c2.216,0,3.842-0.644,4.878-1.933
		c1.036-1.289,1.554-3.415,1.554-6.377v-0.307c0-3.035-0.509-5.218-1.526-6.549C275.424,90.925,273.777,90.259,271.5,90.259z"/>
	<path fill="#FFFFFF" d="M307.868,108.651l-0.452-3.107h-0.145c-0.987,1.265-2.002,2.159-3.044,2.683
		c-1.042,0.524-2.273,0.786-3.694,0.786c-1.927,0-3.427-0.494-4.498-1.481c-1.072-0.987-1.608-2.354-1.608-4.101
		c0-1.915,0.798-3.402,2.394-4.462c1.596-1.06,3.905-1.62,6.929-1.68l3.739-0.108v-1.301c0-1.867-0.379-3.276-1.138-4.228
		c-0.759-0.951-1.981-1.427-3.667-1.427c-1.819,0-3.704,0.506-5.655,1.518l-0.669-1.554c2.156-1.012,4.288-1.518,6.396-1.518
		c2.155,0,3.767,0.56,4.832,1.68c1.066,1.12,1.6,2.867,1.6,5.239v13.062H307.868z M300.642,107.386c2.096,0,3.749-0.599,4.959-1.798
		c1.211-1.198,1.815-2.863,1.815-4.995V98.66l-3.432,0.145c-2.759,0.133-4.725,0.563-5.899,1.292
		c-1.174,0.729-1.761,1.864-1.761,3.406c0,1.229,0.376,2.183,1.129,2.864C298.205,107.046,299.269,107.386,300.642,107.386z"/>
	<path fill="#FFFFFF" d="M320.73,107.422c1.133,0,2.12-0.096,2.963-0.289v1.445c-0.867,0.289-1.866,0.434-2.998,0.434
		c-1.734,0-3.015-0.463-3.84-1.391c-0.825-0.927-1.237-2.385-1.237-4.372V90.566h-2.909v-1.048l2.909-0.813l0.903-4.444h0.922v4.751
		h5.763v1.554h-5.763v12.43c0,1.506,0.265,2.62,0.795,3.342C318.768,107.061,319.599,107.422,320.73,107.422z"/>
	<path fill="#FFFFFF" d="M349.475,108.651l-0.452-3.107h-0.145c-0.987,1.265-2.002,2.159-3.044,2.683
		c-1.042,0.524-2.273,0.786-3.694,0.786c-1.927,0-3.427-0.494-4.498-1.481c-1.072-0.987-1.608-2.354-1.608-4.101
		c0-1.915,0.798-3.402,2.394-4.462c1.596-1.06,3.905-1.62,6.929-1.68l3.739-0.108v-1.301c0-1.867-0.379-3.276-1.138-4.228
		c-0.759-0.951-1.981-1.427-3.667-1.427c-1.819,0-3.704,0.506-5.655,1.518l-0.669-1.554c2.156-1.012,4.288-1.518,6.396-1.518
		c2.155,0,3.767,0.56,4.832,1.68c1.066,1.12,1.6,2.867,1.6,5.239v13.062H349.475z M342.248,107.386c2.096,0,3.749-0.599,4.959-1.798
		c1.211-1.198,1.815-2.863,1.815-4.995V98.66l-3.432,0.145c-2.759,0.133-4.725,0.563-5.899,1.292
		c-1.174,0.729-1.761,1.864-1.761,3.406c0,1.229,0.376,2.183,1.129,2.864C339.812,107.046,340.875,107.386,342.248,107.386z"/>
	<path fill="#FFFFFF" d="M43.593,149.012c-6.287,0-9.431-3.451-9.431-10.352c0-3.433,0.855-6.055,2.565-7.868
		c1.71-1.813,4.161-2.719,7.353-2.719c2.336,0,4.432,0.458,6.287,1.373l-1.626,4.264c-0.867-0.349-1.674-0.635-2.421-0.858
		c-0.747-0.223-1.494-0.334-2.24-0.334c-2.867,0-4.3,2.036-4.3,6.106c0,3.951,1.433,5.926,4.3,5.926c1.06,0,2.042-0.142,2.945-0.424
		c0.903-0.283,1.807-0.726,2.71-1.328v4.715c-0.892,0.566-1.792,0.958-2.701,1.174C46.125,148.904,44.978,149.012,43.593,149.012z"
		/>
	<path fill="#FFFFFF" d="M72.77,138.516c0,3.288-0.867,5.86-2.602,7.714c-1.734,1.855-4.149,2.782-7.245,2.782
		c-1.939,0-3.649-0.425-5.131-1.273c-1.481-0.85-2.62-2.069-3.415-3.659s-1.192-3.444-1.192-5.564c0-3.3,0.861-5.865,2.583-7.696
		c1.722-1.831,4.143-2.746,7.263-2.746c1.939,0,3.649,0.422,5.131,1.265c1.481,0.843,2.62,2.054,3.415,3.631
		C72.373,134.547,72.77,136.396,72.77,138.516z M58.805,138.516c0,2,0.328,3.511,0.985,4.535c0.656,1.024,1.725,1.536,3.207,1.536
		c1.469,0,2.526-0.509,3.17-1.527c0.645-1.018,0.967-2.532,0.967-4.543c0-1.999-0.325-3.499-0.976-4.499
		c-0.65-1-1.716-1.5-3.198-1.5c-1.47,0-2.529,0.497-3.18,1.491C59.13,135.001,58.805,136.504,58.805,138.516z"/>
	<path fill="#FFFFFF" d="M91.415,142.653c0,2.072-0.72,3.649-2.159,4.733c-1.439,1.084-3.592,1.626-6.458,1.626
		c-1.47,0-2.722-0.1-3.758-0.298c-1.036-0.199-2.005-0.491-2.909-0.876v-4.553c1.023,0.482,2.177,0.885,3.46,1.21
		c1.282,0.325,2.412,0.488,3.387,0.488c1.999,0,2.999-0.578,2.999-1.734c0-0.434-0.133-0.786-0.397-1.057
		c-0.265-0.271-0.723-0.578-1.373-0.921c-0.65-0.344-1.518-0.744-2.602-1.202c-1.554-0.65-2.695-1.252-3.423-1.807
		c-0.729-0.554-1.259-1.189-1.59-1.906c-0.332-0.717-0.497-1.599-0.497-2.647c0-1.794,0.695-3.183,2.087-4.165
		c1.391-0.981,3.363-1.472,5.917-1.472c2.433,0,4.799,0.53,7.1,1.59l-1.662,3.975c-1.012-0.434-1.958-0.789-2.836-1.066
		c-0.879-0.277-1.777-0.416-2.692-0.416c-1.626,0-2.439,0.44-2.439,1.319c0,0.494,0.262,0.921,0.786,1.283
		c0.524,0.361,1.671,0.897,3.442,1.608c1.578,0.639,2.734,1.235,3.469,1.789c0.734,0.554,1.276,1.192,1.626,1.915
		C91.24,140.792,91.415,141.653,91.415,142.653z"/>
	<path fill="#FFFFFF" d="M104.224,144.622c0.963,0,2.12-0.21,3.469-0.632v4.101c-1.373,0.614-3.06,0.921-5.059,0.921
		c-2.204,0-3.809-0.557-4.815-1.671c-1.005-1.114-1.508-2.785-1.508-5.014v-9.738h-2.638v-2.331l3.035-1.843l1.59-4.264h3.523v4.3
		h5.655v4.137h-5.655v9.738c0,0.783,0.22,1.361,0.659,1.734C102.92,144.436,103.501,144.622,104.224,144.622z"/>
	<path fill="#FFFFFF" d="M139.742,138.516c0,3.288-0.867,5.86-2.602,7.714c-1.734,1.855-4.149,2.782-7.245,2.782
		c-1.939,0-3.649-0.425-5.131-1.273c-1.481-0.85-2.62-2.069-3.415-3.659s-1.192-3.444-1.192-5.564c0-3.3,0.861-5.865,2.583-7.696
		c1.722-1.831,4.143-2.746,7.263-2.746c1.939,0,3.649,0.422,5.131,1.265c1.481,0.843,2.62,2.054,3.415,3.631
		C139.345,134.547,139.742,136.396,139.742,138.516z M125.777,138.516c0,2,0.328,3.511,0.985,4.535
		c0.656,1.024,1.725,1.536,3.207,1.536c1.469,0,2.526-0.509,3.17-1.527c0.645-1.018,0.967-2.532,0.967-4.543
		c0-1.999-0.325-3.499-0.976-4.499c-0.65-1-1.716-1.5-3.198-1.5c-1.47,0-2.529,0.497-3.18,1.491
		C126.102,135.001,125.777,136.504,125.777,138.516z"/>
	<path fill="#FFFFFF" d="M155.46,132.59h-4.77v16.061h-5.51V132.59h-3.035v-2.656l3.035-1.481v-1.481c0-2.3,0.566-3.98,1.698-5.041
		c1.132-1.06,2.945-1.59,5.438-1.59c1.903,0,3.595,0.283,5.077,0.849l-1.409,4.047c-1.108-0.349-2.132-0.524-3.071-0.524
		c-0.783,0-1.349,0.232-1.698,0.696c-0.35,0.463-0.524,1.057-0.524,1.779v1.265h4.77V132.59z"/>
	<path fill="#FFFFFF" d="M185.071,140.395c0,1.915-0.693,3.454-2.078,4.616c-1.385,1.163-3.324,1.858-5.817,2.087v3.704h-2.475
		v-3.631c-2.939-0.06-5.517-0.578-7.732-1.554v-4.77c1.048,0.518,2.31,0.976,3.785,1.373c1.475,0.397,2.791,0.632,3.947,0.705
		v-5.601l-1.21-0.47c-2.385-0.939-4.074-1.96-5.068-3.062c-0.993-1.103-1.49-2.466-1.49-4.092c0-1.746,0.684-3.183,2.051-4.309
		c1.367-1.126,3.272-1.809,5.718-2.05v-2.764h2.475v2.692c2.758,0.121,5.251,0.675,7.479,1.662l-1.698,4.228
		c-1.879-0.771-3.806-1.24-5.781-1.409v5.33c2.349,0.903,4.02,1.687,5.013,2.349c0.994,0.663,1.723,1.391,2.187,2.186
		C184.839,138.407,185.071,139.335,185.071,140.395z M172.37,129.699c0,0.53,0.184,0.966,0.551,1.31
		c0.367,0.343,0.96,0.695,1.779,1.057v-4.246C173.147,128.049,172.37,128.676,172.37,129.699z M179.633,140.666
		c0-0.506-0.205-0.933-0.614-1.283c-0.41-0.349-1.024-0.71-1.843-1.084v4.499C178.813,142.521,179.633,141.81,179.633,140.666z"/>
	<path fill="#FFFFFF" d="M201.746,148.651h-5.583v-15.284l0.054-2.511l0.09-2.746c-0.928,0.928-1.572,1.536-1.933,1.825
		l-3.035,2.439l-2.692-3.36l8.509-6.775h4.589V148.651z"/>
	<path fill="#FFFFFF" d="M227.527,148.651h-18.464v-3.884l6.63-6.703c1.963-2.011,3.246-3.405,3.848-4.183
		c0.602-0.776,1.036-1.496,1.301-2.159c0.265-0.662,0.397-1.349,0.397-2.06c0-1.06-0.292-1.849-0.876-2.367
		c-0.584-0.518-1.364-0.777-2.34-0.777c-1.024,0-2.018,0.235-2.981,0.705c-0.964,0.47-1.969,1.138-3.017,2.005l-3.035-3.595
		c1.301-1.108,2.378-1.891,3.234-2.349c0.855-0.458,1.789-0.81,2.8-1.057c1.012-0.247,2.144-0.371,3.396-0.371
		c1.65,0,3.107,0.301,4.372,0.903c1.265,0.603,2.246,1.445,2.945,2.529c0.698,1.084,1.048,2.325,1.048,3.722
		c0,1.217-0.214,2.358-0.641,3.423c-0.428,1.066-1.09,2.159-1.987,3.279c-0.897,1.12-2.479,2.716-4.743,4.788l-3.396,3.198v0.253
		h11.508V148.651z"/>
	<path fill="#FFFFFF" d="M239.794,131.777c2.553,0,4.586,0.717,6.098,2.15c1.511,1.434,2.267,3.396,2.267,5.89
		c0,2.951-0.91,5.221-2.728,6.811c-1.819,1.59-4.42,2.385-7.805,2.385c-2.939,0-5.312-0.476-7.118-1.427v-4.824
		c0.951,0.506,2.06,0.918,3.324,1.237c1.265,0.319,2.463,0.479,3.595,0.479c3.408,0,5.113-1.397,5.113-4.191
		c0-2.662-1.765-3.993-5.293-3.993c-0.639,0-1.343,0.063-2.114,0.189c-0.771,0.127-1.397,0.262-1.879,0.407l-2.222-1.192
		l0.994-13.459h14.327v4.733h-9.431l-0.488,5.185l0.632-0.126C237.8,131.861,238.71,131.777,239.794,131.777z"/>
	<path fill="#FFFFFF" d="M258.113,144.767c-0.626,2.433-1.687,5.317-3.18,8.653h-3.975c0.783-3.204,1.391-6.226,1.825-9.069h5.059
		L258.113,144.767z"/>
	<path fill="#FFFFFF" d="M280.353,135.444c0,4.613-0.756,8.028-2.268,10.244c-1.511,2.216-3.839,3.324-6.982,3.324
		c-3.047,0-5.345-1.144-6.893-3.433c-1.547-2.288-2.321-5.667-2.321-10.135c0-4.661,0.752-8.097,2.258-10.307
		c1.505-2.21,3.824-3.315,6.956-3.315c3.047,0,5.351,1.156,6.91,3.469C279.573,127.604,280.353,130.988,280.353,135.444z
		 M267.436,135.444c0,3.24,0.28,5.562,0.84,6.964c0.56,1.403,1.502,2.105,2.827,2.105c1.301,0,2.24-0.71,2.818-2.132
		c0.578-1.421,0.867-3.733,0.867-6.938c0-3.24-0.292-5.567-0.876-6.983c-0.584-1.415-1.521-2.123-2.81-2.123
		c-1.313,0-2.252,0.708-2.818,2.123C267.718,129.877,267.436,132.205,267.436,135.444z"/>
	<path fill="#FFFFFF" d="M301.473,135.444c0,4.613-0.756,8.028-2.268,10.244c-1.512,2.216-3.839,3.324-6.982,3.324
		c-3.047,0-5.345-1.144-6.893-3.433c-1.547-2.288-2.321-5.667-2.321-10.135c0-4.661,0.752-8.097,2.258-10.307
		c1.505-2.21,3.824-3.315,6.956-3.315c3.047,0,5.351,1.156,6.91,3.469S301.473,130.988,301.473,135.444z M288.555,135.444
		c0,3.24,0.28,5.562,0.84,6.964c0.56,1.403,1.502,2.105,2.827,2.105c1.301,0,2.24-0.71,2.818-2.132
		c0.578-1.421,0.867-3.733,0.867-6.938c0-3.24-0.292-5.567-0.876-6.983c-0.585-1.415-1.521-2.123-2.81-2.123
		c-1.313,0-2.252,0.708-2.818,2.123C288.838,129.877,288.555,132.205,288.555,135.444z"/>
	<path fill="#FFFFFF" d="M322.592,135.444c0,4.613-0.756,8.028-2.268,10.244c-1.512,2.216-3.839,3.324-6.982,3.324
		c-3.047,0-5.345-1.144-6.893-3.433c-1.548-2.288-2.321-5.667-2.321-10.135c0-4.661,0.753-8.097,2.259-10.307
		c1.505-2.21,3.823-3.315,6.955-3.315c3.047,0,5.351,1.156,6.91,3.469S322.592,130.988,322.592,135.444z M309.674,135.444
		c0,3.24,0.28,5.562,0.841,6.964c0.56,1.403,1.502,2.105,2.827,2.105c1.301,0,2.24-0.71,2.818-2.132
		c0.578-1.421,0.867-3.733,0.867-6.938c0-3.24-0.292-5.567-0.876-6.983c-0.585-1.415-1.521-2.123-2.81-2.123
		c-1.312,0-2.252,0.708-2.818,2.123C309.957,129.877,309.674,132.205,309.674,135.444z"/>
	<path fill="#FFFFFF" d="M329.24,144.351l0.217,0.379c-0.904,3.192-1.951,6.088-3.145,8.689h-1.174
		c0.928-3.312,1.59-6.334,1.987-9.069H329.24z"/>
	<path fill="#FFFFFF" d="M43.629,189.013c-2.807,0-5.004-0.885-6.594-2.656c-1.59-1.77-2.385-4.239-2.385-7.406
		c0-3.252,0.825-5.784,2.475-7.598c1.65-1.812,3.908-2.719,6.775-2.719c1.698,0,3.324,0.295,4.878,0.885l-0.488,1.59
		c-1.698-0.565-3.174-0.849-4.426-0.849c-2.409,0-4.234,0.744-5.474,2.231c-1.241,1.487-1.861,3.628-1.861,6.422
		c0,2.65,0.62,4.725,1.861,6.225c1.24,1.499,2.975,2.249,5.203,2.249c1.782,0,3.438-0.319,4.968-0.958v1.662
		C47.308,188.706,45.664,189.013,43.629,189.013z"/>
	<path fill="#FFFFFF" d="M69.608,178.806c0,3.203-0.777,5.706-2.331,7.506c-1.554,1.801-3.698,2.701-6.432,2.701
		c-1.723,0-3.24-0.416-4.553-1.246c-1.313-0.832-2.319-2.023-3.017-3.578c-0.699-1.553-1.048-3.348-1.048-5.383
		c0-3.204,0.777-5.7,2.331-7.489c1.554-1.788,3.686-2.683,6.396-2.683c2.698,0,4.814,0.906,6.351,2.719
		C68.84,173.166,69.608,175.649,69.608,178.806z M54.107,178.806c0,2.697,0.593,4.803,1.78,6.313
		c1.186,1.512,2.863,2.268,5.031,2.268s3.845-0.756,5.031-2.268c1.187-1.511,1.78-3.616,1.78-6.313c0-2.711-0.599-4.812-1.797-6.306
		c-1.199-1.493-2.882-2.24-5.05-2.24s-3.839,0.744-5.014,2.231C54.695,173.979,54.107,176.083,54.107,178.806z"/>
	<path fill="#FFFFFF" d="M99.581,188.651v-12.881c0-1.916-0.374-3.312-1.12-4.191c-0.747-0.88-1.891-1.319-3.433-1.319
		c-2.012,0-3.499,0.554-4.462,1.662c-0.964,1.108-1.445,2.849-1.445,5.222v11.508h-1.825v-13.424c0-3.312-1.518-4.968-4.553-4.968
		c-2.06,0-3.559,0.6-4.499,1.798s-1.409,3.116-1.409,5.754v10.84h-1.789v-19.639h1.481l0.379,2.692h0.108
		c0.542-0.976,1.312-1.731,2.312-2.268c1-0.535,2.102-0.804,3.306-0.804c3.095,0,5.083,1.162,5.962,3.486h0.072
		c0.638-1.119,1.497-1.98,2.574-2.583c1.078-0.603,2.304-0.903,3.677-0.903c2.144,0,3.751,0.572,4.824,1.717
		c1.072,1.144,1.608,2.963,1.608,5.455v12.846H99.581z"/>
	<path fill="#FFFFFF" d="M116.111,189.013c-3.023,0-5.228-1.132-6.612-3.396h-0.126l0.054,1.518
		c0.048,0.892,0.072,1.867,0.072,2.927v7.479h-1.789v-28.527h1.518l0.343,2.801h0.108c1.349-2.12,3.505-3.18,6.468-3.18
		c2.649,0,4.67,0.87,6.061,2.61c1.392,1.741,2.087,4.272,2.087,7.597c0,3.229-0.731,5.73-2.195,7.507
		C120.637,188.125,118.641,189.013,116.111,189.013z M116.075,187.423c2.011,0,3.568-0.747,4.67-2.24
		c1.102-1.493,1.653-3.583,1.653-6.27c0-5.769-2.084-8.653-6.251-8.653c-2.289,0-3.969,0.63-5.041,1.888
		c-1.072,1.259-1.608,3.31-1.608,6.152v0.578c0,3.07,0.515,5.263,1.544,6.576C112.074,186.767,113.75,187.423,116.075,187.423z"/>
	<path fill="#FFFFFF" d="M141.657,188.651l-0.452-3.107h-0.145c-0.988,1.265-2.002,2.159-3.044,2.683
		c-1.042,0.524-2.273,0.786-3.694,0.786c-1.927,0-3.427-0.494-4.499-1.481c-1.072-0.987-1.608-2.354-1.608-4.101
		c0-1.916,0.798-3.403,2.394-4.463c1.596-1.06,3.905-1.62,6.929-1.68l3.74-0.109v-1.301c0-1.866-0.379-3.275-1.138-4.227
		c-0.759-0.952-1.981-1.428-3.667-1.428c-1.819,0-3.704,0.506-5.655,1.518l-0.668-1.554c2.156-1.012,4.288-1.518,6.396-1.518
		c2.156,0,3.767,0.56,4.833,1.681c1.066,1.119,1.599,2.866,1.599,5.238v13.062H141.657z M134.431,187.387
		c2.096,0,3.749-0.599,4.959-1.798c1.211-1.198,1.816-2.863,1.816-4.995v-1.933l-3.433,0.145c-2.758,0.132-4.724,0.562-5.899,1.291
		c-1.174,0.729-1.761,1.864-1.761,3.406c0,1.229,0.376,2.183,1.129,2.863C131.995,187.047,133.058,187.387,134.431,187.387z"/>
	<path fill="#FFFFFF" d="M157.068,168.634c0.831,0,1.722,0.084,2.674,0.253l-0.343,1.716c-0.819-0.204-1.668-0.307-2.547-0.307
		c-1.674,0-3.047,0.711-4.119,2.132c-1.072,1.421-1.608,3.216-1.608,5.384v10.84h-1.789v-19.639h1.518l0.181,3.541h0.126
		c0.807-1.445,1.668-2.459,2.583-3.044C154.659,168.926,155.767,168.634,157.068,168.634z"/>
	<path fill="#FFFFFF" d="M171.666,189.013c-2.854,0-5.08-0.879-6.675-2.638c-1.596-1.759-2.394-4.222-2.394-7.39
		c0-3.131,0.771-5.639,2.312-7.524c1.542-1.885,3.619-2.827,6.233-2.827c2.312,0,4.137,0.807,5.474,2.421s2.005,3.806,2.005,6.576
		v1.445h-14.146c0.024,2.698,0.653,4.758,1.888,6.179c1.234,1.421,3.001,2.132,5.302,2.132c1.12,0,2.105-0.078,2.954-0.235
		c0.85-0.156,1.924-0.493,3.225-1.012v1.627c-1.108,0.481-2.132,0.81-3.071,0.984C173.833,188.925,172.797,189.013,171.666,189.013z
		 M171.142,170.224c-1.891,0-3.409,0.623-4.553,1.87c-1.145,1.246-1.813,3.044-2.005,5.393h12.141c0-2.276-0.494-4.056-1.481-5.339
		C174.255,170.865,172.888,170.224,171.142,170.224z"/>
	<path fill="#FFFFFF" d="M191.231,168.634c1.421,0,2.649,0.259,3.686,0.777c1.036,0.518,1.963,1.402,2.782,2.655h0.108
		c-0.072-1.518-0.108-3.005-0.108-4.462v-7.064h1.771v28.111h-1.174l-0.452-2.999h-0.145c-1.494,2.24-3.638,3.36-6.432,3.36
		c-2.71,0-4.782-0.843-6.215-2.529c-1.434-1.687-2.15-4.144-2.15-7.371c0-3.396,0.71-5.992,2.132-7.787
		C186.456,169.531,188.521,168.634,191.231,168.634z M191.231,170.26c-2.144,0-3.755,0.753-4.833,2.259
		c-1.078,1.505-1.617,3.691-1.617,6.558c0,5.564,2.162,8.347,6.486,8.347c2.216,0,3.842-0.645,4.878-1.934
		c1.036-1.288,1.554-3.414,1.554-6.377v-0.307c0-3.035-0.509-5.219-1.526-6.55C195.155,170.926,193.508,170.26,191.231,170.26z"/>
	<path fill="#FFFFFF" d="M220.86,187.423c1.132,0,2.12-0.097,2.963-0.289v1.445c-0.867,0.289-1.867,0.434-2.999,0.434
		c-1.734,0-3.014-0.464-3.839-1.391c-0.825-0.928-1.237-2.385-1.237-4.373v-12.682h-2.909v-1.049l2.909-0.812l0.903-4.444h0.921
		v4.751h5.763v1.555h-5.763v12.43c0,1.505,0.265,2.619,0.795,3.342C218.897,187.062,219.728,187.423,220.86,187.423z"/>
	<path fill="#FFFFFF" d="M244.311,178.806c0,3.203-0.777,5.706-2.331,7.506c-1.554,1.801-3.698,2.701-6.432,2.701
		c-1.723,0-3.24-0.416-4.553-1.246c-1.313-0.832-2.319-2.023-3.017-3.578c-0.699-1.553-1.048-3.348-1.048-5.383
		c0-3.204,0.777-5.7,2.331-7.489c1.554-1.788,3.686-2.683,6.396-2.683c2.698,0,4.814,0.906,6.351,2.719
		C243.542,173.166,244.311,175.649,244.311,178.806z M228.81,178.806c0,2.697,0.593,4.803,1.78,6.313
		c1.186,1.512,2.863,2.268,5.031,2.268s3.845-0.756,5.031-2.268c1.187-1.511,1.78-3.616,1.78-6.313c0-2.711-0.599-4.812-1.797-6.306
		c-1.199-1.493-2.882-2.24-5.05-2.24s-3.839,0.744-5.014,2.231C229.397,173.979,228.81,176.083,228.81,178.806z"/>
	<path fill="#FFFFFF" d="M264.545,187.423c1.132,0,2.12-0.097,2.963-0.289v1.445c-0.867,0.289-1.867,0.434-2.999,0.434
		c-1.734,0-3.014-0.464-3.839-1.391c-0.825-0.928-1.237-2.385-1.237-4.373v-12.682h-2.909v-1.049l2.909-0.812l0.903-4.444h0.921
		v4.751h5.763v1.555h-5.763v12.43c0,1.505,0.265,2.619,0.795,3.342C262.582,187.062,263.413,187.423,264.545,187.423z"/>
	<path fill="#FFFFFF" d="M285.448,188.651v-12.736c0-1.976-0.416-3.412-1.247-4.31c-0.831-0.896-2.12-1.346-3.866-1.346
		c-2.349,0-4.068,0.594-5.158,1.779c-1.09,1.187-1.635,3.11-1.635,5.772v10.84h-1.789V160.54h1.789v8.943l-0.09,2.511h0.126
		c0.734-1.181,1.662-2.035,2.782-2.565s2.511-0.795,4.173-0.795c4.456,0,6.685,2.391,6.685,7.172v12.846H285.448z"/>
	<path fill="#FFFFFF" d="M301.508,189.013c-2.854,0-5.078-0.879-6.674-2.638c-1.598-1.759-2.395-4.222-2.395-7.39
		c0-3.131,0.771-5.639,2.312-7.524c1.541-1.885,3.619-2.827,6.232-2.827c2.312,0,4.137,0.807,5.475,2.421
		c1.336,1.614,2.006,3.806,2.006,6.576v1.445h-14.146c0.023,2.698,0.652,4.758,1.889,6.179c1.234,1.421,3.002,2.132,5.301,2.132
		c1.121,0,2.105-0.078,2.955-0.235c0.85-0.156,1.924-0.493,3.225-1.012v1.627c-1.107,0.481-2.133,0.81-3.072,0.984
		C303.676,188.925,302.641,189.013,301.508,189.013z M300.984,170.224c-1.891,0-3.408,0.623-4.553,1.87
		c-1.145,1.246-1.812,3.044-2.006,5.393h12.141c0-2.276-0.492-4.056-1.48-5.339C304.098,170.865,302.73,170.224,300.984,170.224z"/>
	<path fill="#FFFFFF" d="M52.229,220.396c0,1.914-0.693,3.453-2.078,4.615c-1.385,1.163-3.324,1.858-5.817,2.087v3.704h-2.475
		v-3.632c-2.939-0.061-5.517-0.578-7.732-1.554v-4.77c1.048,0.518,2.31,0.976,3.785,1.373c1.475,0.397,2.791,0.633,3.947,0.705
		v-5.602l-1.21-0.469c-2.385-0.939-4.074-1.961-5.068-3.062c-0.993-1.103-1.49-2.467-1.49-4.092c0-1.747,0.684-3.183,2.051-4.31
		c1.367-1.126,3.272-1.81,5.718-2.05v-2.765h2.475v2.692c2.758,0.12,5.251,0.674,7.479,1.662l-1.698,4.227
		c-1.879-0.771-3.806-1.24-5.781-1.408v5.329c2.349,0.903,4.02,1.687,5.013,2.349c0.994,0.662,1.723,1.391,2.187,2.186
		C51.997,218.407,52.229,219.335,52.229,220.396z M39.528,209.7c0,0.529,0.184,0.966,0.551,1.31c0.367,0.343,0.96,0.695,1.779,1.057
		v-4.245C40.305,208.05,39.528,208.676,39.528,209.7z M46.791,220.666c0-0.506-0.205-0.934-0.614-1.282
		c-0.41-0.35-1.024-0.711-1.843-1.084v4.498C45.971,222.521,46.791,221.811,46.791,220.666z"/>
	<path fill="#FFFFFF" d="M68.904,228.651h-5.583v-15.284l0.054-2.511l0.09-2.746c-0.928,0.927-1.572,1.535-1.933,1.824l-3.035,2.439
		l-2.692-3.361l8.509-6.774h4.589V228.651z"/>
	<path fill="#FFFFFF" d="M76.853,226.067c0-1.012,0.271-1.776,0.813-2.294s1.331-0.776,2.367-0.776c1,0,1.773,0.265,2.322,0.795
		c0.548,0.529,0.822,1.288,0.822,2.275c0,0.952-0.277,1.702-0.831,2.25c-0.554,0.548-1.325,0.822-2.312,0.822
		c-1.012,0-1.795-0.269-2.349-0.805C77.13,227.8,76.853,227.044,76.853,226.067z"/>
	<path fill="#FFFFFF" d="M105.235,228.651H86.771v-3.885l6.63-6.702c1.963-2.012,3.246-3.405,3.848-4.183
		c0.602-0.776,1.036-1.496,1.301-2.158c0.265-0.663,0.397-1.35,0.397-2.061c0-1.06-0.292-1.849-0.876-2.366
		c-0.584-0.518-1.364-0.776-2.34-0.776c-1.024,0-2.018,0.234-2.981,0.704c-0.964,0.47-1.969,1.138-3.017,2.005l-3.035-3.595
		c1.301-1.108,2.378-1.891,3.234-2.349c0.855-0.458,1.789-0.81,2.8-1.057s2.144-0.371,3.396-0.371c1.65,0,3.107,0.302,4.372,0.904
		c1.265,0.602,2.246,1.445,2.945,2.529c0.698,1.084,1.048,2.324,1.048,3.721c0,1.217-0.214,2.358-0.641,3.424
		c-0.428,1.066-1.09,2.159-1.987,3.279c-0.897,1.12-2.479,2.716-4.743,4.787l-3.396,3.198v0.253h11.508V228.651z"/>
	<path fill="#FFFFFF" d="M136.996,228.651h-5.51v-11.797c0-1.458-0.244-2.551-0.731-3.279c-0.488-0.729-1.256-1.094-2.304-1.094
		c-1.409,0-2.433,0.519-3.071,1.555c-0.639,1.035-0.958,2.739-0.958,5.112v9.503h-5.51v-20.198h4.209l0.741,2.583h0.307
		c0.542-0.927,1.325-1.652,2.349-2.177c1.023-0.523,2.198-0.786,3.523-0.786c3.023,0,5.07,0.988,6.143,2.963h0.488
		c0.542-0.939,1.34-1.668,2.394-2.186c1.054-0.518,2.243-0.777,3.568-0.777c2.288,0,4.02,0.588,5.194,1.762
		c1.175,1.175,1.762,3.057,1.762,5.646v13.17h-5.528v-11.797c0-1.458-0.244-2.551-0.731-3.279c-0.488-0.729-1.256-1.094-2.304-1.094
		c-1.349,0-2.357,0.482-3.026,1.445c-0.668,0.964-1.002,2.494-1.002,4.59V228.651z"/>
	<path fill="#FFFFFF" d="M155.008,203.231c0-1.794,1-2.691,2.999-2.691c1.999,0,2.999,0.897,2.999,2.691
		c0,0.855-0.25,1.521-0.75,1.997c-0.5,0.476-1.25,0.714-2.25,0.714C156.008,205.942,155.008,205.038,155.008,203.231z
		 M160.753,228.651h-5.51v-20.198h5.51V228.651z"/>
	<path fill="#FFFFFF" d="M172.045,228.651h-5.51V200.54h5.51V228.651z"/>
	<path fill="#FFFFFF" d="M183.336,228.651h-5.51V200.54h5.51V228.651z"/>
	<path fill="#FFFFFF" d="M188.883,203.231c0-1.794,1-2.691,2.999-2.691c1.999,0,2.999,0.897,2.999,2.691
		c0,0.855-0.25,1.521-0.75,1.997c-0.5,0.476-1.25,0.714-2.25,0.714C189.882,205.942,188.883,205.038,188.883,203.231z
		 M194.628,228.651h-5.51v-20.198h5.51V228.651z"/>
	<path fill="#FFFFFF" d="M218.765,218.517c0,3.287-0.867,5.859-2.602,7.714s-4.149,2.782-7.245,2.782
		c-1.939,0-3.649-0.425-5.131-1.273c-1.481-0.85-2.62-2.068-3.415-3.658s-1.192-3.445-1.192-5.564c0-3.301,0.861-5.866,2.583-7.697
		c1.722-1.83,4.143-2.746,7.263-2.746c1.939,0,3.649,0.422,5.131,1.266c1.481,0.843,2.62,2.053,3.415,3.631
		S218.765,216.396,218.765,218.517z M204.799,218.517c0,1.999,0.328,3.511,0.985,4.534c0.656,1.023,1.725,1.536,3.207,1.536
		c1.469,0,2.526-0.509,3.17-1.527c0.645-1.018,0.967-2.532,0.967-4.543c0-2-0.325-3.499-0.976-4.499s-1.716-1.499-3.198-1.499
		c-1.47,0-2.529,0.496-3.18,1.49C205.125,215.002,204.799,216.505,204.799,218.517z"/>
	<path fill="#FFFFFF" d="M241.962,228.651h-5.51v-11.797c0-1.458-0.259-2.551-0.777-3.279c-0.518-0.729-1.343-1.094-2.475-1.094
		c-1.542,0-2.656,0.516-3.342,1.545c-0.687,1.03-1.03,2.737-1.03,5.122v9.503h-5.51v-20.198h4.209l0.741,2.583h0.307
		c0.614-0.975,1.46-1.713,2.539-2.213c1.078-0.499,2.303-0.75,3.676-0.75c2.349,0,4.131,0.636,5.348,1.906
		c1.216,1.271,1.825,3.104,1.825,5.502V228.651z"/>
	<path fill="#FFFFFF" d="M37.577,268.651h-1.789V240.54h1.789V268.651z"/>
	<path fill="#FFFFFF" d="M52.084,269.013c-2.854,0-5.08-0.879-6.675-2.638c-1.596-1.759-2.394-4.222-2.394-7.39
		c0-3.131,0.771-5.639,2.312-7.524c1.542-1.885,3.619-2.827,6.233-2.827c2.312,0,4.137,0.807,5.474,2.421s2.005,3.806,2.005,6.576
		v1.445H44.894c0.024,2.698,0.653,4.758,1.888,6.179c1.234,1.421,3.001,2.132,5.302,2.132c1.12,0,2.105-0.078,2.954-0.235
		c0.85-0.156,1.924-0.493,3.225-1.012v1.627c-1.108,0.481-2.132,0.81-3.071,0.984C54.252,268.925,53.216,269.013,52.084,269.013z
		 M51.56,250.224c-1.891,0-3.409,0.623-4.553,1.87c-1.145,1.246-1.813,3.044-2.005,5.393h12.141c0-2.276-0.494-4.056-1.481-5.339
		C54.673,250.865,53.306,250.224,51.56,250.224z"/>
	<path fill="#FFFFFF" d="M79.78,249.013v1.247l-4.065,0.253c1.084,1.349,1.626,2.83,1.626,4.444c0,1.891-0.629,3.424-1.888,4.598
		c-1.258,1.175-2.948,1.762-5.067,1.762c-0.892,0-1.518-0.036-1.879-0.108c-0.711,0.373-1.253,0.812-1.626,1.318
		c-0.374,0.506-0.56,1.042-0.56,1.608c0,0.626,0.238,1.084,0.713,1.373c0.476,0.289,1.274,0.434,2.394,0.434h3.433
		c2.132,0,3.764,0.431,4.896,1.292c1.132,0.861,1.698,2.135,1.698,3.82c0,2.072-0.84,3.671-2.521,4.797
		c-1.68,1.126-4.074,1.689-7.181,1.689c-2.469,0-4.381-0.476-5.736-1.428c-1.355-0.951-2.033-2.275-2.033-3.975
		c0-1.349,0.418-2.469,1.255-3.359c0.837-0.892,1.972-1.5,3.406-1.825c-0.59-0.253-1.063-0.611-1.418-1.075
		c-0.355-0.463-0.533-0.996-0.533-1.599c0-1.312,0.837-2.469,2.511-3.469c-1.145-0.47-2.036-1.207-2.674-2.213
		c-0.639-1.006-0.958-2.159-0.958-3.46c0-1.963,0.624-3.538,1.87-4.725c1.247-1.186,2.93-1.779,5.05-1.779
		c1.289,0,2.288,0.127,2.999,0.379H79.78z M63.881,271.976c0,2.698,2.005,4.047,6.016,4.047c5.155,0,7.732-1.645,7.732-4.932
		c0-1.181-0.404-2.036-1.21-2.566c-0.807-0.529-2.114-0.795-3.92-0.795h-3.216C65.682,267.729,63.881,269.146,63.881,271.976z
		 M65.381,255.138c0,1.518,0.46,2.695,1.382,3.532c0.921,0.837,2.152,1.255,3.694,1.255c1.638,0,2.894-0.415,3.767-1.246
		c0.874-0.831,1.31-2.035,1.31-3.613c0-1.674-0.449-2.93-1.346-3.767c-0.897-0.837-2.153-1.256-3.767-1.256
		c-1.566,0-2.797,0.449-3.694,1.346C65.83,252.286,65.381,253.536,65.381,255.138z"/>
	<path fill="#FFFFFF" d="M95.732,268.651l-0.452-3.107h-0.145c-0.988,1.265-2.002,2.159-3.044,2.683
		c-1.042,0.524-2.273,0.786-3.694,0.786c-1.927,0-3.427-0.494-4.499-1.481c-1.072-0.987-1.608-2.354-1.608-4.101
		c0-1.916,0.798-3.403,2.394-4.463c1.596-1.06,3.905-1.62,6.929-1.68l3.74-0.109v-1.301c0-1.866-0.379-3.275-1.138-4.227
		c-0.759-0.952-1.981-1.428-3.667-1.428c-1.819,0-3.704,0.506-5.655,1.518l-0.668-1.554c2.156-1.012,4.288-1.518,6.396-1.518
		c2.156,0,3.767,0.56,4.833,1.681c1.066,1.119,1.599,2.866,1.599,5.238v13.062H95.732z M88.506,267.387
		c2.096,0,3.749-0.599,4.959-1.798c1.211-1.198,1.816-2.863,1.816-4.995v-1.933l-3.433,0.145c-2.758,0.132-4.724,0.562-5.899,1.291
		c-1.174,0.729-1.761,1.864-1.761,3.406c0,1.229,0.376,2.183,1.129,2.863C86.07,267.047,87.133,267.387,88.506,267.387z"/>
	<path fill="#FFFFFF" d="M111.251,269.013c-2.807,0-5.004-0.885-6.594-2.656c-1.59-1.77-2.385-4.239-2.385-7.406
		c0-3.252,0.825-5.784,2.475-7.598c1.65-1.812,3.908-2.719,6.775-2.719c1.698,0,3.324,0.295,4.878,0.885l-0.488,1.59
		c-1.698-0.565-3.174-0.849-4.426-0.849c-2.409,0-4.234,0.744-5.474,2.231c-1.241,1.487-1.861,3.628-1.861,6.422
		c0,2.65,0.62,4.725,1.861,6.225c1.24,1.499,2.975,2.249,5.203,2.249c1.782,0,3.438-0.319,4.968-0.958v1.662
		C114.931,268.706,113.287,269.013,111.251,269.013z"/>
	<path fill="#FFFFFF" d="M117.701,249.013h1.843l4.155,11.021c1.265,3.384,2.065,5.666,2.403,6.847h0.108
		c0.506-1.554,1.331-3.872,2.475-6.956l4.155-10.912h1.843l-8.798,22.818c-0.711,1.854-1.307,3.107-1.789,3.758
		c-0.482,0.65-1.045,1.139-1.689,1.463c-0.644,0.326-1.424,0.488-2.339,0.488c-0.687,0-1.452-0.127-2.294-0.379v-1.555
		c0.698,0.193,1.451,0.289,2.258,0.289c0.614,0,1.156-0.145,1.626-0.434s0.894-0.737,1.274-1.346
		c0.379-0.608,0.819-1.571,1.318-2.891c0.5-1.318,0.822-2.177,0.967-2.574L117.701,249.013z"/>
	<path fill="#FFFFFF" d="M159.507,268.651l-0.452-3.107h-0.145c-0.988,1.265-2.002,2.159-3.044,2.683
		c-1.042,0.524-2.273,0.786-3.694,0.786c-1.927,0-3.427-0.494-4.499-1.481c-1.072-0.987-1.608-2.354-1.608-4.101
		c0-1.916,0.798-3.403,2.394-4.463c1.596-1.06,3.905-1.62,6.929-1.68l3.74-0.109v-1.301c0-1.866-0.379-3.275-1.138-4.227
		c-0.759-0.952-1.981-1.428-3.667-1.428c-1.819,0-3.704,0.506-5.655,1.518l-0.668-1.554c2.156-1.012,4.288-1.518,6.396-1.518
		c2.156,0,3.767,0.56,4.833,1.681c1.066,1.119,1.599,2.866,1.599,5.238v13.062H159.507z M152.28,267.387
		c2.096,0,3.749-0.599,4.959-1.798c1.211-1.198,1.816-2.863,1.816-4.995v-1.933l-3.433,0.145c-2.758,0.132-4.724,0.562-5.899,1.291
		c-1.174,0.729-1.761,1.864-1.761,3.406c0,1.229,0.376,2.183,1.129,2.863C149.844,267.047,150.907,267.387,152.28,267.387z"/>
	<path fill="#FFFFFF" d="M175.586,269.013c-3.023,0-5.228-1.132-6.612-3.396h-0.126l0.054,1.518
		c0.048,0.892,0.072,1.867,0.072,2.927v7.479h-1.789v-28.527h1.518l0.343,2.801h0.108c1.349-2.12,3.505-3.18,6.468-3.18
		c2.649,0,4.67,0.87,6.061,2.61c1.392,1.741,2.087,4.272,2.087,7.597c0,3.229-0.731,5.73-2.195,7.507
		C180.112,268.125,178.115,269.013,175.586,269.013z M175.55,267.423c2.011,0,3.568-0.747,4.67-2.24
		c1.102-1.493,1.653-3.583,1.653-6.27c0-5.769-2.084-8.653-6.251-8.653c-2.289,0-3.969,0.63-5.041,1.888
		c-1.072,1.259-1.608,3.31-1.608,6.152v0.578c0,3.07,0.515,5.263,1.544,6.576C171.548,266.767,173.225,267.423,175.55,267.423z"/>
	<path fill="#FFFFFF" d="M197.609,269.013c-3.023,0-5.228-1.132-6.612-3.396h-0.126l0.054,1.518
		c0.048,0.892,0.072,1.867,0.072,2.927v7.479h-1.789v-28.527h1.518l0.343,2.801h0.108c1.349-2.12,3.505-3.18,6.468-3.18
		c2.649,0,4.67,0.87,6.061,2.61c1.392,1.741,2.087,4.272,2.087,7.597c0,3.229-0.731,5.73-2.195,7.507
		C202.135,268.125,200.138,269.013,197.609,269.013z M197.573,267.423c2.011,0,3.568-0.747,4.67-2.24
		c1.102-1.493,1.653-3.583,1.653-6.27c0-5.769-2.084-8.653-6.251-8.653c-2.289,0-3.969,0.63-5.041,1.888
		c-1.072,1.259-1.608,3.31-1.608,6.152v0.578c0,3.07,0.515,5.263,1.544,6.576C193.571,266.767,195.248,267.423,197.573,267.423z"/>
	<path fill="#FFFFFF" d="M213.02,268.651h-1.789V240.54h1.789V268.651z"/>
	<path fill="#FFFFFF" d="M219.343,243.558c0-1.156,0.379-1.734,1.138-1.734c0.373,0,0.666,0.15,0.876,0.451
		c0.21,0.301,0.316,0.729,0.316,1.283c0,0.541-0.105,0.969-0.316,1.282c-0.211,0.313-0.503,0.47-0.876,0.47
		C219.722,245.31,219.343,244.726,219.343,243.558z M221.384,268.651h-1.789v-19.639h1.789V268.651z"/>
	<path fill="#FFFFFF" d="M239.884,268.651l-0.452-3.107h-0.145c-0.988,1.265-2.002,2.159-3.044,2.683
		c-1.042,0.524-2.273,0.786-3.694,0.786c-1.927,0-3.427-0.494-4.499-1.481c-1.072-0.987-1.608-2.354-1.608-4.101
		c0-1.916,0.798-3.403,2.394-4.463c1.596-1.06,3.905-1.62,6.929-1.68l3.74-0.109v-1.301c0-1.866-0.379-3.275-1.138-4.227
		c-0.759-0.952-1.981-1.428-3.667-1.428c-1.819,0-3.704,0.506-5.655,1.518l-0.668-1.554c2.156-1.012,4.288-1.518,6.396-1.518
		c2.156,0,3.767,0.56,4.833,1.681c1.066,1.119,1.599,2.866,1.599,5.238v13.062H239.884z M232.658,267.387
		c2.096,0,3.749-0.599,4.959-1.798c1.211-1.198,1.816-2.863,1.816-4.995v-1.933L236,258.806c-2.758,0.132-4.724,0.562-5.899,1.291
		c-1.174,0.729-1.761,1.864-1.761,3.406c0,1.229,0.376,2.183,1.129,2.863C230.222,267.047,231.285,267.387,232.658,267.387z"/>
	<path fill="#FFFFFF" d="M261.257,268.651v-12.736c0-1.976-0.416-3.412-1.247-4.31c-0.831-0.896-2.12-1.346-3.866-1.346
		c-2.349,0-4.068,0.594-5.158,1.779c-1.09,1.187-1.635,3.11-1.635,5.772v10.84h-1.789v-19.639h1.518l0.343,2.692h0.108
		c1.276-2.048,3.547-3.071,6.811-3.071c4.456,0,6.685,2.391,6.685,7.172v12.846H261.257z"/>
	<path fill="#FFFFFF" d="M277.228,269.013c-2.807,0-5.004-0.885-6.594-2.656c-1.59-1.77-2.385-4.239-2.385-7.406
		c0-3.252,0.825-5.784,2.475-7.598c1.65-1.812,3.908-2.719,6.775-2.719c1.698,0,3.324,0.295,4.878,0.885l-0.488,1.59
		c-1.698-0.565-3.174-0.849-4.426-0.849c-2.409,0-4.234,0.744-5.474,2.231c-1.241,1.487-1.861,3.628-1.861,6.422
		c0,2.65,0.62,4.725,1.861,6.225c1.24,1.499,2.975,2.249,5.203,2.249c1.782,0,3.438-0.319,4.968-0.958v1.662
		C280.907,268.706,279.263,269.013,277.228,269.013z"/>
	<path fill="#FFFFFF" d="M294.896,269.013c-2.854,0-5.08-0.879-6.675-2.638c-1.596-1.759-2.394-4.222-2.394-7.39
		c0-3.131,0.771-5.639,2.312-7.524c1.542-1.885,3.62-2.827,6.233-2.827c2.312,0,4.137,0.807,5.475,2.421
		c1.336,1.614,2.004,3.806,2.004,6.576v1.445h-14.146c0.024,2.698,0.653,4.758,1.888,6.179c1.234,1.421,3.001,2.132,5.302,2.132
		c1.121,0,2.105-0.078,2.953-0.235c0.85-0.156,1.926-0.493,3.227-1.012v1.627c-1.109,0.481-2.133,0.81-3.072,0.984
		C297.064,268.925,296.029,269.013,294.896,269.013z M294.373,250.224c-1.891,0-3.409,0.623-4.553,1.87
		c-1.145,1.246-1.813,3.044-2.005,5.393h12.141c0-2.276-0.494-4.056-1.48-5.339C297.486,250.865,296.119,250.224,294.373,250.224z"
		/>
	<path fill="#FFFFFF" d="M306.911,267.242c0-1.181,0.481-1.771,1.445-1.771c0.987,0,1.481,0.59,1.481,1.771
		s-0.494,1.771-1.481,1.771C307.393,269.013,306.911,268.423,306.911,267.242z"/>
</g>
<g>
	<path fill="#E0533F" d="M477.057,296V54.5c0-6.627,0.373-7,7-7h50c6.627,0,7,0.373,7,7V296"/>
	<g>
		<path fill="#FFFFFF" d="M496.875,276.1c0,0.672-0.243,1.213-0.73,1.621c-0.486,0.408-1.168,0.653-2.043,0.733v1.302h-0.87v-1.276
			c-1.032-0.021-1.938-0.203-2.717-0.546v-1.676c0.368,0.182,0.812,0.343,1.33,0.482s0.98,0.223,1.387,0.248v-1.969l-0.425-0.164
			c-0.838-0.33-1.432-0.689-1.781-1.076c-0.349-0.388-0.523-0.867-0.523-1.438c0-0.614,0.24-1.119,0.721-1.515
			s1.149-0.636,2.009-0.72v-0.972h0.87v0.946c0.969,0.042,1.845,0.236,2.627,0.584l-0.596,1.484
			c-0.66-0.271-1.338-0.436-2.031-0.494v1.872c0.824,0.317,1.412,0.593,1.761,0.825c0.35,0.232,0.605,0.488,0.769,0.768
			S496.875,275.727,496.875,276.1z M492.412,272.342c0,0.186,0.065,0.339,0.194,0.46c0.129,0.12,0.337,0.244,0.625,0.371v-1.491
			C492.686,271.762,492.412,271.981,492.412,272.342z M494.965,276.194c0-0.178-0.072-0.328-0.217-0.45
			c-0.144-0.123-0.359-0.25-0.646-0.381v1.58C494.677,276.846,494.965,276.597,494.965,276.194z"/>
		<path fill="#FFFFFF" d="M502.733,279h-1.962v-5.37l0.02-0.882l0.031-0.965c-0.325,0.325-0.552,0.539-0.679,0.641l-1.066,0.857
			l-0.946-1.182l2.99-2.38h1.612V279z"/>
		<path fill="#FFFFFF" d="M505.526,278.092c0-0.355,0.096-0.624,0.286-0.806s0.468-0.272,0.831-0.272
			c0.352,0,0.624,0.093,0.816,0.279c0.192,0.186,0.289,0.452,0.289,0.799c0,0.335-0.098,0.599-0.293,0.791
			c-0.194,0.192-0.465,0.289-0.812,0.289c-0.355,0-0.63-0.095-0.824-0.283C505.624,278.7,505.526,278.436,505.526,278.092z"/>
		<path fill="#FFFFFF" d="M515.499,279h-6.487v-1.365l2.329-2.354c0.69-0.707,1.141-1.196,1.353-1.47
			c0.212-0.272,0.364-0.525,0.457-0.758c0.093-0.233,0.14-0.475,0.14-0.725c0-0.372-0.103-0.649-0.308-0.831
			s-0.479-0.272-0.822-0.272c-0.359,0-0.709,0.082-1.048,0.247c-0.338,0.165-0.691,0.399-1.06,0.704l-1.066-1.263
			c0.457-0.39,0.836-0.664,1.136-0.825c0.301-0.161,0.629-0.284,0.984-0.371s0.753-0.131,1.193-0.131
			c0.58,0,1.092,0.106,1.536,0.318c0.444,0.211,0.789,0.508,1.034,0.889c0.246,0.381,0.369,0.816,0.369,1.307
			c0,0.428-0.075,0.829-0.226,1.203c-0.15,0.375-0.383,0.759-0.698,1.152s-0.871,0.954-1.666,1.682l-1.193,1.124v0.089h4.043V279z"
			/>
		<path fill="#FFFFFF" d="M521.01,279l-2.234-7.281h-0.058c0.08,1.481,0.12,2.47,0.12,2.965V279h-1.758v-9.28h2.679l2.196,7.097
			h0.038l2.329-7.097h2.68V279h-1.835v-4.393c0-0.207,0.003-0.446,0.01-0.717c0.006-0.271,0.034-0.99,0.085-2.158h-0.057
			L522.812,279H521.01z"/>
	</g>
</g>
<g>
	<path fill="#E0533F" d="M362.186,295v-71.5c0-6.627,0.373-7,7-7h50c6.627,0,7,0.373,7,7V295"/>
	<g>
		<path fill="#FFFFFF" d="M382.246,276.1c0,0.672-0.243,1.213-0.73,1.621c-0.486,0.408-1.168,0.653-2.043,0.733v1.302h-0.87v-1.276
			c-1.032-0.021-1.938-0.203-2.717-0.546v-1.676c0.368,0.182,0.812,0.343,1.33,0.482s0.98,0.223,1.387,0.248v-1.969l-0.425-0.164
			c-0.838-0.33-1.432-0.689-1.781-1.076c-0.349-0.388-0.523-0.867-0.523-1.438c0-0.614,0.24-1.119,0.721-1.515
			s1.149-0.636,2.009-0.72v-0.972h0.87v0.946c0.969,0.042,1.845,0.236,2.627,0.584l-0.596,1.484
			c-0.66-0.271-1.338-0.436-2.031-0.494v1.872c0.824,0.317,1.412,0.593,1.761,0.825c0.35,0.232,0.605,0.488,0.769,0.768
			S382.246,275.727,382.246,276.1z M377.783,272.342c0,0.186,0.065,0.339,0.194,0.46c0.129,0.12,0.337,0.244,0.625,0.371v-1.491
			C378.057,271.762,377.783,271.981,377.783,272.342z M380.336,276.194c0-0.178-0.072-0.328-0.217-0.45
			c-0.144-0.123-0.359-0.25-0.646-0.381v1.58C380.048,276.846,380.336,276.597,380.336,276.194z"/>
		<path fill="#FFFFFF" d="M388.104,279h-1.962v-5.37l0.02-0.882l0.031-0.965c-0.325,0.325-0.552,0.539-0.679,0.641l-1.066,0.857
			l-0.946-1.182l2.99-2.38h1.612V279z"/>
		<path fill="#FFFFFF" d="M397.163,279h-6.487v-1.365l2.329-2.354c0.69-0.707,1.141-1.196,1.353-1.47
			c0.212-0.272,0.364-0.525,0.457-0.758c0.093-0.233,0.14-0.475,0.14-0.725c0-0.372-0.103-0.649-0.308-0.831
			s-0.479-0.272-0.822-0.272c-0.359,0-0.709,0.082-1.048,0.247c-0.338,0.165-0.691,0.399-1.06,0.704l-1.066-1.263
			c0.457-0.39,0.836-0.664,1.136-0.825c0.301-0.161,0.629-0.284,0.984-0.371s0.753-0.131,1.193-0.131
			c0.58,0,1.092,0.106,1.536,0.318c0.444,0.211,0.789,0.508,1.034,0.889c0.246,0.381,0.369,0.816,0.369,1.307
			c0,0.428-0.075,0.829-0.226,1.203c-0.15,0.375-0.383,0.759-0.698,1.152s-0.871,0.954-1.666,1.682l-1.193,1.124v0.089h4.043V279z"
			/>
		<path fill="#FFFFFF" d="M401.474,273.071c0.897,0,1.611,0.252,2.143,0.755c0.531,0.504,0.796,1.193,0.796,2.07
			c0,1.036-0.319,1.834-0.958,2.393s-1.553,0.838-2.742,0.838c-1.032,0-1.866-0.167-2.501-0.502v-1.694
			c0.334,0.178,0.724,0.322,1.168,0.435s0.865,0.168,1.264,0.168c1.197,0,1.796-0.49,1.796-1.473c0-0.935-0.62-1.402-1.86-1.402
			c-0.224,0-0.472,0.022-0.742,0.066c-0.271,0.045-0.491,0.092-0.66,0.143l-0.781-0.418l0.35-4.729h5.033v1.663h-3.312l-0.172,1.822
			l0.223-0.045C400.773,273.101,401.093,273.071,401.474,273.071z"/>
		<path fill="#FFFFFF" d="M413.629,279h-2.234l-2.432-3.91l-0.831,0.597V279h-1.968v-9.28h1.968v4.247l0.774-1.092l2.514-3.155
			h2.184l-3.237,4.106L413.629,279z"/>
	</g>
</g>
<g>
	<path fill="#C6423E" d="M442.271,281l-4.16-10.918h3.115l2.109,6.221c0.234,0.788,0.381,1.533,0.439,2.236h0.059
		c0.032-0.625,0.179-1.37,0.439-2.236l2.1-6.221h3.115L445.327,281H442.271z"/>
	<path fill="#C6423E" d="M458.667,277.758c0,1.12-0.389,1.973-1.167,2.559s-1.941,0.879-3.491,0.879
		c-0.794,0-1.472-0.054-2.031-0.161s-1.084-0.266-1.572-0.474V278.1c0.554,0.261,1.177,0.479,1.87,0.654s1.304,0.264,1.831,0.264
		c1.081,0,1.621-0.312,1.621-0.938c0-0.234-0.071-0.425-0.215-0.571s-0.391-0.312-0.742-0.498s-0.82-0.402-1.406-0.649
		c-0.84-0.352-1.457-0.677-1.851-0.977s-0.681-0.643-0.859-1.03s-0.269-0.864-0.269-1.431c0-0.97,0.376-1.721,1.128-2.251
		s1.818-0.796,3.198-0.796c1.315,0,2.595,0.286,3.838,0.859l-0.898,2.148c-0.547-0.234-1.058-0.427-1.533-0.576
		s-0.96-0.225-1.455-0.225c-0.879,0-1.318,0.237-1.318,0.713c0,0.267,0.142,0.498,0.425,0.693s0.903,0.485,1.86,0.869
		c0.853,0.345,1.478,0.667,1.875,0.967s0.69,0.645,0.879,1.035S458.667,277.218,458.667,277.758z"/>
	<path fill="#C6423E" d="M460.571,279.604c0-0.547,0.146-0.96,0.439-1.24s0.72-0.42,1.279-0.42c0.54,0,0.959,0.144,1.255,0.43
		s0.444,0.696,0.444,1.23c0,0.515-0.149,0.92-0.449,1.216s-0.716,0.444-1.25,0.444c-0.547,0-0.97-0.145-1.27-0.435
		S460.571,280.131,460.571,279.604z"/>
</g>
</svg>
