<?xml version="1.0" encoding="iso-8859-1"?>
<!-- Generator: Adobe Illustrator 17.1.0, SVG Export Plug-In . SVG Version: 6.00 Build 0)  -->
<!DOCTYPE svg PUBLIC "-//W3C//DTD SVG 1.1//EN" "http://www.w3.org/Graphics/SVG/1.1/DTD/svg11.dtd">
<svg version="1.1" id="Layer_1" xmlns="http://www.w3.org/2000/svg" xmlns:xlink="http://www.w3.org/1999/xlink" x="0px" y="0px"
	 viewBox="0 0 100 100" enable-background="new 0 0 100 100" xml:space="preserve">
<g>
	<g>
		<g>
			<g enable-background="new    ">
				<g>
					<polygon fill="#CFD0D0" points="93.169,19.239 49.921,34.28 6.456,19.086 49.708,4.045 					"/>
				</g>
				<g>
					<polygon fill="#CFD0D0" points="93.169,19.239 92.825,80.738 49.573,95.777 49.921,34.28 					"/>
				</g>
				<g>
					<polygon fill="#CFD0D0" points="49.921,34.28 49.573,95.777 6.106,80.583 6.456,19.086 					"/>
				</g>
			</g>
		</g>
	</g>
	<polygon fill="none" stroke="#FFFFFF" stroke-width="0.6454" stroke-miterlimit="10" points="89.946,22.931 89.598,77.906 
		50.208,64.342 50.558,9.368 	"/>
	<polygon fill="none" stroke="#FFFFFF" stroke-width="0.6454" stroke-miterlimit="10" points="11.592,22.289 11.94,77.263 
		51.33,63.7 50.98,8.725 	"/>
	<g enable-background="new    ">
		<g>
			<polygon fill="#B5B5B5" stroke="#FFFFFF" stroke-width="1.6306" stroke-miterlimit="10" points="90.249,77.938 49.797,91.151 
				12.413,77.801 51.238,63.765 			"/>
		</g>
	</g>
	<polygon fill="#FFA300" stroke="#FFFFFF" stroke-width="0.7479" stroke-miterlimit="10" points="73.856,44.488 62.137,40.495 
		67.156,39.789 78.876,43.782 	"/>
	<polygon fill="#FFA300" stroke="#FFFFFF" stroke-width="0.7479" stroke-miterlimit="10" points="67.606,73.954 55.886,69.961 
		52.11,65.275 63.829,69.268 	"/>
	<polygon fill="#FFA300" stroke="#FFFFFF" stroke-width="0.7479" stroke-miterlimit="10" points="67.187,31.247 55.468,27.254 
		59.03,22.597 70.749,26.59 	"/>
	<polygon fill="#FFA300" stroke="#FFFFFF" stroke-width="0.7479" stroke-miterlimit="10" points="50.447,80.956 38.727,76.963 
		39.237,69.288 50.956,73.282 	"/>
	<g enable-background="new    ">
		<g>
			<g>
				<path id="SVGID_3_" fill="#FFA300" d="M53.463,60.631l-11.72-3.993c0.715,0.244,1.499,0.321,2.331,0.204l11.72,3.993
					C54.962,60.952,54.177,60.875,53.463,60.631z"/>
			</g>
			<g>
				<defs>
					<path id="SVGID_10_" d="M53.463,60.631l-11.72-3.993c0.715,0.244,1.499,0.321,2.331,0.204l11.72,3.993
						C54.962,60.952,54.177,60.875,53.463,60.631z"/>
				</defs>
				<clipPath id="SVGID_11_">
					<use xlink:href="#SVGID_10_"  overflow="visible"/>
				</clipPath>
				<path clip-path="url(#SVGID_11_)" fill="#FFA300" stroke="#FFFFFF" stroke-width="0.7479" stroke-miterlimit="10" d="
					M53.463,60.631l-11.72-3.993c0.029,0.01,0.057,0.019,0.086,0.028l11.72,3.993C53.52,60.651,53.491,60.641,53.463,60.631"/>
			</g>
			<g>
				<defs>
					<path id="SVGID_12_" d="M53.463,60.631l-11.72-3.993c0.715,0.244,1.499,0.321,2.331,0.204l11.72,3.993
						C54.962,60.952,54.177,60.875,53.463,60.631z"/>
				</defs>
				<clipPath id="SVGID_13_">
					<use xlink:href="#SVGID_12_"  overflow="visible"/>
				</clipPath>
				<path clip-path="url(#SVGID_13_)" fill="#FFA300" stroke="#FFFFFF" stroke-width="0.7479" stroke-miterlimit="10" d="
					M53.549,60.66l-11.72-3.993c0.245,0.078,0.497,0.137,0.757,0.176l11.72,3.993C54.046,60.797,53.793,60.738,53.549,60.66"/>
			</g>
			<g>
				<defs>
					<path id="SVGID_14_" d="M53.463,60.631l-11.72-3.993c0.715,0.244,1.499,0.321,2.331,0.204l11.72,3.993
						C54.962,60.952,54.177,60.875,53.463,60.631z"/>
				</defs>
				<clipPath id="SVGID_16_">
					<use xlink:href="#SVGID_14_"  overflow="visible"/>
				</clipPath>
				<path clip-path="url(#SVGID_16_)" fill="#FFA300" stroke="#FFFFFF" stroke-width="0.7479" stroke-miterlimit="10" d="
					M54.306,60.835l-11.72-3.993c0.283,0.042,0.574,0.06,0.873,0.052l11.72,3.993C54.88,60.895,54.589,60.877,54.306,60.835"/>
			</g>
			<g>
				<defs>
					<path id="SVGID_17_" d="M53.463,60.631l-11.72-3.993c0.715,0.244,1.499,0.321,2.331,0.204l11.72,3.993
						C54.962,60.952,54.177,60.875,53.463,60.631z"/>
				</defs>
				<clipPath id="SVGID_18_">
					<use xlink:href="#SVGID_17_"  overflow="visible"/>
				</clipPath>
				<path clip-path="url(#SVGID_18_)" fill="#FFA300" stroke="#FFFFFF" stroke-width="0.7479" stroke-miterlimit="10" d="
					M55.179,60.887l-11.72-3.993c0.202-0.005,0.407-0.022,0.616-0.052l11.72,3.993C55.586,60.865,55.38,60.882,55.179,60.887"/>
			</g>
			<g>
				<path id="SVGID_1_" fill="none" stroke="#FFFFFF" stroke-width="0.7479" stroke-miterlimit="10" d="M53.463,60.631l-11.72-3.993
					c0.715,0.244,1.499,0.321,2.331,0.204l11.72,3.993C54.962,60.952,54.177,60.875,53.463,60.631z"/>
			</g>
		</g>
	</g>
	<g enable-background="new    ">
		<g>
			<g>
				<path id="SVGID_9_" fill="#FFA300" d="M47.573,39.525l11.72,3.993c2.537,0.865,4.191,3.818,3.941,7.589
					c-0.321,4.842-3.651,9.195-7.44,9.728l-11.72-3.993c3.789-0.533,7.118-4.886,7.44-9.728
					C51.764,43.343,50.111,40.389,47.573,39.525z"/>
			</g>
			<g>
				<defs>
					<path id="SVGID_19_" d="M47.573,39.525l11.72,3.993c2.537,0.865,4.191,3.818,3.941,7.589c-0.321,4.842-3.651,9.195-7.44,9.728
						l-11.72-3.993c3.789-0.533,7.118-4.886,7.44-9.728C51.764,43.343,50.111,40.389,47.573,39.525z"/>
				</defs>
				<clipPath id="SVGID_20_">
					<use xlink:href="#SVGID_19_"  overflow="visible"/>
				</clipPath>
				<path clip-path="url(#SVGID_20_)" fill="#FFA300" stroke="#FFFFFF" stroke-width="0.7479" stroke-miterlimit="10" d="
					M55.794,60.835l-11.72-3.993c0.179-0.025,0.357-0.059,0.534-0.101l11.72,3.993C56.151,60.777,55.973,60.81,55.794,60.835"/>
			</g>
			<g>
				<defs>
					<path id="SVGID_22_" d="M47.573,39.525l11.72,3.993c2.537,0.865,4.191,3.818,3.941,7.589c-0.321,4.842-3.651,9.195-7.44,9.728
						l-11.72-3.993c3.789-0.533,7.118-4.886,7.44-9.728C51.764,43.343,50.111,40.389,47.573,39.525z"/>
				</defs>
				<clipPath id="SVGID_23_">
					<use xlink:href="#SVGID_22_"  overflow="visible"/>
				</clipPath>
				<path clip-path="url(#SVGID_23_)" fill="#FFA300" d="M56.328,60.735l-11.72-3.993c1.418-0.336,2.752-1.199,3.865-2.406
					l11.72,3.993C59.08,59.536,57.746,60.399,56.328,60.735"/>
			</g>
			<g>
				<defs>
					<path id="SVGID_24_" d="M47.573,39.525l11.72,3.993c2.537,0.865,4.191,3.818,3.941,7.589c-0.321,4.842-3.651,9.195-7.44,9.728
						l-11.72-3.993c3.789-0.533,7.118-4.886,7.44-9.728C51.764,43.343,50.111,40.389,47.573,39.525z"/>
				</defs>
				<clipPath id="SVGID_25_">
					<use xlink:href="#SVGID_24_"  overflow="visible"/>
				</clipPath>
				<path clip-path="url(#SVGID_25_)" fill="#FFA300" d="M60.192,59.077l-11.72-3.993c0.32-0.348,0.622-1.472,0.902-1.873
					l11.72,3.993c-0.28,0.401-0.582,0.777-0.902,1.125"/>
			</g>
			<g>
				<defs>
					<path id="SVGID_26_" d="M47.573,39.525l11.72,3.993c2.537,0.865,4.191,3.818,3.941,7.589c-0.321,4.842-3.651,9.195-7.44,9.728
						l-11.72-3.993c3.789-0.533,7.118-4.886,7.44-9.728C51.764,43.343,50.111,40.389,47.573,39.525z"/>
				</defs>
				<clipPath id="SVGID_28_">
					<use xlink:href="#SVGID_26_"  overflow="visible"/>
				</clipPath>
				<path clip-path="url(#SVGID_28_)" fill="#FFA300" d="M61.095,57.204l-11.72-3.993c0.22-0.315,0.427-0.645,0.618-0.987
					l11.72,3.993C61.521,56.56,61.315,56.889,61.095,57.204"/>
			</g>
			<g>
				<defs>
					<path id="SVGID_29_" d="M47.573,39.525l11.72,3.993c2.537,0.865,4.191,3.818,3.941,7.589c-0.321,4.842-3.651,9.195-7.44,9.728
						l-11.72-3.993c3.789-0.533,7.118-4.886,7.44-9.728C51.764,43.343,50.111,40.389,47.573,39.525z"/>
				</defs>
				<clipPath id="SVGID_30_">
					<use xlink:href="#SVGID_29_"  overflow="visible"/>
				</clipPath>
				<path clip-path="url(#SVGID_30_)" fill="#FFA300" d="M61.713,56.217l-11.72-3.993c0.172-0.307,0.332-2.121,0.478-2.447
					l11.72,3.993C62.045,54.096,61.885,55.91,61.713,56.217"/>
			</g>
			<g>
				<defs>
					<path id="SVGID_31_" d="M47.573,39.525l11.72,3.993c2.537,0.865,4.191,3.818,3.941,7.589c-0.321,4.842-3.651,9.195-7.44,9.728
						l-11.72-3.993c3.789-0.533,7.118-4.886,7.44-9.728C51.764,43.343,50.111,40.389,47.573,39.525z"/>
				</defs>
				<clipPath id="SVGID_32_">
					<use xlink:href="#SVGID_31_"  overflow="visible"/>
				</clipPath>
				<path clip-path="url(#SVGID_32_)" fill="#FFA300" d="M62.573,54.311l-11.72-3.993c0.115-0.328,0.217-0.662,0.305-1.002
					l11.72,3.993C62.79,53.649,62.688,53.983,62.573,54.311"/>
			</g>
			<g>
				<defs>
					<path id="SVGID_34_" d="M47.573,39.525l11.72,3.993c2.537,0.865,4.191,3.818,3.941,7.589c-0.321,4.842-3.651,9.195-7.44,9.728
						l-11.72-3.993c3.789-0.533,7.118-4.886,7.44-9.728C51.764,43.343,50.111,40.389,47.573,39.525z"/>
				</defs>
				<clipPath id="SVGID_35_">
					<use xlink:href="#SVGID_34_"  overflow="visible"/>
				</clipPath>
				<path clip-path="url(#SVGID_35_)" fill="#FFA300" d="M62.878,53.309l-11.72-3.993c0.095-0.367,0.173-0.741,0.234-1.119
					l11.72,3.993C63.051,52.568,62.973,52.941,62.878,53.309"/>
			</g>
			<g>
				<defs>
					<path id="SVGID_36_" d="M47.573,39.525l11.72,3.993c2.537,0.865,4.191,3.818,3.941,7.589c-0.321,4.842-3.651,9.195-7.44,9.728
						l-11.72-3.993c3.789-0.533,7.118-4.886,7.44-9.728C51.764,43.343,50.111,40.389,47.573,39.525z"/>
				</defs>
				<clipPath id="SVGID_37_">
					<use xlink:href="#SVGID_36_"  overflow="visible"/>
				</clipPath>
				<path clip-path="url(#SVGID_37_)" fill="#FFA300" d="M63.111,52.189l-11.72-3.993c0.057-0.357,0.098-0.718,0.122-1.082
					c0.007-0.098,0.012-0.196,0.016-0.293l11.72,3.993c-0.004,0.097-0.009,0.194-0.016,0.293
					C63.209,51.471,63.168,51.833,63.111,52.189"/>
			</g>
			<g>
				<defs>
					<path id="SVGID_38_" d="M47.573,39.525l11.72,3.993c2.537,0.865,4.191,3.818,3.941,7.589c-0.321,4.842-3.651,9.195-7.44,9.728
						l-11.72-3.993c3.789-0.533,7.118-4.886,7.44-9.728C51.764,43.343,50.111,40.389,47.573,39.525z"/>
				</defs>
				<clipPath id="SVGID_40_">
					<use xlink:href="#SVGID_38_"  overflow="visible"/>
				</clipPath>
				<path clip-path="url(#SVGID_40_)" fill="#FFA300" stroke="#FFFFFF" stroke-width="0.7479" stroke-miterlimit="10" d="
					M51.53,46.822c0.148-3.631-1.485-6.455-3.956-7.297l11.72,3.993c2.471,0.842,4.104,3.666,3.956,7.297"/>
			</g>
			<g>
				<path id="SVGID_2_" fill="none" stroke="#FFFFFF" stroke-width="0.7479" stroke-miterlimit="10" d="M47.573,39.525l11.72,3.993
					c2.537,0.865,4.191,3.818,3.941,7.589c-0.321,4.842-3.651,9.195-7.44,9.728l-11.72-3.993c3.789-0.533,7.118-4.886,7.44-9.728
					C51.764,43.343,50.111,40.389,47.573,39.525z"/>
			</g>
		</g>
	</g>
	<g enable-background="new    ">
		<g>
			<g>
				<path id="SVGID_15_" fill="#FFA300" d="M52.21,25.565l11.72,3.993c-0.648-0.221-1.319-0.388-2.01-0.499L50.2,25.066
					C50.891,25.177,51.562,25.344,52.21,25.565z"/>
			</g>
			<g>
				<defs>
					<path id="SVGID_41_" d="M52.21,25.565l11.72,3.993c-0.648-0.221-1.319-0.388-2.01-0.499L50.2,25.066
						C50.891,25.177,51.562,25.344,52.21,25.565z"/>
				</defs>
				<clipPath id="SVGID_42_">
					<use xlink:href="#SVGID_41_"  overflow="visible"/>
				</clipPath>
				<path clip-path="url(#SVGID_42_)" fill="#FFA300" stroke="#FFFFFF" stroke-width="0.7479" stroke-miterlimit="10" d="
					M61.92,29.059L50.2,25.066c0.613,0.099,1.211,0.242,1.791,0.427l11.72,3.993C63.131,29.301,62.533,29.158,61.92,29.059"/>
			</g>
			<g>
				<defs>
					<path id="SVGID_43_" d="M52.21,25.565l11.72,3.993c-0.648-0.221-1.319-0.388-2.01-0.499L50.2,25.066
						C50.891,25.177,51.562,25.344,52.21,25.565z"/>
				</defs>
				<clipPath id="SVGID_44_">
					<use xlink:href="#SVGID_43_"  overflow="visible"/>
				</clipPath>
				<path clip-path="url(#SVGID_44_)" fill="#FFA300" stroke="#FFFFFF" stroke-width="0.7479" stroke-miterlimit="10" d="
					M63.711,29.486l-11.72-3.993c0.073,0.023,0.146,0.048,0.219,0.072l11.72,3.993C63.857,29.534,63.784,29.51,63.711,29.486"/>
			</g>
			<g>
				<path id="SVGID_4_" fill="none" stroke="#FFFFFF" stroke-width="0.7479" stroke-miterlimit="10" d="M52.21,25.565l11.72,3.993
					c-0.648-0.221-1.319-0.388-2.01-0.499L50.2,25.066C50.891,25.177,51.562,25.344,52.21,25.565z"/>
			</g>
		</g>
	</g>
	<g enable-background="new    ">
		<g>
			<g>
				<path id="SVGID_21_" fill="#FFA300" d="M49.205,72.826l-11.72-3.993c-0.923-0.314-1.798-0.736-2.623-1.258l11.72,3.993
					C47.407,72.09,48.283,72.512,49.205,72.826z"/>
			</g>
			<g>
				<defs>
					<path id="SVGID_45_" d="M49.205,72.826l-11.72-3.993c-0.923-0.314-1.798-0.736-2.623-1.258l11.72,3.993
						C47.407,72.09,48.283,72.512,49.205,72.826z"/>
				</defs>
				<clipPath id="SVGID_46_">
					<use xlink:href="#SVGID_45_"  overflow="visible"/>
				</clipPath>
				<path clip-path="url(#SVGID_46_)" fill="#FFA300" stroke="#FFFFFF" stroke-width="0.7479" stroke-miterlimit="10" d="
					M49.205,72.826l-11.72-3.993c-0.923-0.314-1.798-0.736-2.623-1.258l11.72,3.993C47.407,72.09,48.283,72.512,49.205,72.826"/>
			</g>
			<g>
				<path id="SVGID_5_" fill="none" stroke="#FFFFFF" stroke-width="0.7479" stroke-miterlimit="10" d="M49.205,72.826l-11.72-3.993
					c-0.923-0.314-1.798-0.736-2.623-1.258l11.72,3.993C47.407,72.09,48.283,72.512,49.205,72.826z"/>
			</g>
		</g>
	</g>
	<polygon fill="#FFA300" stroke="#FFFFFF" stroke-width="0.7479" stroke-miterlimit="10" points="54.205,24.331 42.485,20.338 
		50.589,19.199 62.309,23.192 	"/>
	<polygon fill="#FFA300" stroke="#FFFFFF" stroke-width="0.7479" stroke-miterlimit="10" points="53.81,30.276 42.091,26.283 
		42.485,20.338 54.205,24.331 	"/>
	<polygon fill="#FFA300" stroke="#FFFFFF" stroke-width="0.7479" stroke-miterlimit="10" points="42.002,77.553 30.282,73.559 
		25.039,67.043 36.759,71.036 	"/>
	<polygon fill="#FFA300" stroke="#FFFFFF" stroke-width="0.7479" stroke-miterlimit="10" points="36.759,71.036 25.039,67.043 
		29.476,61.241 41.196,65.234 	"/>
	<g enable-background="new    ">
		<g>
			<g>
				<path id="SVGID_27_" fill="#FFA300" d="M48.249,34.045l-11.72-3.993c1.71-1.598,3.581-2.882,5.562-3.768l11.72,3.993
					C51.829,31.163,49.958,32.447,48.249,34.045z"/>
			</g>
			<g>
				<defs>
					<path id="SVGID_47_" d="M48.249,34.045l-11.72-3.993c1.71-1.598,3.581-2.882,5.562-3.768l11.72,3.993
						C51.829,31.163,49.958,32.447,48.249,34.045z"/>
				</defs>
				<clipPath id="SVGID_48_">
					<use xlink:href="#SVGID_47_"  overflow="visible"/>
				</clipPath>
				<path clip-path="url(#SVGID_48_)" fill="#FFA300" stroke="#FFFFFF" stroke-width="0.7479" stroke-miterlimit="10" d="
					M48.249,34.045l-11.72-3.993c1.71-1.598,3.581-2.882,5.562-3.768l11.72,3.993C51.829,31.163,49.958,32.447,48.249,34.045"/>
			</g>
			<g>
				<path id="SVGID_6_" fill="none" stroke="#FFFFFF" stroke-width="0.7479" stroke-miterlimit="10" d="M48.249,34.045l-11.72-3.993
					c1.71-1.598,3.581-2.882,5.562-3.768l11.72,3.993C51.829,31.163,49.958,32.447,48.249,34.045z"/>
			</g>
		</g>
	</g>
	<g enable-background="new    ">
		<g>
			<g>
				<path id="SVGID_33_" fill="#FFA300" d="M41.196,65.234l-11.72-3.993c-0.793-1.692-1.376-3.589-1.709-5.656l11.72,3.993
					C39.82,61.645,40.403,63.542,41.196,65.234z"/>
			</g>
			<g>
				<defs>
					<path id="SVGID_49_" d="M41.196,65.234l-11.72-3.993c-0.793-1.692-1.376-3.589-1.709-5.656l11.72,3.993
						C39.82,61.645,40.403,63.542,41.196,65.234z"/>
				</defs>
				<clipPath id="SVGID_50_">
					<use xlink:href="#SVGID_49_"  overflow="visible"/>
				</clipPath>
				<path clip-path="url(#SVGID_50_)" fill="#FFA300" stroke="#FFFFFF" stroke-width="0.7479" stroke-miterlimit="10" d="
					M41.196,65.234l-11.72-3.993c-0.793-1.692-1.376-3.589-1.709-5.656l11.72,3.993C39.82,61.645,40.403,63.542,41.196,65.234"/>
			</g>
			<g>
				<path id="SVGID_7_" fill="none" stroke="#FFFFFF" stroke-width="0.7479" stroke-miterlimit="10" d="M41.196,65.234l-11.72-3.993
					c-0.793-1.692-1.376-3.589-1.709-5.656l11.72,3.993C39.82,61.645,40.403,63.542,41.196,65.234z"/>
			</g>
		</g>
	</g>
	<g enable-background="new    ">
		<g>
			<g>
				<path id="SVGID_39_" fill="#FFA300" d="M39.847,49.267l-11.72-3.993c0.524-2.414,1.33-4.725,2.363-6.875l11.72,3.993
					C41.178,44.542,40.372,46.853,39.847,49.267z"/>
			</g>
			<g>
				<defs>
					<path id="SVGID_51_" d="M39.847,49.267l-11.72-3.993c0.524-2.414,1.33-4.725,2.363-6.875l11.72,3.993
						C41.178,44.542,40.372,46.853,39.847,49.267z"/>
				</defs>
				<clipPath id="SVGID_52_">
					<use xlink:href="#SVGID_51_"  overflow="visible"/>
				</clipPath>
				<path clip-path="url(#SVGID_52_)" fill="#FFA300" stroke="#FFFFFF" stroke-width="0.7479" stroke-miterlimit="10" d="
					M39.847,49.267l-11.72-3.993c0.086-0.394,0.179-0.786,0.279-1.174l11.72,3.993C40.026,48.482,39.933,48.873,39.847,49.267"/>
			</g>
			<g>
				<defs>
					<path id="SVGID_53_" d="M39.847,49.267l-11.72-3.993c0.524-2.414,1.33-4.725,2.363-6.875l11.72,3.993
						C41.178,44.542,40.372,46.853,39.847,49.267z"/>
				</defs>
				<clipPath id="SVGID_54_">
					<use xlink:href="#SVGID_53_"  overflow="visible"/>
				</clipPath>
				<path clip-path="url(#SVGID_54_)" fill="#FFA300" d="M40.127,48.841l-11.72-3.993c0.223-0.862,1.97-5.301,2.262-6.131
					l11.72,3.993c-0.292,0.829-2.039,4.521-2.262,5.383"/>
			</g>
			<g>
				<path id="SVGID_8_" fill="none" stroke="#FFFFFF" stroke-width="0.7479" stroke-miterlimit="10" d="M39.847,49.267l-11.72-3.993
					c0.524-2.414,1.33-4.725,2.363-6.875l11.72,3.993C41.178,44.542,40.372,46.853,39.847,49.267z"/>
			</g>
		</g>
	</g>
	<polygon fill="#FFA300" stroke="#FFFFFF" stroke-width="0.7479" stroke-miterlimit="10" points="42.211,42.393 30.491,38.399 
		27.211,34.322 38.93,38.315 	"/>
	<polygon fill="#FFA300" stroke="#FFFFFF" stroke-width="0.7479" stroke-miterlimit="10" points="38.93,38.315 27.211,34.322 
		33.426,26.195 45.145,30.188 	"/>
	<path fill="#FFD880" stroke="#FBFCD0" stroke-width="1.4959" stroke-miterlimit="10" d="M78.13,54.509l-5.346,0.751
		c-0.637,2.281-1.525,4.462-2.615,6.47l3.594,4.466l-6.215,8.127l-3.777-4.686c-1.493,1.231-3.097,2.233-4.774,2.953l-0.504,7.596
		l-8.104,1.139l0.509-7.674c-1.579-0.289-3.043-0.872-4.374-1.713l-4.581,5.984L36.7,71.406l4.437-5.802
		c-0.793-1.692-1.376-3.589-1.709-5.656l-5.612,0.789l0.687-10.356l5.285-0.743c0.524-2.414,1.33-4.725,2.363-6.875l-3.281-4.077
		l6.215-8.127l3.103,3.857c1.71-1.598,3.581-2.882,5.562-3.768l0.395-5.945l8.104-1.139l-0.389,5.867
		c1.932,0.31,3.708,1.063,5.268,2.188l3.562-4.658l5.243,6.517l-3.701,4.845c0.812,1.948,1.349,4.148,1.564,6.536l5.02-0.705
		L78.13,54.509z M55.736,61.205c3.789-0.533,7.118-4.886,7.44-9.728c0.321-4.836-2.488-8.326-6.277-7.794
		c-3.784,0.532-7.113,4.885-7.434,9.721C49.143,58.246,51.952,61.737,55.736,61.205"/>
	<polygon fill="#FFA300" stroke="#FFFFFF" stroke-width="0.7479" stroke-miterlimit="10" points="34.562,50.01 22.843,46.017 
		28.128,45.274 39.847,49.267 	"/>
	<polygon fill="#FFA300" stroke="#FFFFFF" stroke-width="0.7479" stroke-miterlimit="10" points="33.875,60.367 22.155,56.373 
		22.843,46.017 34.562,50.01 	"/>
</g>
</svg>
