<?xml version="1.0" encoding="utf-8"?>
<!-- Generator: Adobe Illustrator 16.0.4, SVG Export Plug-In . SVG Version: 6.00 Build 0)  -->
<!DOCTYPE svg PUBLIC "-//W3C//DTD SVG 1.1//EN" "http://www.w3.org/Graphics/SVG/1.1/DTD/svg11.dtd">
<svg version="1.1" id="Layer_1" xmlns="http://www.w3.org/2000/svg" xmlns:xlink="http://www.w3.org/1999/xlink" x="0px" y="0px"
	 width="367px" height="424.667px" viewBox="0 0 367 424.667" enable-background="new 0 0 367 424.667" xml:space="preserve">
<path fill="#4D95BF" d="M11.52,333.667c0-6.627,0.373-7,7-7h85c6.627,0,7,0.373,7,7v77c0,6.627-0.373,7-7,7h-86
	c-6.627,0-6,0.627-6-6V333.667z"/>
<g>
	<path fill="#FFFFFF" d="M47.429,348.464c0,1.152-0.36,2.034-1.08,2.644c-0.721,0.611-1.745,0.916-3.073,0.916h-0.974v3.809h-2.271
		v-10.708h3.42c1.299,0,2.286,0.279,2.962,0.839C47.091,346.522,47.429,347.356,47.429,348.464z M42.302,350.164h0.747
		c0.698,0,1.221-0.138,1.567-0.414c0.347-0.275,0.52-0.677,0.52-1.204c0-0.532-0.146-0.926-0.436-1.18s-0.746-0.381-1.366-0.381
		h-1.033V350.164z"/>
	<path fill="#FFFFFF" d="M56.833,355.833H54.6v-4.783c0-1.181-0.439-1.771-1.318-1.771c-0.625,0-1.077,0.212-1.355,0.637
		s-0.417,1.113-0.417,2.065v3.853h-2.234v-11.396h2.234v2.322c0,0.181-0.017,0.605-0.051,1.273l-0.051,0.66h0.117
		c0.498-0.801,1.289-1.201,2.373-1.201c0.962,0,1.692,0.259,2.19,0.775c0.498,0.519,0.747,1.26,0.747,2.227V355.833z"/>
	<path fill="#FFFFFF" d="M64.333,355.833l-0.432-1.113h-0.059c-0.376,0.474-0.763,0.802-1.161,0.985
		c-0.398,0.183-0.917,0.274-1.557,0.274c-0.786,0-1.405-0.225-1.856-0.674c-0.452-0.449-0.678-1.089-0.678-1.919
		c0-0.869,0.304-1.51,0.912-1.923c0.607-0.412,1.524-0.641,2.75-0.685l1.421-0.044v-0.359c0-0.829-0.425-1.244-1.274-1.244
		c-0.654,0-1.423,0.197-2.307,0.593l-0.74-1.509c0.942-0.493,1.987-0.74,3.135-0.74c1.099,0,1.941,0.24,2.527,0.719
		s0.879,1.206,0.879,2.182v5.457H64.333z M63.674,352.039l-0.864,0.029c-0.649,0.02-1.133,0.137-1.45,0.352
		s-0.476,0.542-0.476,0.981c0,0.63,0.361,0.945,1.084,0.945c0.518,0,0.931-0.149,1.242-0.447c0.31-0.298,0.465-0.693,0.465-1.187
		V352.039z"/>
	<path fill="#FFFFFF" d="M73.906,353.401c0,0.84-0.292,1.479-0.875,1.919c-0.584,0.439-1.457,0.659-2.619,0.659
		c-0.596,0-1.104-0.04-1.523-0.121c-0.42-0.08-0.813-0.198-1.179-0.355v-1.846c0.415,0.196,0.883,0.359,1.402,0.491
		c0.521,0.132,0.978,0.198,1.374,0.198c0.811,0,1.216-0.234,1.216-0.703c0-0.176-0.054-0.319-0.161-0.429
		c-0.107-0.11-0.293-0.234-0.557-0.374c-0.264-0.139-0.615-0.301-1.055-0.486c-0.63-0.264-1.093-0.508-1.388-0.732
		s-0.51-0.482-0.645-0.773c-0.134-0.29-0.201-0.648-0.201-1.072c0-0.728,0.282-1.291,0.846-1.688
		c0.564-0.398,1.364-0.597,2.399-0.597c0.986,0,1.946,0.215,2.878,0.645l-0.674,1.611c-0.41-0.176-0.793-0.32-1.15-0.433
		s-0.72-0.169-1.091-0.169c-0.659,0-0.989,0.179-0.989,0.535c0,0.2,0.106,0.373,0.319,0.52c0.212,0.146,0.677,0.364,1.395,0.652
		c0.64,0.259,1.108,0.501,1.406,0.725c0.298,0.226,0.518,0.484,0.659,0.777S73.906,352.996,73.906,353.401z"/>
	<path fill="#FFFFFF" d="M79.355,355.979c-1.318,0-2.349-0.363-3.091-1.092c-0.742-0.727-1.113-1.758-1.113-3.09
		c0-1.372,0.343-2.434,1.029-3.183c0.686-0.75,1.634-1.124,2.845-1.124c1.157,0,2.058,0.329,2.703,0.988s0.967,1.57,0.967,2.732
		v1.084h-5.281c0.024,0.635,0.212,1.13,0.564,1.486s0.845,0.535,1.479,0.535c0.493,0,0.959-0.052,1.399-0.154
		s0.898-0.266,1.377-0.49v1.729c-0.391,0.195-0.808,0.34-1.252,0.436C80.537,355.931,79.995,355.979,79.355,355.979z M79.041,349.08
		c-0.474,0-0.845,0.15-1.113,0.45c-0.269,0.301-0.422,0.727-0.461,1.278h3.135c-0.01-0.552-0.154-0.978-0.432-1.278
		C79.89,349.23,79.514,349.08,79.041,349.08z"/>
	<path fill="#FFFFFF" d="M62.927,373.833h-2.263v-6.196l0.022-1.019l0.037-1.113c-0.376,0.377-0.637,0.623-0.784,0.74l-1.23,0.988
		l-1.091-1.361l3.45-2.747h1.86V373.833z"/>
</g>
<rect x="21.137" y="401.667" fill="#367BA4" width="79.75" height="6"/>
<g>
	<path fill="#999999" d="M81.146,258.36h-0.949v-6.238c0-0.52,0.016-1.01,0.047-1.473c-0.082,0.083-0.174,0.171-0.275,0.263
		s-0.566,0.481-1.395,1.168l-0.516-0.683l2.268-1.79h0.82V258.36z"/>
	<path fill="#999999" d="M90.896,251.678c0.285,0,0.541,0.024,0.768,0.072l-0.135,0.922c-0.266-0.061-0.5-0.09-0.703-0.09
		c-0.52,0-0.964,0.216-1.333,0.646s-0.554,0.968-0.554,1.61v3.521h-0.973v-6.562h0.803l0.111,1.215h0.047
		c0.238-0.427,0.525-0.756,0.861-0.987S90.494,251.678,90.896,251.678z"/>
	<path fill="#999999" d="M96.814,258.36l-0.193-0.934h-0.047c-0.32,0.411-0.64,0.689-0.958,0.835s-0.716,0.219-1.192,0.219
		c-0.637,0-1.136-0.168-1.497-0.503c-0.361-0.336-0.542-0.812-0.542-1.432c0-1.325,1.037-2.02,3.111-2.083l1.09-0.036v-0.407
		c0-0.515-0.108-0.895-0.325-1.141c-0.217-0.245-0.563-0.368-1.04-0.368c-0.535,0-1.141,0.168-1.816,0.503l-0.299-0.76
		c0.316-0.176,0.663-0.313,1.04-0.413c0.377-0.101,0.755-0.15,1.134-0.15c0.766,0,1.333,0.174,1.702,0.521
		c0.369,0.347,0.554,0.903,0.554,1.67v4.479H96.814z M94.617,257.66c0.605,0,1.081-0.17,1.427-0.509
		c0.346-0.34,0.519-0.814,0.519-1.426v-0.592l-0.973,0.041c-0.773,0.028-1.331,0.151-1.673,0.368
		c-0.342,0.218-0.513,0.557-0.513,1.016c0,0.358,0.106,0.632,0.319,0.82C93.937,257.566,94.234,257.66,94.617,257.66z"/>
	<path fill="#999999" d="M102.105,258.48c-0.93,0-1.649-0.293-2.159-0.878c-0.51-0.584-0.765-1.411-0.765-2.481
		c0-1.098,0.259-1.945,0.776-2.544s1.255-0.898,2.212-0.898c0.309,0,0.617,0.034,0.926,0.102c0.309,0.068,0.551,0.148,0.727,0.24
		l-0.299,0.844c-0.215-0.088-0.449-0.161-0.703-0.219s-0.479-0.087-0.674-0.087c-1.305,0-1.957,0.851-1.957,2.551
		c0,0.807,0.159,1.425,0.478,1.856c0.318,0.431,0.79,0.646,1.415,0.646c0.535,0,1.084-0.118,1.646-0.354v0.88
		C103.299,258.366,102.758,258.48,102.105,258.48z"/>
	<path fill="#999999" d="M106.213,255.001c0.168-0.244,0.424-0.563,0.768-0.958l2.074-2.245h1.154l-2.602,2.796l2.783,3.766h-1.178
		l-2.268-3.102l-0.732,0.646v2.455h-0.961v-9.316h0.961v4.939c0,0.22-0.016,0.56-0.047,1.019H106.213z"/>
	<path fill="#999999" d="M48.059,277.36h-0.949v-6.238c0-0.52,0.016-1.01,0.047-1.473c-0.082,0.083-0.174,0.171-0.275,0.263
		s-0.566,0.481-1.395,1.168l-0.516-0.683l2.268-1.79h0.82V277.36z"/>
	<path fill="#999999" d="M56.994,272.971c0,1.513-0.233,2.643-0.7,3.389s-1.181,1.12-2.142,1.12c-0.922,0-1.623-0.383-2.104-1.146
		c-0.48-0.765-0.721-1.886-0.721-3.362c0-1.524,0.232-2.656,0.697-3.395s1.174-1.107,2.127-1.107c0.93,0,1.636,0.385,2.118,1.155
		S56.994,271.51,56.994,272.971z M52.312,272.971c0,1.273,0.146,2.2,0.439,2.781s0.76,0.871,1.4,0.871
		c0.648,0,1.118-0.294,1.409-0.883s0.437-1.512,0.437-2.77c0-1.257-0.146-2.178-0.437-2.763s-0.761-0.877-1.409-0.877
		c-0.641,0-1.107,0.288-1.4,0.865C52.459,270.773,52.312,271.698,52.312,272.971z"/>
	<path fill="#999999" d="M64.307,277.48c-0.93,0-1.649-0.293-2.159-0.878c-0.51-0.584-0.765-1.411-0.765-2.481
		c0-1.098,0.259-1.945,0.776-2.544s1.255-0.898,2.212-0.898c0.309,0,0.617,0.034,0.926,0.102c0.309,0.068,0.551,0.148,0.727,0.24
		l-0.299,0.844c-0.215-0.088-0.449-0.161-0.703-0.219s-0.479-0.087-0.674-0.087c-1.305,0-1.957,0.851-1.957,2.551
		c0,0.807,0.159,1.425,0.478,1.856c0.318,0.431,0.79,0.646,1.415,0.646c0.535,0,1.084-0.118,1.646-0.354v0.88
		C65.5,277.366,64.959,277.48,64.307,277.48z"/>
	<path fill="#999999" d="M72.996,274.073c0,1.07-0.264,1.905-0.791,2.506s-1.256,0.901-2.186,0.901
		c-0.574,0-1.084-0.138-1.529-0.413s-0.789-0.671-1.031-1.186c-0.242-0.516-0.363-1.118-0.363-1.809
		c0-1.069,0.262-1.902,0.785-2.499s1.25-0.896,2.18-0.896c0.898,0,1.612,0.306,2.142,0.916S72.996,273.031,72.996,274.073z
		 M68.104,274.073c0,0.839,0.164,1.477,0.492,1.916s0.811,0.658,1.447,0.658s1.12-0.218,1.45-0.655
		c0.33-0.437,0.495-1.076,0.495-1.919c0-0.834-0.165-1.468-0.495-1.9c-0.33-0.434-0.817-0.649-1.462-0.649
		c-0.637,0-1.117,0.213-1.441,0.64C68.266,272.59,68.104,273.227,68.104,274.073z"/>
	<path fill="#999999" d="M82.887,277.36v-4.269c0-0.523-0.109-0.915-0.328-1.177s-0.559-0.392-1.02-0.392
		c-0.605,0-1.053,0.177-1.342,0.532s-0.434,0.902-0.434,1.641v3.664h-0.973v-4.269c0-0.523-0.109-0.915-0.328-1.177
		s-0.561-0.392-1.025-0.392c-0.609,0-1.056,0.187-1.339,0.56s-0.425,0.984-0.425,1.835v3.442h-0.973v-6.562h0.791l0.158,0.897h0.047
		c0.184-0.319,0.442-0.568,0.776-0.748s0.708-0.27,1.122-0.27c1.004,0,1.66,0.371,1.969,1.113h0.047
		c0.191-0.343,0.469-0.614,0.832-0.813c0.363-0.2,0.777-0.3,1.242-0.3c0.727,0,1.271,0.19,1.632,0.572
		c0.361,0.381,0.542,0.99,0.542,1.829v4.28H82.887z"/>
	<path fill="#999999" d="M88.852,277.48c-0.418,0-0.8-0.079-1.146-0.237c-0.346-0.157-0.636-0.399-0.87-0.727h-0.07
		c0.047,0.383,0.07,0.746,0.07,1.089v2.7h-0.973v-9.507h0.791l0.135,0.897h0.047c0.25-0.359,0.541-0.618,0.873-0.778
		c0.332-0.159,0.713-0.239,1.143-0.239c0.852,0,1.509,0.298,1.972,0.893s0.694,1.429,0.694,2.502c0,1.078-0.235,1.915-0.706,2.512
		S89.688,277.48,88.852,277.48z M88.711,271.523c-0.656,0-1.131,0.186-1.424,0.557s-0.443,0.962-0.451,1.771v0.222
		c0,0.922,0.15,1.582,0.451,1.979c0.301,0.397,0.783,0.596,1.447,0.596c0.555,0,0.989-0.229,1.304-0.688s0.472-1.091,0.472-1.897
		c0-0.818-0.157-1.446-0.472-1.883C89.724,271.741,89.281,271.523,88.711,271.523z"/>
	<path fill="#999999" d="M94.131,270.798v4.257c0,0.534,0.119,0.934,0.357,1.197s0.611,0.395,1.119,0.395
		c0.672,0,1.163-0.188,1.474-0.562s0.466-0.987,0.466-1.838v-3.448h0.973v6.562h-0.803l-0.141-0.88h-0.053
		c-0.199,0.323-0.476,0.57-0.829,0.742s-0.757,0.258-1.21,0.258c-0.781,0-1.366-0.189-1.755-0.569
		c-0.389-0.379-0.583-0.985-0.583-1.82v-4.292H94.131z"/>
	<path fill="#999999" d="M102.656,276.66c0.172,0,0.338-0.014,0.498-0.039c0.16-0.026,0.287-0.053,0.381-0.081v0.761
		c-0.105,0.052-0.261,0.095-0.466,0.129c-0.205,0.033-0.39,0.051-0.554,0.051c-1.242,0-1.863-0.669-1.863-2.006v-3.903h-0.92v-0.479
		l0.92-0.413l0.41-1.401h0.562v1.521h1.863v0.772h-1.863v3.861c0,0.396,0.092,0.698,0.275,0.91
		C102.084,276.553,102.336,276.66,102.656,276.66z"/>
	<path fill="#999999" d="M107.531,277.48c-0.949,0-1.698-0.296-2.247-0.887s-0.823-1.41-0.823-2.46c0-1.059,0.255-1.898,0.765-2.521
		c0.51-0.622,1.194-0.934,2.054-0.934c0.805,0,1.441,0.271,1.91,0.812s0.703,1.254,0.703,2.141v0.628h-4.424
		c0.02,0.771,0.21,1.355,0.571,1.755c0.361,0.398,0.87,0.599,1.526,0.599c0.691,0,1.375-0.148,2.051-0.443v0.886
		c-0.344,0.152-0.669,0.261-0.976,0.326C108.335,277.447,107.965,277.48,107.531,277.48z M107.268,271.51
		c-0.516,0-0.927,0.172-1.233,0.515c-0.307,0.344-0.487,0.818-0.542,1.426h3.357c0-0.627-0.137-1.107-0.41-1.44
		S107.775,271.51,107.268,271.51z"/>
	<path fill="#999999" d="M47.396,294.348h-1.271v2.012h-0.932v-2.012h-4.166v-0.868l4.066-5.921h1.031v5.885h1.271V294.348z
		 M45.193,293.444v-2.909c0-0.571,0.02-1.216,0.059-1.934h-0.047c-0.188,0.383-0.363,0.7-0.527,0.951L42,293.444H45.193z"/>
	<path fill="#999999" d="M51.059,287.481c0.781,0,1.4,0.186,1.857,0.557s0.686,0.885,0.686,1.539c0,0.431-0.131,0.824-0.393,1.18
		c-0.262,0.354-0.68,0.678-1.254,0.97c0.695,0.339,1.189,0.695,1.482,1.068s0.439,0.806,0.439,1.296
		c0,0.727-0.248,1.307-0.744,1.739c-0.496,0.434-1.176,0.65-2.039,0.65c-0.914,0-1.617-0.205-2.109-0.614s-0.738-0.988-0.738-1.739
		c0-1.002,0.598-1.782,1.793-2.341c-0.539-0.312-0.926-0.647-1.16-1.009s-0.352-0.766-0.352-1.212c0-0.635,0.229-1.141,0.688-1.519
		C49.675,287.669,50.289,287.481,51.059,287.481z M49.207,294.151c0,0.479,0.163,0.852,0.489,1.119s0.784,0.401,1.374,0.401
		c0.582,0,1.035-0.14,1.359-0.419s0.486-0.663,0.486-1.149c0-0.388-0.152-0.731-0.457-1.033c-0.305-0.301-0.836-0.594-1.594-0.877
		c-0.582,0.256-1.004,0.538-1.266,0.847C49.338,293.349,49.207,293.719,49.207,294.151z M51.047,288.29
		c-0.488,0-0.871,0.119-1.148,0.359c-0.277,0.239-0.416,0.559-0.416,0.957c0,0.368,0.115,0.683,0.346,0.946s0.656,0.527,1.277,0.79
		c0.559-0.239,0.954-0.496,1.187-0.771s0.349-0.597,0.349-0.965c0-0.402-0.142-0.723-0.425-0.96
		C51.933,288.408,51.543,288.29,51.047,288.29z"/>
	<path fill="#999999" d="M61.43,296.36h-0.996v-7.849h-2.713v-0.904h6.422v0.904H61.43V296.36z"/>
	<path fill="#999999" d="M65.432,287.607h2.42c1.137,0,1.959,0.174,2.467,0.521c0.508,0.348,0.762,0.896,0.762,1.646
		c0,0.52-0.142,0.947-0.425,1.284c-0.283,0.338-0.696,0.556-1.239,0.656v0.06c1.301,0.228,1.951,0.926,1.951,2.096
		c0,0.782-0.259,1.393-0.776,1.832c-0.518,0.438-1.241,0.658-2.171,0.658h-2.988V287.607z M66.428,291.355h1.641
		c0.703,0,1.209-0.113,1.518-0.339s0.463-0.605,0.463-1.141c0-0.49-0.172-0.845-0.516-1.062s-0.891-0.326-1.641-0.326h-1.465
		V291.355z M66.428,292.217v3.274h1.787c0.691,0,1.212-0.137,1.562-0.41s0.524-0.701,0.524-1.284c0-0.543-0.179-0.942-0.536-1.197
		c-0.357-0.256-0.901-0.383-1.632-0.383H66.428z"/>
	<path fill="#999999" d="M77.203,294.57c0,0.61-0.223,1.082-0.668,1.413s-1.07,0.497-1.875,0.497c-0.852,0-1.516-0.138-1.992-0.413
		v-0.923c0.309,0.16,0.64,0.286,0.993,0.378s0.694,0.138,1.022,0.138c0.508,0,0.898-0.083,1.172-0.249
		c0.273-0.165,0.41-0.418,0.41-0.757c0-0.256-0.108-0.475-0.325-0.656s-0.64-0.396-1.269-0.644
		c-0.598-0.228-1.022-0.426-1.274-0.596c-0.252-0.169-0.439-0.362-0.562-0.577c-0.123-0.216-0.185-0.474-0.185-0.772
		c0-0.535,0.213-0.957,0.639-1.267c0.426-0.309,1.01-0.464,1.752-0.464c0.691,0,1.367,0.144,2.027,0.431l-0.346,0.809
		c-0.645-0.271-1.229-0.407-1.752-0.407c-0.461,0-0.809,0.074-1.043,0.222s-0.352,0.352-0.352,0.61c0,0.176,0.044,0.326,0.132,0.449
		c0.088,0.124,0.229,0.242,0.425,0.354s0.57,0.273,1.125,0.485c0.762,0.283,1.276,0.568,1.544,0.855
		C77.069,293.774,77.203,294.134,77.203,294.57z"/>
	<path fill="#999999" d="M84.891,289.69c0.844,0,1.499,0.295,1.966,0.884s0.7,1.422,0.7,2.499c0,1.078-0.235,1.915-0.706,2.512
		s-1.124,0.896-1.96,0.896c-0.418,0-0.8-0.079-1.146-0.237c-0.346-0.157-0.636-0.399-0.87-0.727h-0.07L82.6,296.36h-0.697v-9.315
		h0.973v2.263c0,0.507-0.016,0.962-0.047,1.365h0.047C83.328,290.018,84,289.69,84.891,289.69z M84.75,290.523
		c-0.664,0-1.143,0.194-1.436,0.583c-0.293,0.39-0.439,1.045-0.439,1.967s0.15,1.582,0.451,1.979
		c0.301,0.397,0.783,0.596,1.447,0.596c0.598,0,1.043-0.222,1.336-0.667s0.439-1.085,0.439-1.919c0-0.854-0.146-1.491-0.439-1.91
		S85.363,290.523,84.75,290.523z"/>
	<path fill="#999999" d="M90.229,296.36h-0.973v-9.315h0.973V296.36z"/>
	<path fill="#999999" d="M97.834,293.073c0,1.07-0.264,1.905-0.791,2.506s-1.256,0.901-2.186,0.901
		c-0.574,0-1.084-0.138-1.529-0.413s-0.789-0.671-1.031-1.186c-0.242-0.516-0.363-1.118-0.363-1.809
		c0-1.069,0.262-1.902,0.785-2.499s1.25-0.896,2.18-0.896c0.898,0,1.612,0.306,2.142,0.916S97.834,292.031,97.834,293.073z
		 M92.941,293.073c0,0.839,0.164,1.477,0.492,1.916s0.811,0.658,1.447,0.658s1.12-0.218,1.45-0.655
		c0.33-0.437,0.495-1.076,0.495-1.919c0-0.834-0.165-1.468-0.495-1.9c-0.33-0.434-0.817-0.649-1.462-0.649
		c-0.637,0-1.117,0.213-1.441,0.64C93.104,291.59,92.941,292.227,92.941,293.073z"/>
	<path fill="#999999" d="M102.105,296.48c-0.93,0-1.649-0.293-2.159-0.878c-0.51-0.584-0.765-1.411-0.765-2.481
		c0-1.098,0.259-1.945,0.776-2.544s1.255-0.898,2.212-0.898c0.309,0,0.617,0.034,0.926,0.102c0.309,0.068,0.551,0.148,0.727,0.24
		l-0.299,0.844c-0.215-0.088-0.449-0.161-0.703-0.219s-0.479-0.087-0.674-0.087c-1.305,0-1.957,0.851-1.957,2.551
		c0,0.807,0.159,1.425,0.478,1.856c0.318,0.431,0.79,0.646,1.415,0.646c0.535,0,1.084-0.118,1.646-0.354v0.88
		C103.299,296.366,102.758,296.48,102.105,296.48z"/>
	<path fill="#999999" d="M106.213,293.001c0.168-0.244,0.424-0.563,0.768-0.958l2.074-2.245h1.154l-2.602,2.796l2.783,3.766h-1.178
		l-2.268-3.102l-0.732,0.646v2.455h-0.961v-9.315h0.961v4.938c0,0.22-0.016,0.56-0.047,1.019H106.213z"/>
	<path fill="#999999" d="M37.775,315.36l3.551-7.837h-4.67v-0.916h5.701v0.796l-3.504,7.957H37.775z"/>
	<path fill="#999999" d="M49.184,315.36h-5.631v-0.856l2.256-2.316c0.688-0.711,1.141-1.218,1.359-1.521
		c0.219-0.303,0.383-0.599,0.492-0.886s0.164-0.597,0.164-0.928c0-0.467-0.139-0.837-0.416-1.11s-0.662-0.41-1.154-0.41
		c-0.355,0-0.692,0.06-1.011,0.18c-0.318,0.119-0.673,0.337-1.063,0.652l-0.516-0.677c0.789-0.671,1.648-1.006,2.578-1.006
		c0.805,0,1.436,0.211,1.893,0.632s0.686,0.986,0.686,1.697c0,0.555-0.152,1.104-0.457,1.646s-0.875,1.229-1.711,2.06l-1.875,1.874
		v0.048h4.406V315.36z"/>
	<path fill="#999999" d="M56.76,315.36h-0.996v-7.849h-2.713v-0.904h6.422v0.904H56.76V315.36z"/>
	<path fill="#999999" d="M60.762,306.607h2.42c1.137,0,1.959,0.174,2.467,0.521c0.508,0.348,0.762,0.896,0.762,1.646
		c0,0.52-0.142,0.947-0.425,1.284c-0.283,0.338-0.696,0.556-1.239,0.656v0.06c1.301,0.228,1.951,0.926,1.951,2.096
		c0,0.782-0.259,1.393-0.776,1.832c-0.518,0.438-1.241,0.658-2.171,0.658h-2.988V306.607z M61.758,310.355h1.641
		c0.703,0,1.209-0.113,1.518-0.339s0.463-0.605,0.463-1.141c0-0.49-0.172-0.845-0.516-1.062s-0.891-0.326-1.641-0.326h-1.465
		V310.355z M61.758,311.217v3.274h1.787c0.691,0,1.212-0.137,1.562-0.41s0.524-0.701,0.524-1.284c0-0.543-0.179-0.942-0.536-1.197
		c-0.357-0.256-0.901-0.383-1.632-0.383H61.758z"/>
	<path fill="#999999" d="M72.533,313.57c0,0.61-0.223,1.082-0.668,1.413s-1.07,0.497-1.875,0.497c-0.852,0-1.516-0.138-1.992-0.413
		v-0.923c0.309,0.16,0.64,0.286,0.993,0.378s0.694,0.138,1.022,0.138c0.508,0,0.898-0.083,1.172-0.249
		c0.273-0.165,0.41-0.418,0.41-0.757c0-0.256-0.108-0.475-0.325-0.656s-0.64-0.396-1.269-0.644
		c-0.598-0.228-1.022-0.426-1.274-0.596c-0.252-0.169-0.439-0.362-0.562-0.577c-0.123-0.216-0.185-0.474-0.185-0.772
		c0-0.535,0.213-0.957,0.639-1.267c0.426-0.309,1.01-0.464,1.752-0.464c0.691,0,1.367,0.144,2.027,0.431l-0.346,0.809
		c-0.645-0.271-1.229-0.407-1.752-0.407c-0.461,0-0.809,0.074-1.043,0.222s-0.352,0.352-0.352,0.61c0,0.176,0.044,0.326,0.132,0.449
		c0.088,0.124,0.229,0.242,0.425,0.354s0.57,0.273,1.125,0.485c0.762,0.283,1.276,0.568,1.544,0.855
		C72.399,312.774,72.533,313.134,72.533,313.57z"/>
	<path fill="#999999" d="M82.775,312.073c0,1.07-0.264,1.905-0.791,2.506s-1.256,0.901-2.186,0.901
		c-0.574,0-1.084-0.138-1.529-0.413s-0.789-0.671-1.031-1.186c-0.242-0.516-0.363-1.118-0.363-1.809
		c0-1.069,0.262-1.902,0.785-2.499s1.25-0.896,2.18-0.896c0.898,0,1.612,0.306,2.142,0.916S82.775,311.031,82.775,312.073z
		 M77.883,312.073c0,0.839,0.164,1.477,0.492,1.916s0.811,0.658,1.447,0.658s1.12-0.218,1.45-0.655
		c0.33-0.437,0.495-1.076,0.495-1.919c0-0.834-0.165-1.468-0.495-1.9c-0.33-0.434-0.817-0.649-1.462-0.649
		c-0.637,0-1.117,0.213-1.441,0.64C78.045,310.59,77.883,311.227,77.883,312.073z"/>
	<path fill="#999999" d="M87.469,308.69c0.844,0,1.499,0.295,1.966,0.884s0.7,1.422,0.7,2.499c0,1.078-0.235,1.915-0.706,2.512
		s-1.124,0.896-1.96,0.896c-0.418,0-0.8-0.079-1.146-0.237c-0.346-0.157-0.636-0.399-0.87-0.727h-0.07l-0.205,0.844H84.48v-9.315
		h0.973v2.263c0,0.507-0.016,0.962-0.047,1.365h0.047C85.906,309.018,86.578,308.69,87.469,308.69z M87.328,309.523
		c-0.664,0-1.143,0.194-1.436,0.583c-0.293,0.39-0.439,1.045-0.439,1.967s0.15,1.582,0.451,1.979
		c0.301,0.397,0.783,0.596,1.447,0.596c0.598,0,1.043-0.222,1.336-0.667s0.439-1.085,0.439-1.919c0-0.854-0.146-1.491-0.439-1.91
		S87.941,309.523,87.328,309.523z"/>
	<path fill="#999999" d="M91.055,318.305c-0.371,0-0.672-0.05-0.902-0.149v-0.809c0.27,0.08,0.535,0.12,0.797,0.12
		c0.305,0,0.528-0.085,0.671-0.255c0.143-0.169,0.214-0.428,0.214-0.774v-7.64h0.973v7.567
		C92.807,317.659,92.223,318.305,91.055,318.305z M91.752,307.02c0-0.228,0.055-0.395,0.164-0.5s0.246-0.159,0.41-0.159
		c0.156,0,0.291,0.055,0.404,0.162s0.17,0.273,0.17,0.497s-0.057,0.39-0.17,0.5c-0.113,0.109-0.248,0.164-0.404,0.164
		c-0.164,0-0.301-0.055-0.41-0.164C91.807,307.41,91.752,307.244,91.752,307.02z"/>
	<path fill="#999999" d="M97.582,315.48c-0.949,0-1.698-0.296-2.247-0.887s-0.823-1.41-0.823-2.46c0-1.059,0.255-1.898,0.765-2.521
		c0.51-0.622,1.194-0.934,2.054-0.934c0.805,0,1.441,0.271,1.91,0.812s0.703,1.254,0.703,2.141v0.628H95.52
		c0.02,0.771,0.21,1.355,0.571,1.755c0.361,0.398,0.87,0.599,1.526,0.599c0.691,0,1.375-0.148,2.051-0.443v0.886
		c-0.344,0.152-0.669,0.261-0.976,0.326C98.386,315.447,98.016,315.48,97.582,315.48z M97.318,309.51
		c-0.516,0-0.927,0.172-1.233,0.515c-0.307,0.344-0.487,0.818-0.542,1.426H98.9c0-0.627-0.137-1.107-0.41-1.44
		S97.826,309.51,97.318,309.51z"/>
	<path fill="#999999" d="M104.168,315.48c-0.93,0-1.649-0.293-2.159-0.878c-0.51-0.584-0.765-1.411-0.765-2.481
		c0-1.098,0.259-1.945,0.776-2.544s1.255-0.898,2.212-0.898c0.309,0,0.617,0.034,0.926,0.102c0.309,0.068,0.551,0.148,0.727,0.24
		l-0.299,0.844c-0.215-0.088-0.449-0.161-0.703-0.219s-0.479-0.087-0.674-0.087c-1.305,0-1.957,0.851-1.957,2.551
		c0,0.807,0.159,1.425,0.478,1.856c0.318,0.431,0.79,0.646,1.415,0.646c0.535,0,1.084-0.118,1.646-0.354v0.88
		C105.361,315.366,104.82,315.48,104.168,315.48z"/>
	<path fill="#999999" d="M109.389,314.66c0.172,0,0.338-0.014,0.498-0.039c0.16-0.026,0.287-0.053,0.381-0.081v0.761
		c-0.105,0.052-0.261,0.095-0.466,0.129c-0.205,0.033-0.39,0.051-0.554,0.051c-1.242,0-1.863-0.669-1.863-2.006v-3.903h-0.92v-0.479
		l0.92-0.413l0.41-1.401h0.562v1.521h1.863v0.772h-1.863v3.861c0,0.396,0.092,0.698,0.275,0.91
		C108.816,314.553,109.068,314.66,109.389,314.66z"/>
</g>
<g>
	<path fill="#999999" d="M196.375,210.11l3.551-7.837h-4.67v-0.916h5.701v0.796l-3.504,7.957H196.375z"/>
	<path fill="#999999" d="M208.645,203.428c0.285,0,0.541,0.024,0.768,0.072l-0.135,0.922c-0.266-0.061-0.5-0.09-0.703-0.09
		c-0.52,0-0.965,0.216-1.334,0.646s-0.553,0.968-0.553,1.61v3.521h-0.973v-6.562h0.803l0.111,1.215h0.047
		c0.238-0.427,0.525-0.756,0.861-0.987S208.242,203.428,208.645,203.428z"/>
	<path fill="#999999" d="M214.562,210.11l-0.193-0.934h-0.047c-0.32,0.411-0.641,0.689-0.959,0.835s-0.715,0.219-1.191,0.219
		c-0.637,0-1.137-0.168-1.498-0.503c-0.361-0.336-0.541-0.812-0.541-1.432c0-1.325,1.037-2.02,3.111-2.083l1.09-0.036v-0.407
		c0-0.515-0.109-0.895-0.326-1.141c-0.217-0.245-0.562-0.368-1.039-0.368c-0.535,0-1.141,0.168-1.816,0.503l-0.299-0.76
		c0.316-0.176,0.662-0.313,1.039-0.413c0.377-0.101,0.756-0.15,1.135-0.15c0.766,0,1.332,0.174,1.701,0.521
		c0.369,0.347,0.555,0.903,0.555,1.67v4.479H214.562z M212.365,209.41c0.605,0,1.08-0.17,1.426-0.509
		c0.346-0.34,0.52-0.814,0.52-1.426v-0.592l-0.973,0.041c-0.773,0.028-1.332,0.151-1.674,0.368
		c-0.342,0.218-0.512,0.557-0.512,1.016c0,0.358,0.105,0.632,0.318,0.82C211.684,209.316,211.982,209.41,212.365,209.41z"/>
	<path fill="#999999" d="M219.854,210.23c-0.93,0-1.65-0.293-2.16-0.878c-0.51-0.584-0.764-1.411-0.764-2.481
		c0-1.098,0.258-1.945,0.775-2.544s1.256-0.898,2.213-0.898c0.309,0,0.617,0.034,0.926,0.102c0.309,0.068,0.551,0.148,0.727,0.24
		l-0.299,0.844c-0.215-0.088-0.449-0.161-0.703-0.219s-0.479-0.087-0.674-0.087c-1.305,0-1.957,0.851-1.957,2.551
		c0,0.807,0.158,1.425,0.477,1.856c0.318,0.431,0.791,0.646,1.416,0.646c0.535,0,1.084-0.118,1.646-0.354v0.88
		C221.047,210.116,220.506,210.23,219.854,210.23z"/>
	<path fill="#999999" d="M223.961,206.751c0.168-0.244,0.424-0.563,0.768-0.958l2.074-2.245h1.154l-2.602,2.796l2.783,3.766h-1.178
		l-2.268-3.102l-0.732,0.646v2.455H223v-9.316h0.961v4.939c0,0.22-0.016,0.56-0.047,1.019H223.961z"/>
	<path fill="#999999" d="M233.441,208.32c0,0.61-0.223,1.082-0.668,1.413s-1.07,0.497-1.875,0.497c-0.852,0-1.516-0.138-1.992-0.413
		v-0.923c0.309,0.16,0.639,0.286,0.992,0.378s0.695,0.138,1.023,0.138c0.508,0,0.898-0.083,1.172-0.249
		c0.273-0.165,0.41-0.418,0.41-0.757c0-0.256-0.109-0.475-0.326-0.656s-0.639-0.396-1.268-0.644
		c-0.598-0.228-1.023-0.426-1.275-0.596c-0.252-0.169-0.439-0.362-0.562-0.577c-0.123-0.216-0.184-0.474-0.184-0.772
		c0-0.535,0.213-0.957,0.639-1.267c0.426-0.309,1.01-0.464,1.752-0.464c0.691,0,1.367,0.144,2.027,0.431l-0.346,0.809
		c-0.645-0.271-1.229-0.407-1.752-0.407c-0.461,0-0.809,0.074-1.043,0.222s-0.352,0.352-0.352,0.61c0,0.176,0.043,0.326,0.131,0.449
		c0.088,0.124,0.23,0.242,0.426,0.354s0.57,0.273,1.125,0.485c0.762,0.283,1.275,0.568,1.543,0.855
		C233.307,207.524,233.441,207.884,233.441,208.32z"/>
	<path fill="#999999" d="M168.027,225.368c0-1.72,0.327-3.006,0.981-3.858s1.622-1.278,2.903-1.278c0.441,0,0.789,0.038,1.043,0.114
		v0.855c-0.301-0.1-0.645-0.149-1.031-0.149c-0.918,0-1.619,0.292-2.104,0.877s-0.75,1.504-0.797,2.757h0.07
		c0.43-0.687,1.109-1.029,2.039-1.029c0.77,0,1.376,0.237,1.819,0.712c0.443,0.476,0.665,1.12,0.665,1.935
		c0,0.91-0.243,1.625-0.729,2.146c-0.486,0.521-1.144,0.781-1.972,0.781c-0.887,0-1.59-0.341-2.109-1.021
		C168.287,227.529,168.027,226.582,168.027,225.368z M170.904,228.385c0.555,0,0.985-0.179,1.292-0.536
		c0.307-0.356,0.46-0.873,0.46-1.547c0-0.579-0.143-1.034-0.428-1.365s-0.711-0.497-1.277-0.497c-0.352,0-0.674,0.074-0.967,0.222
		s-0.526,0.352-0.7,0.61c-0.174,0.26-0.261,0.529-0.261,0.809c0,0.411,0.078,0.794,0.234,1.149s0.378,0.637,0.665,0.844
		C170.209,228.282,170.537,228.385,170.904,228.385z"/>
	<path fill="#999999" d="M180.824,227.098h-1.271v2.012h-0.932v-2.012h-4.166v-0.868l4.066-5.921h1.031v5.885h1.271V227.098z
		 M178.621,226.194v-2.909c0-0.571,0.02-1.216,0.059-1.934h-0.047c-0.188,0.383-0.363,0.7-0.527,0.951l-2.678,3.892H178.621z"/>
	<path fill="#999999" d="M187.779,229.23c-0.93,0-1.65-0.293-2.16-0.878c-0.51-0.584-0.765-1.411-0.765-2.481
		c0-1.098,0.259-1.945,0.776-2.544c0.517-0.599,1.255-0.898,2.212-0.898c0.309,0,0.617,0.034,0.926,0.102
		c0.309,0.068,0.551,0.148,0.727,0.24l-0.299,0.844c-0.215-0.088-0.449-0.161-0.703-0.219s-0.479-0.087-0.674-0.087
		c-1.305,0-1.958,0.851-1.958,2.551c0,0.807,0.159,1.425,0.477,1.856c0.318,0.431,0.791,0.646,1.416,0.646
		c0.535,0,1.084-0.118,1.646-0.354v0.88C188.973,229.116,188.432,229.23,187.779,229.23z"/>
	<path fill="#999999" d="M196.469,225.823c0,1.07-0.264,1.905-0.791,2.506s-1.256,0.901-2.186,0.901
		c-0.574,0-1.084-0.138-1.529-0.413s-0.789-0.671-1.031-1.186c-0.242-0.516-0.363-1.118-0.363-1.809
		c0-1.069,0.262-1.902,0.785-2.499s1.25-0.896,2.18-0.896c0.898,0,1.611,0.306,2.141,0.916S196.469,224.781,196.469,225.823z
		 M191.576,225.823c0,0.839,0.164,1.477,0.492,1.916s0.811,0.658,1.447,0.658s1.119-0.218,1.449-0.655
		c0.33-0.437,0.496-1.076,0.496-1.919c0-0.834-0.166-1.468-0.496-1.9c-0.33-0.434-0.816-0.649-1.461-0.649
		c-0.637,0-1.117,0.213-1.441,0.64C191.738,224.34,191.576,224.977,191.576,225.823z"/>
	<path fill="#999999" d="M206.359,229.11v-4.269c0-0.523-0.109-0.915-0.328-1.177s-0.559-0.392-1.02-0.392
		c-0.605,0-1.053,0.177-1.342,0.532s-0.434,0.902-0.434,1.641v3.664h-0.973v-4.269c0-0.523-0.109-0.915-0.328-1.177
		s-0.561-0.392-1.025-0.392c-0.609,0-1.057,0.187-1.34,0.56s-0.424,0.984-0.424,1.835v3.442h-0.973v-6.562h0.791l0.158,0.897h0.047
		c0.184-0.319,0.441-0.568,0.775-0.748s0.709-0.27,1.123-0.27c1.004,0,1.66,0.371,1.969,1.113h0.047
		c0.191-0.343,0.469-0.614,0.832-0.813c0.363-0.2,0.777-0.3,1.242-0.3c0.727,0,1.27,0.19,1.631,0.572
		c0.361,0.381,0.543,0.99,0.543,1.829v4.28H206.359z"/>
	<path fill="#999999" d="M212.324,229.23c-0.418,0-0.801-0.079-1.146-0.237c-0.346-0.157-0.635-0.399-0.869-0.727h-0.07
		c0.047,0.383,0.07,0.746,0.07,1.089v2.7h-0.973v-9.507h0.791l0.135,0.897h0.047c0.25-0.359,0.541-0.618,0.873-0.778
		c0.332-0.159,0.713-0.239,1.143-0.239c0.852,0,1.508,0.298,1.971,0.893s0.695,1.429,0.695,2.502c0,1.078-0.236,1.915-0.707,2.512
		S213.16,229.23,212.324,229.23z M212.184,223.273c-0.656,0-1.131,0.186-1.424,0.557s-0.443,0.962-0.451,1.771v0.222
		c0,0.922,0.15,1.582,0.451,1.979c0.301,0.397,0.783,0.596,1.447,0.596c0.555,0,0.988-0.229,1.303-0.688s0.473-1.091,0.473-1.897
		c0-0.818-0.158-1.446-0.473-1.883C213.195,223.491,212.754,223.273,212.184,223.273z"/>
	<path fill="#999999" d="M217.604,222.548v4.257c0,0.534,0.119,0.934,0.357,1.197s0.611,0.395,1.119,0.395
		c0.672,0,1.162-0.188,1.473-0.562s0.467-0.987,0.467-1.838v-3.448h0.973v6.562h-0.803l-0.141-0.88h-0.053
		c-0.199,0.323-0.477,0.57-0.83,0.742s-0.756,0.258-1.209,0.258c-0.781,0-1.367-0.189-1.756-0.569
		c-0.389-0.379-0.582-0.985-0.582-1.82v-4.292H217.604z"/>
	<path fill="#999999" d="M226.129,228.41c0.172,0,0.338-0.014,0.498-0.039c0.16-0.026,0.287-0.053,0.381-0.081v0.761
		c-0.105,0.052-0.262,0.095-0.467,0.129c-0.205,0.033-0.389,0.051-0.553,0.051c-1.242,0-1.863-0.669-1.863-2.006v-3.903h-0.92
		v-0.479l0.92-0.413l0.41-1.401h0.562v1.521h1.863v0.772h-1.863v3.861c0,0.396,0.092,0.698,0.275,0.91
		C225.557,228.303,225.809,228.41,226.129,228.41z"/>
	<path fill="#999999" d="M231.004,229.23c-0.949,0-1.699-0.296-2.248-0.887s-0.822-1.41-0.822-2.46c0-1.059,0.254-1.898,0.764-2.521
		c0.51-0.622,1.195-0.934,2.055-0.934c0.805,0,1.441,0.271,1.91,0.812s0.703,1.254,0.703,2.141v0.628h-4.424
		c0.02,0.771,0.209,1.355,0.57,1.755c0.361,0.398,0.871,0.599,1.527,0.599c0.691,0,1.375-0.148,2.051-0.443v0.886
		c-0.344,0.152-0.67,0.261-0.977,0.326C231.807,229.197,231.438,229.23,231.004,229.23z M230.74,223.26
		c-0.516,0-0.928,0.172-1.234,0.515c-0.307,0.344-0.486,0.818-0.541,1.426h3.357c0-0.627-0.137-1.107-0.41-1.44
		S231.248,223.26,230.74,223.26z"/>
	<path fill="#999999" d="M161.576,248.11h-0.949v-6.238c0-0.52,0.016-1.01,0.047-1.473c-0.082,0.083-0.174,0.171-0.275,0.263
		s-0.566,0.481-1.395,1.168l-0.516-0.683l2.268-1.79h0.82V248.11z"/>
	<path fill="#999999" d="M167.669,239.231c0.781,0,1.4,0.186,1.857,0.557s0.686,0.885,0.686,1.539c0,0.431-0.131,0.824-0.393,1.18
		c-0.262,0.354-0.68,0.678-1.254,0.97c0.695,0.339,1.189,0.695,1.482,1.068s0.439,0.806,0.439,1.296
		c0,0.727-0.248,1.307-0.744,1.739c-0.496,0.434-1.176,0.65-2.039,0.65c-0.914,0-1.617-0.205-2.109-0.614s-0.738-0.988-0.738-1.739
		c0-1.002,0.598-1.782,1.793-2.341c-0.539-0.312-0.926-0.647-1.16-1.009s-0.352-0.766-0.352-1.212c0-0.635,0.229-1.141,0.688-1.519
		C166.286,239.419,166.9,239.231,167.669,239.231z M165.818,245.901c0,0.479,0.163,0.852,0.489,1.119s0.784,0.401,1.374,0.401
		c0.582,0,1.035-0.14,1.359-0.419s0.486-0.663,0.486-1.149c0-0.388-0.152-0.731-0.457-1.033c-0.305-0.301-0.836-0.594-1.594-0.877
		c-0.582,0.256-1.004,0.538-1.266,0.847C165.949,245.099,165.818,245.469,165.818,245.901z M167.658,240.04
		c-0.488,0-0.871,0.119-1.148,0.359c-0.277,0.239-0.416,0.559-0.416,0.957c0,0.368,0.115,0.683,0.346,0.946s0.656,0.527,1.277,0.79
		c0.559-0.239,0.954-0.496,1.187-0.771s0.349-0.597,0.349-0.965c0-0.402-0.142-0.723-0.425-0.96
		C168.543,240.158,168.154,240.04,167.658,240.04z"/>
	<path fill="#999999" d="M175.298,248.11h-0.949v-6.238c0-0.52,0.016-1.01,0.047-1.473c-0.082,0.083-0.174,0.171-0.275,0.263
		s-0.566,0.481-1.395,1.168l-0.516-0.683l2.268-1.79h0.82V248.11z"/>
	<path fill="#999999" d="M184.902,248.11h-0.996v-7.849h-2.713v-0.904h6.422v0.904h-2.713V248.11z"/>
	<path fill="#999999" d="M188.904,239.357h2.42c1.137,0,1.959,0.174,2.467,0.521c0.508,0.348,0.762,0.896,0.762,1.646
		c0,0.52-0.143,0.947-0.426,1.284c-0.283,0.338-0.695,0.556-1.238,0.656v0.06c1.301,0.228,1.951,0.926,1.951,2.096
		c0,0.782-0.26,1.393-0.777,1.832c-0.518,0.438-1.24,0.658-2.17,0.658h-2.988V239.357z M189.9,243.105h1.641
		c0.703,0,1.209-0.113,1.518-0.339s0.463-0.605,0.463-1.141c0-0.49-0.172-0.845-0.516-1.062s-0.891-0.326-1.641-0.326H189.9V243.105
		z M189.9,243.967v3.274h1.787c0.691,0,1.211-0.137,1.561-0.41s0.525-0.701,0.525-1.284c0-0.543-0.18-0.942-0.537-1.197
		c-0.357-0.256-0.9-0.383-1.631-0.383H189.9z"/>
	<path fill="#999999" d="M200.676,246.32c0,0.61-0.223,1.082-0.668,1.413s-1.07,0.497-1.875,0.497c-0.852,0-1.516-0.138-1.992-0.413
		v-0.923c0.309,0.16,0.639,0.286,0.992,0.378s0.695,0.138,1.023,0.138c0.508,0,0.898-0.083,1.172-0.249
		c0.273-0.165,0.41-0.418,0.41-0.757c0-0.256-0.109-0.475-0.326-0.656s-0.639-0.396-1.268-0.644
		c-0.598-0.228-1.023-0.426-1.275-0.596c-0.252-0.169-0.439-0.362-0.562-0.577c-0.123-0.216-0.184-0.474-0.184-0.772
		c0-0.535,0.213-0.957,0.639-1.267c0.426-0.309,1.01-0.464,1.752-0.464c0.691,0,1.367,0.144,2.027,0.431l-0.346,0.809
		c-0.645-0.271-1.229-0.407-1.752-0.407c-0.461,0-0.809,0.074-1.043,0.222s-0.352,0.352-0.352,0.61c0,0.176,0.043,0.326,0.131,0.449
		c0.088,0.124,0.23,0.242,0.426,0.354s0.57,0.273,1.125,0.485c0.762,0.283,1.275,0.568,1.543,0.855
		C200.541,245.524,200.676,245.884,200.676,246.32z"/>
	<path fill="#999999" d="M208.363,241.44c0.844,0,1.498,0.295,1.965,0.884s0.701,1.422,0.701,2.499c0,1.078-0.236,1.915-0.707,2.512
		s-1.123,0.896-1.959,0.896c-0.418,0-0.801-0.079-1.146-0.237c-0.346-0.157-0.635-0.399-0.869-0.727h-0.07l-0.205,0.844h-0.697
		v-9.315h0.973v2.263c0,0.507-0.016,0.962-0.047,1.365h0.047C206.801,241.768,207.473,241.44,208.363,241.44z M208.223,242.273
		c-0.664,0-1.143,0.194-1.436,0.583c-0.293,0.39-0.439,1.045-0.439,1.967s0.15,1.582,0.451,1.979
		c0.301,0.397,0.783,0.596,1.447,0.596c0.598,0,1.043-0.222,1.336-0.667s0.439-1.085,0.439-1.919c0-0.854-0.146-1.491-0.439-1.91
		S208.836,242.273,208.223,242.273z"/>
	<path fill="#999999" d="M213.701,248.11h-0.973v-9.315h0.973V248.11z"/>
	<path fill="#999999" d="M221.307,244.823c0,1.07-0.264,1.905-0.791,2.506s-1.256,0.901-2.186,0.901
		c-0.574,0-1.084-0.138-1.529-0.413s-0.789-0.671-1.031-1.186c-0.242-0.516-0.363-1.118-0.363-1.809
		c0-1.069,0.262-1.902,0.785-2.499s1.25-0.896,2.18-0.896c0.898,0,1.611,0.306,2.141,0.916S221.307,243.781,221.307,244.823z
		 M216.414,244.823c0,0.839,0.164,1.477,0.492,1.916s0.811,0.658,1.447,0.658s1.119-0.218,1.449-0.655
		c0.33-0.437,0.496-1.076,0.496-1.919c0-0.834-0.166-1.468-0.496-1.9c-0.33-0.434-0.816-0.649-1.461-0.649
		c-0.637,0-1.117,0.213-1.441,0.64C216.576,243.34,216.414,243.977,216.414,244.823z"/>
	<path fill="#999999" d="M225.578,248.23c-0.93,0-1.65-0.293-2.16-0.878c-0.51-0.584-0.764-1.411-0.764-2.481
		c0-1.098,0.258-1.945,0.775-2.544s1.256-0.898,2.213-0.898c0.309,0,0.617,0.034,0.926,0.102c0.309,0.068,0.551,0.148,0.727,0.24
		l-0.299,0.844c-0.215-0.088-0.449-0.161-0.703-0.219s-0.479-0.087-0.674-0.087c-1.305,0-1.957,0.851-1.957,2.551
		c0,0.807,0.158,1.425,0.477,1.856c0.318,0.431,0.791,0.646,1.416,0.646c0.535,0,1.084-0.118,1.646-0.354v0.88
		C226.771,248.116,226.23,248.23,225.578,248.23z"/>
	<path fill="#999999" d="M229.686,244.751c0.168-0.244,0.424-0.563,0.768-0.958l2.074-2.245h1.154l-2.602,2.796l2.783,3.766h-1.178
		l-2.268-3.102l-0.732,0.646v2.455h-0.961v-9.315h0.961v4.938c0,0.22-0.016,0.56-0.047,1.019H229.686z"/>
	<path fill="#999999" d="M156.138,258.231c0.781,0,1.4,0.186,1.857,0.557s0.686,0.885,0.686,1.539c0,0.431-0.131,0.824-0.393,1.18
		c-0.262,0.354-0.68,0.678-1.254,0.97c0.695,0.339,1.189,0.695,1.482,1.068s0.439,0.806,0.439,1.296
		c0,0.727-0.248,1.307-0.744,1.739c-0.496,0.434-1.176,0.65-2.039,0.65c-0.914,0-1.617-0.205-2.109-0.614s-0.738-0.988-0.738-1.739
		c0-1.002,0.598-1.782,1.793-2.341c-0.539-0.312-0.926-0.647-1.16-1.009s-0.352-0.766-0.352-1.212c0-0.635,0.229-1.141,0.688-1.519
		C154.754,258.419,155.369,258.231,156.138,258.231z M154.287,264.901c0,0.479,0.163,0.852,0.489,1.119s0.784,0.401,1.374,0.401
		c0.582,0,1.035-0.14,1.359-0.419s0.486-0.663,0.486-1.149c0-0.388-0.152-0.731-0.457-1.033c-0.305-0.301-0.836-0.594-1.594-0.877
		c-0.582,0.256-1.004,0.538-1.266,0.847C154.417,264.099,154.287,264.469,154.287,264.901z M156.126,259.04
		c-0.488,0-0.871,0.119-1.148,0.359c-0.277,0.239-0.416,0.559-0.416,0.957c0,0.368,0.115,0.683,0.346,0.946s0.656,0.527,1.277,0.79
		c0.559-0.239,0.954-0.496,1.187-0.771s0.349-0.597,0.349-0.965c0-0.402-0.142-0.723-0.425-0.96
		C157.012,259.158,156.623,259.04,156.126,259.04z"/>
	<path fill="#999999" d="M162.841,261.763c0.902,0,1.612,0.229,2.13,0.686s0.776,1.083,0.776,1.877c0,0.906-0.282,1.617-0.847,2.132
		s-1.343,0.772-2.335,0.772c-0.965,0-1.701-0.158-2.209-0.474v-0.958c0.273,0.18,0.613,0.32,1.02,0.423
		c0.406,0.102,0.807,0.152,1.201,0.152c0.688,0,1.222-0.166,1.603-0.497s0.571-0.811,0.571-1.437c0-1.222-0.732-1.832-2.197-1.832
		c-0.371,0-0.867,0.058-1.488,0.173l-0.504-0.329l0.322-4.095h4.26v0.916h-3.428l-0.217,2.628
		C161.949,261.809,162.396,261.763,162.841,261.763z"/>
	<path fill="#999999" d="M172.656,262.092c0,3.425-1.297,5.138-3.891,5.138c-0.453,0-0.812-0.04-1.078-0.12v-0.856
		c0.312,0.104,0.668,0.156,1.066,0.156c0.938,0,1.646-0.297,2.124-0.89s0.739-1.501,0.782-2.727h-0.07
		c-0.215,0.331-0.5,0.583-0.855,0.757s-0.756,0.261-1.201,0.261c-0.758,0-1.359-0.231-1.805-0.694s-0.668-1.109-0.668-1.94
		c0-0.909,0.249-1.628,0.747-2.155c0.498-0.526,1.153-0.79,1.966-0.79c0.582,0,1.091,0.152,1.526,0.458s0.771,0.751,1.005,1.335
		C172.539,260.609,172.656,261.298,172.656,262.092z M169.773,259.082c-0.559,0-0.99,0.184-1.295,0.551s-0.457,0.878-0.457,1.532
		c0,0.575,0.141,1.027,0.422,1.356s0.709,0.494,1.283,0.494c0.355,0,0.683-0.074,0.981-0.222s0.534-0.35,0.706-0.604
		c0.172-0.256,0.258-0.523,0.258-0.803c0-0.419-0.08-0.807-0.24-1.161c-0.16-0.355-0.384-0.635-0.671-0.839
		C170.473,259.183,170.144,259.082,169.773,259.082z"/>
	<path fill="#999999" d="M180.232,267.11h-0.996v-7.849h-2.713v-0.904h6.422v0.904h-2.713V267.11z"/>
	<path fill="#999999" d="M184.234,258.357h2.42c1.137,0,1.959,0.174,2.467,0.521c0.508,0.348,0.762,0.896,0.762,1.646
		c0,0.52-0.143,0.947-0.426,1.284c-0.283,0.338-0.695,0.556-1.238,0.656v0.06c1.301,0.228,1.951,0.926,1.951,2.096
		c0,0.782-0.26,1.393-0.777,1.832c-0.518,0.438-1.24,0.658-2.17,0.658h-2.989V258.357z M185.23,262.105h1.641
		c0.703,0,1.209-0.113,1.518-0.339s0.463-0.605,0.463-1.141c0-0.49-0.172-0.845-0.516-1.062s-0.891-0.326-1.641-0.326h-1.465
		V262.105z M185.23,262.967v3.274h1.788c0.691,0,1.211-0.137,1.561-0.41s0.525-0.701,0.525-1.284c0-0.543-0.18-0.942-0.537-1.197
		c-0.357-0.256-0.9-0.383-1.631-0.383H185.23z"/>
	<path fill="#999999" d="M196.006,265.32c0,0.61-0.223,1.082-0.668,1.413s-1.07,0.497-1.875,0.497c-0.852,0-1.516-0.138-1.992-0.413
		v-0.923c0.309,0.16,0.639,0.286,0.992,0.378s0.695,0.138,1.023,0.138c0.508,0,0.898-0.083,1.172-0.249
		c0.273-0.165,0.41-0.418,0.41-0.757c0-0.256-0.109-0.475-0.326-0.656s-0.639-0.396-1.268-0.644
		c-0.598-0.228-1.023-0.426-1.275-0.596c-0.252-0.169-0.439-0.362-0.562-0.577c-0.123-0.216-0.184-0.474-0.184-0.772
		c0-0.535,0.213-0.957,0.639-1.267c0.426-0.309,1.01-0.464,1.752-0.464c0.691,0,1.367,0.144,2.027,0.431l-0.346,0.809
		c-0.645-0.271-1.229-0.407-1.752-0.407c-0.461,0-0.809,0.074-1.043,0.222s-0.352,0.352-0.352,0.61c0,0.176,0.043,0.326,0.131,0.449
		c0.088,0.124,0.23,0.242,0.426,0.354s0.57,0.273,1.125,0.485c0.762,0.283,1.275,0.568,1.543,0.855
		C195.871,264.524,196.006,264.884,196.006,265.32z"/>
	<path fill="#999999" d="M206.248,263.823c0,1.07-0.264,1.905-0.791,2.506s-1.256,0.901-2.186,0.901
		c-0.574,0-1.084-0.138-1.529-0.413s-0.789-0.671-1.031-1.186c-0.242-0.516-0.363-1.118-0.363-1.809
		c0-1.069,0.262-1.902,0.785-2.499s1.25-0.896,2.18-0.896c0.898,0,1.611,0.306,2.141,0.916S206.248,262.781,206.248,263.823z
		 M201.355,263.823c0,0.839,0.164,1.477,0.492,1.916s0.811,0.658,1.447,0.658s1.119-0.218,1.449-0.655
		c0.33-0.437,0.496-1.076,0.496-1.919c0-0.834-0.166-1.468-0.496-1.9c-0.33-0.434-0.816-0.649-1.461-0.649
		c-0.637,0-1.117,0.213-1.441,0.64C201.518,262.34,201.355,262.977,201.355,263.823z"/>
	<path fill="#999999" d="M210.941,260.44c0.844,0,1.498,0.295,1.965,0.884s0.701,1.422,0.701,2.499c0,1.078-0.236,1.915-0.707,2.512
		s-1.123,0.896-1.959,0.896c-0.418,0-0.801-0.079-1.146-0.237c-0.346-0.157-0.635-0.399-0.869-0.727h-0.07l-0.205,0.844h-0.697
		v-9.315h0.973v2.263c0,0.507-0.016,0.962-0.047,1.365h0.047C209.379,260.768,210.051,260.44,210.941,260.44z M210.801,261.273
		c-0.664,0-1.143,0.194-1.436,0.583c-0.293,0.39-0.439,1.045-0.439,1.967s0.15,1.582,0.451,1.979
		c0.301,0.397,0.783,0.596,1.447,0.596c0.598,0,1.043-0.222,1.336-0.667s0.439-1.085,0.439-1.919c0-0.854-0.146-1.491-0.439-1.91
		S211.414,261.273,210.801,261.273z"/>
	<path fill="#999999" d="M214.527,270.055c-0.371,0-0.672-0.05-0.902-0.149v-0.809c0.27,0.08,0.535,0.12,0.797,0.12
		c0.305,0,0.527-0.085,0.67-0.255c0.143-0.169,0.215-0.428,0.215-0.774v-7.64h0.973v7.567
		C216.279,269.409,215.695,270.055,214.527,270.055z M215.225,258.77c0-0.228,0.055-0.395,0.164-0.5s0.246-0.159,0.41-0.159
		c0.156,0,0.291,0.055,0.404,0.162s0.17,0.273,0.17,0.497s-0.057,0.39-0.17,0.5c-0.113,0.109-0.248,0.164-0.404,0.164
		c-0.164,0-0.301-0.055-0.41-0.164C215.279,259.16,215.225,258.994,215.225,258.77z"/>
	<path fill="#999999" d="M221.055,267.23c-0.949,0-1.699-0.296-2.248-0.887s-0.822-1.41-0.822-2.46c0-1.059,0.254-1.898,0.764-2.521
		c0.51-0.622,1.195-0.934,2.055-0.934c0.805,0,1.441,0.271,1.91,0.812s0.703,1.254,0.703,2.141v0.628h-4.424
		c0.02,0.771,0.209,1.355,0.57,1.755c0.361,0.398,0.871,0.599,1.527,0.599c0.691,0,1.375-0.148,2.051-0.443v0.886
		c-0.344,0.152-0.67,0.261-0.977,0.326C221.857,267.197,221.488,267.23,221.055,267.23z M220.791,261.26
		c-0.516,0-0.928,0.172-1.234,0.515c-0.307,0.344-0.486,0.818-0.541,1.426h3.357c0-0.627-0.137-1.107-0.41-1.44
		S221.299,261.26,220.791,261.26z"/>
	<path fill="#999999" d="M227.641,267.23c-0.93,0-1.65-0.293-2.16-0.878c-0.51-0.584-0.764-1.411-0.764-2.481
		c0-1.098,0.258-1.945,0.775-2.544s1.256-0.898,2.213-0.898c0.309,0,0.617,0.034,0.926,0.102c0.309,0.068,0.551,0.148,0.727,0.24
		l-0.299,0.844c-0.215-0.088-0.449-0.161-0.703-0.219s-0.479-0.087-0.674-0.087c-1.305,0-1.957,0.851-1.957,2.551
		c0,0.807,0.158,1.425,0.477,1.856c0.318,0.431,0.791,0.646,1.416,0.646c0.535,0,1.084-0.118,1.646-0.354v0.88
		C228.834,267.116,228.293,267.23,227.641,267.23z"/>
	<path fill="#999999" d="M232.861,266.41c0.172,0,0.338-0.014,0.498-0.039c0.16-0.026,0.287-0.053,0.381-0.081v0.761
		c-0.105,0.052-0.262,0.095-0.467,0.129c-0.205,0.033-0.389,0.051-0.553,0.051c-1.242,0-1.863-0.669-1.863-2.006v-3.903h-0.92
		v-0.479l0.92-0.413l0.41-1.401h0.562v1.521h1.863v0.772h-1.863v3.861c0,0.396,0.092,0.698,0.275,0.91
		C232.289,266.303,232.541,266.41,232.861,266.41z"/>
</g>
<path fill="#6BC8C3" d="M233.992,410.667c0,6.627-0.373,7-7,7h-85.016c-6.628,0-7-0.373-7-7v-126.25c0-6.627,0.372-6,7-6h85.016
	c6.627,0,7,0.373,7,7V410.667z"/>
<g>
	<path fill="#FFFFFF" d="M170.901,294.964c0,1.152-0.36,2.034-1.08,2.644c-0.721,0.611-1.745,0.916-3.073,0.916h-0.974v3.809h-2.271
		v-10.708h3.42c1.299,0,2.286,0.279,2.962,0.839C170.563,293.022,170.901,293.856,170.901,294.964z M165.774,296.664h0.747
		c0.698,0,1.221-0.138,1.567-0.414c0.347-0.275,0.52-0.677,0.52-1.204c0-0.532-0.146-0.926-0.436-1.18s-0.746-0.381-1.366-0.381
		h-1.033V296.664z"/>
	<path fill="#FFFFFF" d="M180.306,302.333h-2.234v-4.783c0-1.181-0.439-1.771-1.318-1.771c-0.625,0-1.077,0.212-1.355,0.637
		s-0.417,1.113-0.417,2.065v3.853h-2.234v-11.396h2.234v2.322c0,0.181-0.017,0.605-0.051,1.273l-0.051,0.66h0.117
		c0.498-0.801,1.289-1.201,2.373-1.201c0.962,0,1.692,0.259,2.19,0.775c0.498,0.519,0.747,1.26,0.747,2.227V302.333z"/>
	<path fill="#FFFFFF" d="M187.806,302.333l-0.433-1.113h-0.059c-0.375,0.474-0.763,0.802-1.16,0.985
		c-0.398,0.183-0.917,0.274-1.557,0.274c-0.786,0-1.405-0.225-1.856-0.674c-0.452-0.449-0.678-1.089-0.678-1.919
		c0-0.869,0.304-1.51,0.912-1.923c0.607-0.412,1.524-0.641,2.75-0.685l1.421-0.044v-0.359c0-0.829-0.425-1.244-1.274-1.244
		c-0.654,0-1.423,0.197-2.307,0.593l-0.74-1.509c0.942-0.493,1.987-0.74,3.135-0.74c1.099,0,1.94,0.24,2.526,0.719
		s0.879,1.206,0.879,2.182v5.457H187.806z M187.146,298.539l-0.864,0.029c-0.649,0.02-1.133,0.137-1.45,0.352
		s-0.476,0.542-0.476,0.981c0,0.63,0.361,0.945,1.084,0.945c0.518,0,0.931-0.149,1.242-0.447c0.31-0.298,0.465-0.693,0.465-1.187
		V298.539z"/>
	<path fill="#FFFFFF" d="M197.379,299.901c0,0.84-0.293,1.479-0.875,1.919c-0.584,0.439-1.457,0.659-2.619,0.659
		c-0.596,0-1.104-0.04-1.523-0.121c-0.42-0.08-0.812-0.198-1.18-0.355v-1.846c0.416,0.196,0.883,0.359,1.402,0.491
		c0.521,0.132,0.979,0.198,1.374,0.198c0.811,0,1.216-0.234,1.216-0.703c0-0.176-0.054-0.319-0.161-0.429
		c-0.107-0.11-0.293-0.234-0.557-0.374c-0.264-0.139-0.615-0.301-1.055-0.486c-0.63-0.264-1.093-0.508-1.388-0.732
		c-0.296-0.225-0.511-0.482-0.645-0.773c-0.135-0.29-0.201-0.648-0.201-1.072c0-0.728,0.281-1.291,0.846-1.688
		c0.564-0.398,1.363-0.597,2.398-0.597c0.986,0,1.945,0.215,2.879,0.645l-0.674,1.611c-0.41-0.176-0.794-0.32-1.15-0.433
		s-0.721-0.169-1.092-0.169c-0.658,0-0.988,0.179-0.988,0.535c0,0.2,0.105,0.373,0.318,0.52s0.678,0.364,1.396,0.652
		c0.64,0.259,1.108,0.501,1.406,0.725c0.298,0.226,0.518,0.484,0.659,0.777S197.379,299.496,197.379,299.901z"/>
	<path fill="#FFFFFF" d="M202.828,302.479c-1.318,0-2.35-0.363-3.092-1.092c-0.742-0.727-1.113-1.758-1.113-3.09
		c0-1.372,0.344-2.434,1.029-3.183c0.686-0.75,1.635-1.124,2.846-1.124c1.157,0,2.059,0.329,2.703,0.988s0.967,1.57,0.967,2.732
		v1.084h-5.281c0.024,0.635,0.213,1.13,0.564,1.486s0.844,0.535,1.479,0.535c0.494,0,0.96-0.052,1.399-0.154s0.898-0.266,1.377-0.49
		v1.729c-0.391,0.195-0.808,0.34-1.253,0.436C204.01,302.431,203.467,302.479,202.828,302.479z M202.513,295.58
		c-0.474,0-0.845,0.15-1.113,0.45c-0.269,0.301-0.423,0.727-0.462,1.278h3.135c-0.01-0.552-0.153-0.978-0.432-1.278
		C203.362,295.73,202.986,295.58,202.513,295.58z"/>
	<path fill="#FFFFFF" d="M188.289,320.333h-7.485v-1.574l2.688-2.718c0.796-0.815,1.316-1.381,1.56-1.695
		c0.244-0.315,0.42-0.606,0.527-0.876c0.107-0.268,0.161-0.546,0.161-0.834c0-0.43-0.119-0.75-0.355-0.96s-0.553-0.315-0.948-0.315
		c-0.415,0-0.818,0.096-1.208,0.286s-0.798,0.462-1.223,0.813l-1.23-1.458c0.527-0.449,0.964-0.767,1.311-0.952
		s0.725-0.328,1.135-0.429c0.41-0.1,0.869-0.149,1.377-0.149c0.669,0,1.26,0.122,1.772,0.365c0.513,0.245,0.911,0.586,1.194,1.025
		s0.424,0.943,0.424,1.51c0,0.493-0.086,0.955-0.26,1.388c-0.174,0.432-0.441,0.875-0.806,1.329s-1.004,1.102-1.922,1.941
		l-1.377,1.296v0.103h4.666V320.333z"/>
</g>
<rect x="144.609" y="401.667" fill="#3BB5A8" width="79.75" height="6"/>
<rect x="144.609" y="391.667" fill="#3BB5A8" width="79.75" height="6"/>
<rect x="144.609" y="381.667" fill="#3BB5A8" width="79.75" height="6"/>
<rect x="144.609" y="371.667" fill="#3BB5A8" width="79.75" height="6"/>
<rect x="144.609" y="361.667" fill="#3BB5A8" width="79.75" height="6"/>
<rect x="144.609" y="351.667" fill="#3BB5A8" width="79.75" height="6"/>
<rect x="144.609" y="341.667" fill="#3BB5A8" width="79.75" height="6"/>
<path fill="#F1624F" d="M259.198,95c0-6.627,0.373-7,7-7h83.517c6.627,0,7,0.373,7,7v315.667c0,6.627-0.373,7-7,7h-83.517
	c-6.627,0-7-0.373-7-7V95z"/>
<g>
	<path fill="#FFFFFF" d="M294.374,110.297c0,1.152-0.36,2.034-1.08,2.644c-0.721,0.611-1.745,0.916-3.073,0.916h-0.974v3.809h-2.271
		v-10.708h3.42c1.299,0,2.287,0.279,2.963,0.839C294.035,108.355,294.374,109.189,294.374,110.297z M289.247,111.997h0.747
		c0.698,0,1.221-0.138,1.567-0.414c0.347-0.275,0.521-0.677,0.521-1.204c0-0.532-0.146-0.926-0.437-1.18s-0.745-0.381-1.366-0.381
		h-1.032V111.997z"/>
	<path fill="#FFFFFF" d="M303.778,117.666h-2.233v-4.783c0-1.181-0.439-1.771-1.318-1.771c-0.625,0-1.077,0.212-1.355,0.637
		s-0.418,1.113-0.418,2.065v3.853h-2.233v-11.396h2.233v2.322c0,0.181-0.017,0.605-0.051,1.273l-0.051,0.66h0.117
		c0.498-0.801,1.289-1.201,2.373-1.201c0.961,0,1.691,0.259,2.189,0.775c0.498,0.519,0.747,1.26,0.747,2.227V117.666z"/>
	<path fill="#FFFFFF" d="M311.278,117.666l-0.433-1.113h-0.059c-0.375,0.474-0.763,0.802-1.16,0.985
		c-0.398,0.183-0.917,0.274-1.557,0.274c-0.786,0-1.405-0.225-1.856-0.674c-0.452-0.449-0.678-1.089-0.678-1.919
		c0-0.869,0.304-1.51,0.912-1.923c0.607-0.412,1.524-0.641,2.75-0.685l1.421-0.044v-0.359c0-0.829-0.425-1.244-1.274-1.244
		c-0.654,0-1.423,0.197-2.308,0.593l-0.739-1.509c0.942-0.493,1.987-0.74,3.135-0.74c1.099,0,1.94,0.24,2.526,0.719
		s0.879,1.206,0.879,2.182v5.457H311.278z M310.619,113.872l-0.864,0.029c-0.649,0.02-1.133,0.137-1.45,0.352
		s-0.477,0.542-0.477,0.981c0,0.63,0.361,0.945,1.084,0.945c0.518,0,0.932-0.149,1.242-0.447c0.31-0.298,0.465-0.693,0.465-1.187
		V113.872z"/>
	<path fill="#FFFFFF" d="M320.852,115.234c0,0.84-0.293,1.479-0.875,1.919c-0.584,0.439-1.457,0.659-2.619,0.659
		c-0.596,0-1.104-0.04-1.523-0.121c-0.42-0.08-0.812-0.198-1.18-0.355v-1.846c0.416,0.196,0.883,0.359,1.402,0.491
		c0.521,0.132,0.979,0.198,1.374,0.198c0.811,0,1.216-0.234,1.216-0.703c0-0.176-0.054-0.319-0.161-0.429
		c-0.107-0.11-0.293-0.234-0.557-0.374c-0.264-0.139-0.615-0.301-1.055-0.486c-0.63-0.264-1.093-0.508-1.388-0.732
		c-0.296-0.225-0.511-0.482-0.645-0.773c-0.135-0.29-0.201-0.648-0.201-1.072c0-0.728,0.281-1.291,0.846-1.688
		c0.564-0.398,1.363-0.597,2.398-0.597c0.986,0,1.945,0.215,2.879,0.645l-0.674,1.611c-0.41-0.176-0.794-0.32-1.15-0.433
		s-0.721-0.169-1.092-0.169c-0.658,0-0.988,0.179-0.988,0.535c0,0.2,0.105,0.373,0.318,0.52s0.678,0.364,1.396,0.652
		c0.64,0.259,1.108,0.501,1.406,0.725c0.298,0.226,0.518,0.484,0.659,0.777S320.852,114.829,320.852,115.234z"/>
	<path fill="#FFFFFF" d="M326.301,117.812c-1.318,0-2.35-0.363-3.092-1.092c-0.742-0.727-1.113-1.758-1.113-3.09
		c0-1.372,0.344-2.434,1.029-3.183c0.686-0.75,1.635-1.124,2.846-1.124c1.157,0,2.059,0.329,2.703,0.988s0.967,1.57,0.967,2.732
		v1.084h-5.281c0.024,0.635,0.213,1.13,0.564,1.486s0.844,0.535,1.479,0.535c0.494,0,0.96-0.052,1.399-0.154s0.898-0.266,1.377-0.49
		v1.729c-0.391,0.195-0.808,0.34-1.253,0.436C327.482,117.764,326.939,117.812,326.301,117.812z M325.985,110.913
		c-0.474,0-0.845,0.15-1.113,0.45c-0.269,0.301-0.423,0.727-0.462,1.278h3.135c-0.01-0.552-0.153-0.978-0.432-1.278
		C326.835,111.063,326.459,110.913,325.985,110.913z"/>
	<path fill="#FFFFFF" d="M311.344,127.353c0,0.669-0.202,1.237-0.607,1.706s-0.975,0.791-1.707,0.967v0.044
		c0.865,0.107,1.52,0.37,1.963,0.787c0.445,0.418,0.667,0.98,0.667,1.688c0,1.03-0.374,1.832-1.12,2.406
		c-0.748,0.573-1.814,0.86-3.201,0.86c-1.162,0-2.192-0.192-3.091-0.578v-1.927c0.415,0.21,0.872,0.381,1.37,0.513
		s0.99,0.197,1.479,0.197c0.748,0,1.299-0.126,1.656-0.381c0.355-0.253,0.534-0.661,0.534-1.223c0-0.503-0.205-0.859-0.615-1.069
		s-1.064-0.315-1.963-0.315h-0.813v-1.735h0.828c0.83,0,1.437-0.108,1.82-0.326c0.383-0.217,0.574-0.589,0.574-1.116
		c0-0.811-0.508-1.217-1.523-1.217c-0.352,0-0.709,0.059-1.072,0.176c-0.364,0.117-0.768,0.32-1.213,0.608l-1.047-1.56
		c0.977-0.703,2.141-1.055,3.494-1.055c1.107,0,1.982,0.225,2.625,0.674S311.344,126.552,311.344,127.353z"/>
</g>
<rect x="268.081" y="404.667" fill="#E0533F" width="79.75" height="6"/>
<rect x="268.081" y="394.667" fill="#E0533F" width="79.75" height="6"/>
<rect x="268.081" y="384.667" fill="#E0533F" width="79.75" height="6"/>
<rect x="268.081" y="374.667" fill="#E0533F" width="79.75" height="6"/>
<rect x="268.081" y="364.667" fill="#E0533F" width="79.75" height="6"/>
<rect x="268.081" y="354.667" fill="#E0533F" width="79.75" height="6"/>
<rect x="268.081" y="344.667" fill="#E0533F" width="79.75" height="6"/>
<rect x="268.081" y="334.667" fill="#E0533F" width="79.75" height="6"/>
<rect x="268.081" y="324.667" fill="#E0533F" width="79.75" height="6"/>
<rect x="268.081" y="314.667" fill="#E0533F" width="79.75" height="6"/>
<rect x="268.081" y="304.667" fill="#E0533F" width="79.75" height="6"/>
<rect x="268.081" y="294.667" fill="#E0533F" width="79.75" height="6"/>
<rect x="268.081" y="284.667" fill="#E0533F" width="79.75" height="6"/>
<rect x="268.081" y="274.667" fill="#E0533F" width="79.75" height="6"/>
<rect x="268.081" y="264.667" fill="#E0533F" width="79.75" height="6"/>
<rect x="268.081" y="254.667" fill="#E0533F" width="79.75" height="6"/>
<rect x="268.081" y="244.667" fill="#E0533F" width="79.75" height="6"/>
<rect x="268.081" y="234.667" fill="#E0533F" width="79.75" height="6"/>
<rect x="268.081" y="224.667" fill="#E0533F" width="79.75" height="6"/>
<rect x="268.081" y="214.667" fill="#E0533F" width="79.75" height="6"/>
<rect x="268.081" y="204.667" fill="#E0533F" width="79.75" height="6"/>
<rect x="268.081" y="194.667" fill="#E0533F" width="79.75" height="6"/>
<rect x="268.081" y="184.667" fill="#E0533F" width="79.75" height="6"/>
<rect x="268.081" y="174.667" fill="#E0533F" width="79.75" height="6"/>
<rect x="268.081" y="164.667" fill="#E0533F" width="79.75" height="6"/>
<rect x="268.081" y="154.667" fill="#E0533F" width="79.75" height="6"/>
<g>
	<path fill="#999999" d="M316.783,19.693h-5.631v-0.856l2.256-2.316c0.688-0.711,1.141-1.218,1.359-1.521
		c0.219-0.303,0.383-0.599,0.492-0.886s0.164-0.597,0.164-0.928c0-0.467-0.139-0.837-0.416-1.11s-0.662-0.411-1.154-0.411
		c-0.355,0-0.692,0.061-1.011,0.181c-0.318,0.119-0.673,0.337-1.063,0.652l-0.516-0.677c0.789-0.67,1.648-1.006,2.578-1.006
		c0.805,0,1.436,0.211,1.893,0.632s0.686,0.986,0.686,1.697c0,0.555-0.152,1.104-0.457,1.646s-0.875,1.229-1.711,2.06l-1.875,1.874
		v0.048h4.406V19.693z"/>
	<path fill="#999999" d="M318.113,15.951c0-1.72,0.327-3.006,0.981-3.858s1.622-1.278,2.903-1.278c0.441,0,0.789,0.038,1.043,0.114
		v0.856c-0.301-0.1-0.645-0.149-1.031-0.149c-0.918,0-1.619,0.292-2.104,0.877s-0.75,1.504-0.797,2.757h0.07
		c0.43-0.687,1.109-1.029,2.039-1.029c0.77,0,1.376,0.237,1.819,0.712c0.443,0.476,0.665,1.12,0.665,1.935
		c0,0.91-0.243,1.625-0.729,2.146c-0.486,0.521-1.144,0.781-1.972,0.781c-0.887,0-1.59-0.341-2.109-1.021
		C318.373,18.112,318.113,17.165,318.113,15.951z M320.99,18.968c0.555,0,0.985-0.179,1.292-0.536
		c0.307-0.356,0.46-0.873,0.46-1.547c0-0.579-0.143-1.034-0.428-1.365s-0.711-0.497-1.277-0.497c-0.352,0-0.674,0.074-0.967,0.222
		s-0.526,0.352-0.7,0.61c-0.174,0.26-0.261,0.529-0.261,0.809c0,0.411,0.078,0.794,0.234,1.149s0.378,0.637,0.665,0.844
		C320.296,18.865,320.623,18.968,320.99,18.968z"/>
	<path fill="#999999" d="M331.367,13.011c0.285,0,0.541,0.024,0.768,0.072L332,14.005c-0.266-0.061-0.5-0.09-0.703-0.09
		c-0.52,0-0.964,0.216-1.333,0.646s-0.554,0.968-0.554,1.61v3.521h-0.973v-6.562h0.803l0.111,1.215h0.047
		c0.238-0.427,0.525-0.756,0.861-0.987S330.965,13.011,331.367,13.011z"/>
	<path fill="#999999" d="M337.285,19.693l-0.193-0.934h-0.047c-0.32,0.411-0.64,0.689-0.958,0.835s-0.716,0.219-1.192,0.219
		c-0.637,0-1.136-0.168-1.497-0.503c-0.361-0.336-0.542-0.812-0.542-1.432c0-1.325,1.037-2.02,3.111-2.083l1.09-0.036v-0.407
		c0-0.515-0.108-0.895-0.325-1.141c-0.217-0.245-0.563-0.368-1.04-0.368c-0.535,0-1.141,0.168-1.816,0.503l-0.299-0.76
		c0.316-0.176,0.663-0.313,1.04-0.413c0.377-0.101,0.755-0.15,1.134-0.15c0.766,0,1.333,0.174,1.702,0.521
		c0.369,0.347,0.554,0.903,0.554,1.67v4.479H337.285z M335.088,18.993c0.605,0,1.081-0.17,1.427-0.509
		c0.346-0.34,0.519-0.814,0.519-1.426v-0.592l-0.973,0.041c-0.773,0.028-1.331,0.151-1.673,0.368
		c-0.342,0.218-0.513,0.557-0.513,1.016c0,0.358,0.106,0.632,0.319,0.82C334.407,18.899,334.705,18.993,335.088,18.993z"/>
	<path fill="#999999" d="M342.576,19.813c-0.93,0-1.649-0.293-2.159-0.878c-0.51-0.584-0.765-1.411-0.765-2.481
		c0-1.098,0.259-1.945,0.776-2.544s1.255-0.898,2.212-0.898c0.309,0,0.617,0.034,0.926,0.102c0.309,0.068,0.551,0.148,0.727,0.24
		l-0.299,0.844c-0.215-0.088-0.449-0.161-0.703-0.219s-0.479-0.087-0.674-0.087c-1.305,0-1.957,0.851-1.957,2.551
		c0,0.807,0.159,1.425,0.478,1.856c0.318,0.431,0.79,0.646,1.415,0.646c0.535,0,1.084-0.118,1.646-0.354v0.88
		C343.77,19.699,343.229,19.813,342.576,19.813z"/>
	<path fill="#999999" d="M346.684,16.334c0.168-0.244,0.424-0.563,0.768-0.958l2.074-2.245h1.154l-2.602,2.796l2.783,3.766h-1.178
		l-2.268-3.102l-0.732,0.646v2.455h-0.961v-9.316h0.961v4.939c0,0.22-0.016,0.56-0.047,1.019H346.684z"/>
	<path fill="#999999" d="M356.164,17.903c0,0.61-0.223,1.082-0.668,1.413s-1.07,0.497-1.875,0.497c-0.852,0-1.516-0.138-1.992-0.413
		v-0.923c0.309,0.16,0.64,0.286,0.993,0.378s0.694,0.138,1.022,0.138c0.508,0,0.898-0.083,1.172-0.249
		c0.273-0.165,0.41-0.418,0.41-0.757c0-0.256-0.108-0.475-0.325-0.656s-0.64-0.396-1.269-0.644
		c-0.598-0.228-1.022-0.426-1.274-0.596c-0.252-0.169-0.439-0.362-0.562-0.577c-0.123-0.216-0.185-0.474-0.185-0.772
		c0-0.535,0.213-0.957,0.639-1.267c0.426-0.309,1.01-0.464,1.752-0.464c0.691,0,1.367,0.144,2.027,0.431l-0.346,0.809
		c-0.645-0.271-1.229-0.407-1.752-0.407c-0.461,0-0.809,0.074-1.043,0.222s-0.352,0.352-0.352,0.61c0,0.176,0.044,0.326,0.132,0.449
		c0.088,0.124,0.229,0.242,0.425,0.354s0.57,0.273,1.125,0.485c0.762,0.283,1.276,0.568,1.544,0.855
		C356.03,17.107,356.164,17.467,356.164,17.903z"/>
	<path fill="#999999" d="M287.393,38.693h-0.949v-6.238c0-0.52,0.016-1.01,0.047-1.473c-0.082,0.083-0.174,0.171-0.275,0.263
		s-0.566,0.481-1.395,1.168l-0.516-0.683l2.268-1.79h0.82V38.693z"/>
	<path fill="#999999" d="M296.281,33.675c0,3.425-1.297,5.138-3.891,5.138c-0.453,0-0.812-0.04-1.078-0.12v-0.856
		c0.312,0.104,0.668,0.156,1.066,0.156c0.938,0,1.646-0.297,2.124-0.89s0.739-1.501,0.782-2.727h-0.07
		c-0.215,0.331-0.5,0.583-0.855,0.757s-0.756,0.261-1.201,0.261c-0.758,0-1.359-0.231-1.805-0.694s-0.668-1.109-0.668-1.94
		c0-0.909,0.249-1.628,0.747-2.155c0.498-0.526,1.153-0.79,1.966-0.79c0.582,0,1.091,0.152,1.526,0.458s0.771,0.751,1.005,1.335
		C296.164,32.192,296.281,32.881,296.281,33.675z M293.398,30.665c-0.559,0-0.99,0.184-1.295,0.551s-0.457,0.878-0.457,1.532
		c0,0.575,0.141,1.027,0.422,1.356s0.709,0.494,1.283,0.494c0.355,0,0.683-0.074,0.981-0.222s0.534-0.35,0.706-0.604
		c0.172-0.256,0.258-0.523,0.258-0.803c0-0.419-0.08-0.807-0.24-1.161c-0.16-0.355-0.384-0.635-0.671-0.839
		C294.099,30.766,293.77,30.665,293.398,30.665z"/>
	<path fill="#999999" d="M303.143,38.693h-5.631v-0.856l2.256-2.316c0.688-0.711,1.141-1.218,1.359-1.521
		c0.219-0.303,0.383-0.599,0.492-0.886s0.164-0.597,0.164-0.928c0-0.467-0.139-0.837-0.416-1.11s-0.662-0.41-1.154-0.41
		c-0.355,0-0.692,0.06-1.011,0.18c-0.318,0.119-0.673,0.337-1.063,0.652l-0.516-0.677c0.789-0.671,1.648-1.006,2.578-1.006
		c0.805,0,1.436,0.211,1.893,0.632s0.686,0.986,0.686,1.697c0,0.555-0.152,1.104-0.457,1.646s-0.875,1.229-1.711,2.06l-1.875,1.874
		v0.048h4.406V38.693z"/>
	<path fill="#999999" d="M310.502,38.813c-0.93,0-1.649-0.293-2.159-0.878c-0.51-0.584-0.765-1.411-0.765-2.481
		c0-1.098,0.259-1.945,0.776-2.544s1.255-0.898,2.212-0.898c0.309,0,0.617,0.034,0.926,0.102c0.309,0.068,0.551,0.148,0.727,0.24
		l-0.299,0.844c-0.215-0.088-0.449-0.161-0.703-0.219s-0.479-0.087-0.674-0.087c-1.305,0-1.957,0.851-1.957,2.551
		c0,0.807,0.159,1.425,0.478,1.856c0.318,0.431,0.79,0.646,1.415,0.646c0.535,0,1.084-0.118,1.646-0.354v0.88
		C311.695,38.699,311.154,38.813,310.502,38.813z"/>
	<path fill="#999999" d="M319.191,35.406c0,1.07-0.264,1.905-0.791,2.506s-1.256,0.901-2.186,0.901
		c-0.574,0-1.084-0.138-1.529-0.413s-0.789-0.671-1.031-1.186c-0.242-0.516-0.363-1.118-0.363-1.809
		c0-1.069,0.262-1.902,0.785-2.499s1.25-0.896,2.18-0.896c0.898,0,1.612,0.306,2.142,0.916S319.191,34.364,319.191,35.406z
		 M314.299,35.406c0,0.839,0.164,1.477,0.492,1.916s0.811,0.658,1.447,0.658s1.12-0.218,1.45-0.655
		c0.33-0.437,0.495-1.076,0.495-1.919c0-0.834-0.165-1.468-0.495-1.9c-0.33-0.434-0.817-0.649-1.462-0.649
		c-0.637,0-1.117,0.213-1.441,0.64C314.461,33.923,314.299,34.56,314.299,35.406z"/>
	<path fill="#999999" d="M329.082,38.693v-4.269c0-0.523-0.109-0.915-0.328-1.177s-0.559-0.392-1.02-0.392
		c-0.605,0-1.053,0.177-1.342,0.532s-0.434,0.902-0.434,1.641v3.664h-0.973v-4.269c0-0.523-0.109-0.915-0.328-1.177
		s-0.561-0.392-1.025-0.392c-0.609,0-1.056,0.187-1.339,0.56s-0.425,0.984-0.425,1.835v3.442h-0.973v-6.562h0.791l0.158,0.897h0.047
		c0.184-0.319,0.442-0.568,0.776-0.748s0.708-0.27,1.122-0.27c1.004,0,1.66,0.371,1.969,1.113h0.047
		c0.191-0.343,0.469-0.614,0.832-0.813c0.363-0.2,0.777-0.3,1.242-0.3c0.727,0,1.271,0.19,1.632,0.572
		c0.361,0.381,0.542,0.99,0.542,1.829v4.28H329.082z"/>
	<path fill="#999999" d="M335.047,38.813c-0.418,0-0.8-0.079-1.146-0.237c-0.346-0.157-0.636-0.399-0.87-0.727h-0.07
		c0.047,0.383,0.07,0.746,0.07,1.089v2.7h-0.973v-9.507h0.791l0.135,0.897h0.047c0.25-0.359,0.541-0.618,0.873-0.778
		c0.332-0.159,0.713-0.239,1.143-0.239c0.852,0,1.509,0.298,1.972,0.893s0.694,1.429,0.694,2.502c0,1.078-0.235,1.915-0.706,2.512
		S335.883,38.813,335.047,38.813z M334.906,32.856c-0.656,0-1.131,0.186-1.424,0.557s-0.443,0.962-0.451,1.771v0.222
		c0,0.922,0.15,1.582,0.451,1.979c0.301,0.397,0.783,0.596,1.447,0.596c0.555,0,0.989-0.229,1.304-0.688s0.472-1.091,0.472-1.897
		c0-0.818-0.157-1.446-0.472-1.883C335.919,33.074,335.477,32.856,334.906,32.856z"/>
	<path fill="#999999" d="M340.326,32.131v4.257c0,0.534,0.119,0.934,0.357,1.197s0.611,0.395,1.119,0.395
		c0.672,0,1.163-0.188,1.474-0.562s0.466-0.987,0.466-1.838v-3.448h0.973v6.562h-0.803l-0.141-0.88h-0.053
		c-0.199,0.323-0.476,0.57-0.829,0.742s-0.757,0.258-1.21,0.258c-0.781,0-1.366-0.189-1.755-0.569
		c-0.389-0.379-0.583-0.985-0.583-1.82v-4.292H340.326z"/>
	<path fill="#999999" d="M348.852,37.993c0.172,0,0.338-0.014,0.498-0.039c0.16-0.026,0.287-0.053,0.381-0.081v0.761
		c-0.105,0.052-0.261,0.095-0.466,0.129c-0.205,0.033-0.39,0.051-0.554,0.051c-1.242,0-1.863-0.669-1.863-2.006v-3.903h-0.92v-0.479
		l0.92-0.413l0.41-1.401h0.562v1.521h1.863v0.772h-1.863v3.861c0,0.396,0.092,0.698,0.275,0.91
		C348.279,37.886,348.531,37.993,348.852,37.993z"/>
	<path fill="#999999" d="M353.727,38.813c-0.949,0-1.698-0.296-2.247-0.887s-0.823-1.41-0.823-2.46c0-1.059,0.255-1.898,0.765-2.521
		c0.51-0.622,1.194-0.934,2.054-0.934c0.805,0,1.441,0.271,1.91,0.812s0.703,1.254,0.703,2.141v0.628h-4.424
		c0.02,0.771,0.21,1.355,0.571,1.755c0.361,0.398,0.87,0.599,1.526,0.599c0.691,0,1.375-0.148,2.051-0.443v0.886
		c-0.344,0.152-0.669,0.261-0.976,0.326C354.53,38.78,354.16,38.813,353.727,38.813z M353.463,32.843
		c-0.516,0-0.927,0.172-1.233,0.515c-0.307,0.344-0.487,0.818-0.542,1.426h3.357c0-0.627-0.137-1.107-0.41-1.44
		S353.971,32.843,353.463,32.843z"/>
	<path fill="#999999" d="M297.436,57.693h-0.949v-6.238c0-0.52,0.016-1.01,0.047-1.473c-0.082,0.083-0.174,0.171-0.275,0.263
		s-0.566,0.481-1.395,1.168l-0.516-0.683l2.268-1.79h0.82V57.693z"/>
	<path fill="#999999" d="M309.834,51.491c0,0.886-0.296,1.567-0.888,2.044c-0.592,0.478-1.438,0.716-2.54,0.716h-1.008v3.442h-0.996
		V48.94h2.221C308.764,48.94,309.834,49.79,309.834,51.491z M305.398,53.376h0.896c0.883,0,1.521-0.146,1.916-0.438
		c0.395-0.291,0.592-0.758,0.592-1.4c0-0.579-0.186-1.01-0.557-1.294c-0.371-0.283-0.949-0.425-1.734-0.425h-1.113V53.376z"/>
	<path fill="#999999" d="M311.627,48.94h2.42c1.137,0,1.959,0.174,2.467,0.521c0.508,0.348,0.762,0.896,0.762,1.646
		c0,0.52-0.142,0.947-0.425,1.284c-0.283,0.338-0.696,0.556-1.239,0.656v0.06c1.301,0.228,1.951,0.926,1.951,2.096
		c0,0.782-0.259,1.393-0.776,1.832c-0.518,0.438-1.241,0.658-2.171,0.658h-2.988V48.94z M312.623,52.688h1.641
		c0.703,0,1.209-0.113,1.518-0.339s0.463-0.605,0.463-1.141c0-0.49-0.172-0.845-0.516-1.062s-0.891-0.326-1.641-0.326h-1.465V52.688
		z M312.623,53.55v3.274h1.787c0.691,0,1.212-0.137,1.562-0.41s0.524-0.701,0.524-1.284c0-0.543-0.179-0.942-0.536-1.197
		c-0.357-0.256-0.901-0.383-1.632-0.383H312.623z"/>
	<path fill="#999999" d="M323.398,55.903c0,0.61-0.223,1.082-0.668,1.413s-1.07,0.497-1.875,0.497c-0.852,0-1.516-0.138-1.992-0.413
		v-0.923c0.309,0.16,0.64,0.286,0.993,0.378s0.694,0.138,1.022,0.138c0.508,0,0.898-0.083,1.172-0.249
		c0.273-0.165,0.41-0.418,0.41-0.757c0-0.256-0.108-0.475-0.325-0.656s-0.64-0.396-1.269-0.644
		c-0.598-0.228-1.022-0.426-1.274-0.596c-0.252-0.169-0.439-0.362-0.562-0.577c-0.123-0.216-0.185-0.474-0.185-0.772
		c0-0.535,0.213-0.957,0.639-1.267c0.426-0.309,1.01-0.464,1.752-0.464c0.691,0,1.367,0.144,2.027,0.431l-0.346,0.809
		c-0.645-0.271-1.229-0.407-1.752-0.407c-0.461,0-0.809,0.074-1.043,0.222s-0.352,0.352-0.352,0.61c0,0.176,0.044,0.326,0.132,0.449
		c0.088,0.124,0.229,0.242,0.425,0.354s0.57,0.273,1.125,0.485c0.762,0.283,1.276,0.568,1.544,0.855
		C323.265,55.107,323.398,55.467,323.398,55.903z"/>
	<path fill="#999999" d="M331.086,51.023c0.844,0,1.499,0.295,1.966,0.884s0.7,1.422,0.7,2.499c0,1.078-0.235,1.915-0.706,2.512
		s-1.124,0.896-1.96,0.896c-0.418,0-0.8-0.079-1.146-0.237c-0.346-0.157-0.636-0.399-0.87-0.727H329l-0.205,0.844h-0.697v-9.315
		h0.973v2.263c0,0.507-0.016,0.962-0.047,1.365h0.047C329.523,51.351,330.195,51.023,331.086,51.023z M330.945,51.856
		c-0.664,0-1.143,0.194-1.436,0.583c-0.293,0.39-0.439,1.045-0.439,1.967s0.15,1.582,0.451,1.979
		c0.301,0.397,0.783,0.596,1.447,0.596c0.598,0,1.043-0.222,1.336-0.667s0.439-1.085,0.439-1.919c0-0.854-0.146-1.491-0.439-1.91
		S331.559,51.856,330.945,51.856z"/>
	<path fill="#999999" d="M336.424,57.693h-0.973v-9.315h0.973V57.693z"/>
	<path fill="#999999" d="M344.029,54.406c0,1.07-0.264,1.905-0.791,2.506s-1.256,0.901-2.186,0.901
		c-0.574,0-1.084-0.138-1.529-0.413s-0.789-0.671-1.031-1.186c-0.242-0.516-0.363-1.118-0.363-1.809
		c0-1.069,0.262-1.902,0.785-2.499s1.25-0.896,2.18-0.896c0.898,0,1.612,0.306,2.142,0.916S344.029,53.364,344.029,54.406z
		 M339.137,54.406c0,0.839,0.164,1.477,0.492,1.916s0.811,0.658,1.447,0.658s1.12-0.218,1.45-0.655
		c0.33-0.437,0.495-1.076,0.495-1.919c0-0.834-0.165-1.468-0.495-1.9c-0.33-0.434-0.817-0.649-1.462-0.649
		c-0.637,0-1.117,0.213-1.441,0.64C339.299,52.923,339.137,53.56,339.137,54.406z"/>
	<path fill="#999999" d="M348.301,57.813c-0.93,0-1.649-0.293-2.159-0.878c-0.51-0.584-0.765-1.411-0.765-2.481
		c0-1.098,0.259-1.945,0.776-2.544s1.255-0.898,2.212-0.898c0.309,0,0.617,0.034,0.926,0.102c0.309,0.068,0.551,0.148,0.727,0.24
		l-0.299,0.844c-0.215-0.088-0.449-0.161-0.703-0.219s-0.479-0.087-0.674-0.087c-1.305,0-1.957,0.851-1.957,2.551
		c0,0.807,0.159,1.425,0.478,1.856c0.318,0.431,0.79,0.646,1.415,0.646c0.535,0,1.084-0.118,1.646-0.354v0.88
		C349.494,57.699,348.953,57.813,348.301,57.813z"/>
	<path fill="#999999" d="M352.408,54.334c0.168-0.244,0.424-0.563,0.768-0.958l2.074-2.245h1.154l-2.602,2.796l2.783,3.766h-1.178
		l-2.268-3.102l-0.732,0.646v2.455h-0.961v-9.315h0.961v4.938c0,0.22-0.016,0.56-0.047,1.019H352.408z"/>
	<path fill="#999999" d="M291.84,71.346c0.902,0,1.612,0.229,2.13,0.686s0.776,1.083,0.776,1.877c0,0.906-0.282,1.617-0.847,2.132
		s-1.343,0.772-2.335,0.772c-0.965,0-1.701-0.158-2.209-0.474v-0.958c0.273,0.18,0.613,0.32,1.02,0.423
		c0.406,0.102,0.807,0.152,1.201,0.152c0.688,0,1.222-0.166,1.603-0.497s0.571-0.811,0.571-1.437c0-1.222-0.732-1.832-2.197-1.832
		c-0.371,0-0.867,0.058-1.488,0.173l-0.504-0.329l0.322-4.095h4.26v0.916h-3.428l-0.217,2.628
		C290.947,71.392,291.395,71.346,291.84,71.346z"/>
	<path fill="#999999" d="M305.164,70.491c0,0.886-0.296,1.567-0.888,2.044c-0.592,0.478-1.438,0.716-2.54,0.716h-1.008v3.442h-0.996
		V67.94h2.221C304.094,67.94,305.164,68.79,305.164,70.491z M300.729,72.376h0.896c0.883,0,1.521-0.146,1.916-0.438
		c0.395-0.291,0.592-0.758,0.592-1.4c0-0.579-0.186-1.01-0.557-1.294c-0.371-0.283-0.949-0.425-1.734-0.425h-1.113V72.376z"/>
	<path fill="#999999" d="M306.957,67.94h2.42c1.137,0,1.959,0.174,2.467,0.521c0.508,0.348,0.762,0.896,0.762,1.646
		c0,0.52-0.142,0.947-0.425,1.284c-0.283,0.338-0.696,0.556-1.239,0.656v0.06c1.301,0.228,1.951,0.926,1.951,2.096
		c0,0.782-0.259,1.393-0.776,1.832c-0.518,0.438-1.241,0.658-2.171,0.658h-2.988V67.94z M307.953,71.688h1.641
		c0.703,0,1.209-0.113,1.518-0.339s0.463-0.605,0.463-1.141c0-0.49-0.172-0.845-0.516-1.062s-0.891-0.326-1.641-0.326h-1.465V71.688
		z M307.953,72.55v3.274h1.787c0.691,0,1.212-0.137,1.562-0.41s0.524-0.701,0.524-1.284c0-0.543-0.179-0.942-0.536-1.197
		c-0.357-0.256-0.901-0.383-1.632-0.383H307.953z"/>
	<path fill="#999999" d="M318.729,74.903c0,0.61-0.223,1.082-0.668,1.413s-1.07,0.497-1.875,0.497c-0.852,0-1.516-0.138-1.992-0.413
		v-0.923c0.309,0.16,0.64,0.286,0.993,0.378s0.694,0.138,1.022,0.138c0.508,0,0.898-0.083,1.172-0.249
		c0.273-0.165,0.41-0.418,0.41-0.757c0-0.256-0.108-0.475-0.325-0.656s-0.64-0.396-1.269-0.644
		c-0.598-0.228-1.022-0.426-1.274-0.596c-0.252-0.169-0.439-0.362-0.562-0.577c-0.123-0.216-0.185-0.474-0.185-0.772
		c0-0.535,0.213-0.957,0.639-1.267c0.426-0.309,1.01-0.464,1.752-0.464c0.691,0,1.367,0.144,2.027,0.431l-0.346,0.809
		c-0.645-0.271-1.229-0.407-1.752-0.407c-0.461,0-0.809,0.074-1.043,0.222s-0.352,0.352-0.352,0.61c0,0.176,0.044,0.326,0.132,0.449
		c0.088,0.124,0.229,0.242,0.425,0.354s0.57,0.273,1.125,0.485c0.762,0.283,1.276,0.568,1.544,0.855
		C318.595,74.107,318.729,74.467,318.729,74.903z"/>
	<path fill="#999999" d="M328.971,73.406c0,1.07-0.264,1.905-0.791,2.506s-1.256,0.901-2.186,0.901
		c-0.574,0-1.084-0.138-1.529-0.413s-0.789-0.671-1.031-1.186c-0.242-0.516-0.363-1.118-0.363-1.809
		c0-1.069,0.262-1.902,0.785-2.499s1.25-0.896,2.18-0.896c0.898,0,1.612,0.306,2.142,0.916S328.971,72.364,328.971,73.406z
		 M324.078,73.406c0,0.839,0.164,1.477,0.492,1.916s0.811,0.658,1.447,0.658s1.12-0.218,1.45-0.655
		c0.33-0.437,0.495-1.076,0.495-1.919c0-0.834-0.165-1.468-0.495-1.9c-0.33-0.434-0.817-0.649-1.462-0.649
		c-0.637,0-1.117,0.213-1.441,0.64C324.24,71.923,324.078,72.56,324.078,73.406z"/>
	<path fill="#999999" d="M333.664,70.023c0.844,0,1.499,0.295,1.966,0.884s0.7,1.422,0.7,2.499c0,1.078-0.235,1.915-0.706,2.512
		s-1.124,0.896-1.96,0.896c-0.418,0-0.8-0.079-1.146-0.237c-0.346-0.157-0.636-0.399-0.87-0.727h-0.07l-0.205,0.844h-0.697v-9.315
		h0.973v2.263c0,0.507-0.016,0.962-0.047,1.365h0.047C332.102,70.351,332.773,70.023,333.664,70.023z M333.523,70.856
		c-0.664,0-1.143,0.194-1.436,0.583c-0.293,0.39-0.439,1.045-0.439,1.967s0.15,1.582,0.451,1.979
		c0.301,0.397,0.783,0.596,1.447,0.596c0.598,0,1.043-0.222,1.336-0.667s0.439-1.085,0.439-1.919c0-0.854-0.146-1.491-0.439-1.91
		S334.137,70.856,333.523,70.856z"/>
	<path fill="#999999" d="M337.25,79.638c-0.371,0-0.672-0.05-0.902-0.149V78.68c0.27,0.08,0.535,0.12,0.797,0.12
		c0.305,0,0.528-0.085,0.671-0.255c0.143-0.169,0.214-0.428,0.214-0.774v-7.64h0.973v7.567
		C339.002,78.992,338.418,79.638,337.25,79.638z M337.947,68.353c0-0.228,0.055-0.395,0.164-0.5s0.246-0.159,0.41-0.159
		c0.156,0,0.291,0.055,0.404,0.162s0.17,0.273,0.17,0.497s-0.057,0.39-0.17,0.5c-0.113,0.109-0.248,0.164-0.404,0.164
		c-0.164,0-0.301-0.055-0.41-0.164C338.002,68.743,337.947,68.577,337.947,68.353z"/>
	<path fill="#999999" d="M343.777,76.813c-0.949,0-1.698-0.296-2.247-0.887s-0.823-1.41-0.823-2.46c0-1.059,0.255-1.898,0.765-2.521
		c0.51-0.622,1.194-0.934,2.054-0.934c0.805,0,1.441,0.271,1.91,0.812s0.703,1.254,0.703,2.141v0.628h-4.424
		c0.02,0.771,0.21,1.355,0.571,1.755c0.361,0.398,0.87,0.599,1.526,0.599c0.691,0,1.375-0.148,2.051-0.443v0.886
		c-0.344,0.152-0.669,0.261-0.976,0.326C344.581,76.78,344.211,76.813,343.777,76.813z M343.514,70.843
		c-0.516,0-0.927,0.172-1.233,0.515c-0.307,0.344-0.487,0.818-0.542,1.426h3.357c0-0.627-0.137-1.107-0.41-1.44
		S344.021,70.843,343.514,70.843z"/>
	<path fill="#999999" d="M350.363,76.813c-0.93,0-1.649-0.293-2.159-0.878c-0.51-0.584-0.765-1.411-0.765-2.481
		c0-1.098,0.259-1.945,0.776-2.544s1.255-0.898,2.212-0.898c0.309,0,0.617,0.034,0.926,0.102c0.309,0.068,0.551,0.148,0.727,0.24
		l-0.299,0.844c-0.215-0.088-0.449-0.161-0.703-0.219s-0.479-0.087-0.674-0.087c-1.305,0-1.957,0.851-1.957,2.551
		c0,0.807,0.159,1.425,0.478,1.856c0.318,0.431,0.79,0.646,1.415,0.646c0.535,0,1.084-0.118,1.646-0.354v0.88
		C351.557,76.699,351.016,76.813,350.363,76.813z"/>
	<path fill="#999999" d="M355.584,75.993c0.172,0,0.338-0.014,0.498-0.039c0.16-0.026,0.287-0.053,0.381-0.081v0.761
		c-0.105,0.052-0.261,0.095-0.466,0.129c-0.205,0.033-0.39,0.051-0.554,0.051c-1.242,0-1.863-0.669-1.863-2.006v-3.903h-0.92v-0.479
		l0.92-0.413l0.41-1.401h0.562v1.521h1.863v0.772h-1.863v3.861c0,0.396,0.092,0.698,0.275,0.91
		C355.012,75.886,355.264,75.993,355.584,75.993z"/>
</g>
</svg>
